<svg width="36" height="36" viewBox="0 0 36 36" fill="none" xmlns="http://www.w3.org/2000/svg">
<path fill-rule="evenodd" clip-rule="evenodd" d="M13.35 3H22.605C26.67 3 29.955 4.605 30 8.685V31.455C30 31.71 29.94 31.965 29.82 32.19C29.625 32.55 29.295 32.82 28.89 32.94C28.5 33.06 28.065 33 27.705 32.79L17.985 27.93L8.25 32.79C8.0265 32.9085 7.77 32.985 7.515 32.985C6.675 32.985 6 32.295 6 31.455V8.685C6 4.605 9.3 3 13.35 3ZM12.33 14.43H23.625C24.27 14.43 24.795 13.9035 24.795 13.245C24.795 12.585 24.27 12.06 23.625 12.06H12.33C11.685 12.06 11.16 12.585 11.16 13.245C11.16 13.9035 11.685 14.43 12.33 14.43Z" fill="white"/>
</svg>
