<svg width="36" height="36" viewBox="0 0 36 36" fill="none" xmlns="http://www.w3.org/2000/svg">
<path d="M28.5 6H7.5C6.70435 6 5.94129 6.31607 5.37868 6.87868C4.81607 7.44129 4.5 8.20435 4.5 9V27C4.5 27.7956 4.81607 28.5587 5.37868 29.1213C5.94129 29.6839 6.70435 30 7.5 30H28.5C30.15 30 31.5 28.65 31.5 27V9C31.5 7.35 30.15 6 28.5 6ZM16.5 16.5H14.25V15.75H11.25V20.25H14.25V19.5H16.5V21C16.5 21.825 15.825 22.5 15 22.5H10.5C9.675 22.5 9 21.825 9 21V15C9 14.175 9.675 13.5 10.5 13.5H15C15.825 13.5 16.5 14.175 16.5 15V16.5ZM27 16.5H24.75V15.75H21.75V20.25H24.75V19.5H27V21C27 21.825 26.325 22.5 25.5 22.5H21C20.175 22.5 19.5 21.825 19.5 21V15C19.5 14.175 20.175 13.5 21 13.5H25.5C26.325 13.5 27 14.175 27 15V16.5Z" fill="white"/>
</svg>
