<svg width="100" height="103" viewBox="0 0 100 103" fill="none" xmlns="http://www.w3.org/2000/svg">
<path d="M88.9924 38.7973L88.9301 38.7354C88.925 38.7319 88.921 38.7273 88.9185 38.7219L50.0017 0L11.0852 38.7209C11.0808 38.7254 11.0782 38.7314 11.0737 38.7344L11.0095 38.7963C5.05865 44.7504 1.27882 52.5129 0.270908 60.85C-0.737001 69.187 1.08485 77.62 5.44683 84.8086C9.80883 91.9971 16.4606 97.5288 24.3448 100.524C32.229 103.518 40.8932 103.805 48.9599 101.338C49.6387 101.132 50.3642 101.132 51.0431 101.338C59.1092 103.804 67.7728 103.517 75.6565 100.522C83.5403 97.5268 90.1913 91.9956 94.553 84.8076C98.9147 77.6195 100.737 69.187 99.7293 60.8505C98.7218 52.5139 94.9425 44.7515 88.9924 38.7973ZM24.9234 64.3312C24.734 64.5197 24.5837 64.7437 24.4813 64.9897C24.3788 65.2357 24.326 65.4997 24.326 65.7662C24.3953 72.6003 26.3364 79.2859 29.9406 85.104C30.0224 85.236 30.0603 85.3905 30.0487 85.545C30.0371 85.6995 29.9766 85.8465 29.8759 85.965C29.7753 86.0835 29.6395 86.167 29.4882 86.204C29.3368 86.241 29.1776 86.2295 29.0333 86.171C26.3238 85.037 23.8623 83.3886 21.7866 81.3183C17.5328 77.085 15.1413 71.3448 15.1374 65.3587C15.1336 59.3725 17.5176 53.6294 21.7661 49.391L50.0017 21.3001L78.2359 49.391C82.485 53.6289 84.8699 59.372 84.8659 65.3587C84.8623 71.3448 82.4704 77.085 78.2163 81.3183C76.1404 83.3886 73.6792 85.037 70.9702 86.171C70.8255 86.2295 70.6662 86.241 70.515 86.204C70.3637 86.167 70.228 86.083 70.127 85.965C70.0265 85.8465 69.9657 85.6995 69.9542 85.5445C69.9426 85.39 69.9803 85.2355 70.0622 85.1035C73.6671 79.2859 75.6093 72.6003 75.6797 65.7662C75.6797 65.4997 75.6264 65.2357 75.5234 64.9892C75.4204 64.7427 75.2696 64.5192 75.0797 64.3307L61.7247 50.2366C61.5916 50.1261 61.4242 50.0656 61.2509 50.0656C61.078 50.0656 60.9102 50.1261 60.7775 50.2366C60.6444 50.3466 60.5549 50.5001 60.5238 50.6695C60.4926 50.839 60.5223 51.0135 60.6077 51.1635C65.7945 60.5025 61.3343 73.9167 53.8963 81.3183L53.8571 81.3573C52.8305 82.3677 51.4446 82.9342 50.0007 82.9337C48.5565 82.9332 47.171 82.3657 46.1451 81.3548L46.109 81.3183C38.6683 73.9167 34.2104 60.504 39.3981 51.1655C39.4833 51.0155 39.5131 50.841 39.482 50.6715C39.451 50.5021 39.3612 50.3486 39.2283 50.2386C39.0954 50.1281 38.9278 50.0676 38.7547 50.0676C38.5816 50.0676 38.414 50.1281 38.2811 50.2386L24.9234 64.3312Z" fill="white"/>
</svg>
