<svg width="28" height="28" viewBox="0 0 28 28" fill="none" xmlns="http://www.w3.org/2000/svg">
<path d="M12.2503 20.0083L16.8937 17.3483C17.6753 16.905 17.6753 15.7733 16.8937 15.3183L12.2503 12.6583C11.4687 12.215 10.5003 12.7867 10.5003 13.6733V18.9817C10.5003 19.88 11.4687 20.4517 12.2503 20.0083ZM24.5003 6.99998H15.6453L19.0753 3.56998C19.3087 3.33665 19.3087 2.97498 19.0753 2.74165C18.842 2.50832 18.4803 2.50832 18.247 2.74165L14.0003 6.98832L9.75366 2.74165C9.52033 2.50832 9.15866 2.50832 8.92533 2.74165C8.69199 2.97498 8.69199 3.33665 8.92533 3.56998L12.3553 6.99998H3.50033C2.88149 6.99998 2.28799 7.24582 1.85041 7.6834C1.41282 8.12099 1.16699 8.71448 1.16699 9.33332V23.3333C1.16699 24.6167 2.21699 25.6667 3.50033 25.6667H24.5003C25.7837 25.6667 26.8337 24.6167 26.8337 23.3333V9.33332C26.8337 8.71448 26.5878 8.12099 26.1502 7.6834C25.7127 7.24582 25.1192 6.99998 24.5003 6.99998ZM23.3337 23.3333H4.66699C4.02533 23.3333 3.50033 22.8083 3.50033 22.1667V10.5C3.50033 9.85832 4.02533 9.33332 4.66699 9.33332H23.3337C23.9753 9.33332 24.5003 9.85832 24.5003 10.5V22.1667C24.5003 22.8083 23.9753 23.3333 23.3337 23.3333Z" fill="white"/>
</svg>
