<svg width="20" height="20" viewBox="0 0 20 20" fill="none" xmlns="http://www.w3.org/2000/svg">
<path d="M10 1.875C7.84512 1.875 5.77849 2.73102 4.25476 4.25476C2.73102 5.77849 1.875 7.84512 1.875 10C1.875 12.1549 2.73102 14.2215 4.25476 15.7452C5.77849 17.269 7.84512 18.125 10 18.125C10.8105 18.1272 11.6166 18.0061 12.3906 17.7656C12.49 17.74 12.5797 17.6856 12.6484 17.6094L17.6094 12.6484C17.6839 12.5783 17.738 12.4892 17.7656 12.3906C18.0061 11.6166 18.1272 10.8105 18.125 10C18.1209 7.84639 17.2635 5.78216 15.7407 4.25932C14.2178 2.73648 12.1536 1.87913 10 1.875ZM12.8125 7.5C12.9979 7.5 13.1792 7.55498 13.3333 7.658C13.4875 7.76101 13.6077 7.90743 13.6786 8.07873C13.7496 8.25004 13.7682 8.43854 13.732 8.6204C13.6958 8.80226 13.6065 8.9693 13.4754 9.10041C13.3443 9.23152 13.1773 9.32081 12.9954 9.35699C12.8135 9.39316 12.625 9.3746 12.4537 9.30364C12.2824 9.23268 12.136 9.11252 12.033 8.95835C11.93 8.80418 11.875 8.62292 11.875 8.4375C11.875 8.18886 11.9738 7.9504 12.1496 7.77459C12.3254 7.59877 12.5639 7.5 12.8125 7.5ZM7.1875 7.5C7.37292 7.5 7.55418 7.55498 7.70835 7.658C7.86252 7.76101 7.98268 7.90743 8.05364 8.07873C8.12459 8.25004 8.14316 8.43854 8.10699 8.6204C8.07081 8.80226 7.98152 8.9693 7.85041 9.10041C7.7193 9.23152 7.55226 9.32081 7.3704 9.35699C7.18854 9.39316 7.00004 9.3746 6.82873 9.30364C6.65743 9.23268 6.51101 9.11252 6.408 8.95835C6.30498 8.80418 6.25 8.62292 6.25 8.4375C6.25 8.18886 6.34877 7.9504 6.52459 7.77459C6.7004 7.59877 6.93886 7.5 7.1875 7.5ZM13.7891 12.1875C13.4051 12.8527 12.8528 13.4051 12.1877 13.7891C11.5225 14.1732 10.768 14.3754 10 14.3754C9.23196 14.3754 8.47745 14.1732 7.81233 13.7891C7.1472 13.4051 6.5949 12.8527 6.21094 12.1875C6.16202 12.1165 6.12831 12.0362 6.11193 11.9516C6.09554 11.867 6.09684 11.7799 6.11573 11.6958C6.13462 11.6117 6.17069 11.5324 6.22169 11.463C6.27269 11.3935 6.33751 11.3353 6.41208 11.2921C6.48664 11.2489 6.56934 11.2215 6.65497 11.2118C6.74061 11.2021 6.82733 11.2101 6.9097 11.2355C6.99206 11.2609 7.06827 11.3031 7.13356 11.3594C7.19885 11.4156 7.25179 11.4848 7.28906 11.5625C7.56431 12.0377 7.95966 12.4323 8.43546 12.7065C8.91126 12.9808 9.45081 13.1252 10 13.1252C10.5492 13.1252 11.0887 12.9808 11.5645 12.7065C12.0403 12.4323 12.4357 12.0377 12.7109 11.5625C12.8002 11.433 12.9351 11.3419 13.0886 11.3074C13.242 11.2729 13.4029 11.2976 13.539 11.3765C13.6751 11.4554 13.7764 11.5827 13.8228 11.733C13.8691 11.8834 13.8571 12.0457 13.7891 12.1875Z" fill="#9E9E9E"/>
</svg>
