<svg width="24" height="24" viewBox="0 0 24 24" fill="none" xmlns="http://www.w3.org/2000/svg">
<path d="M13.66 4.3C13.6139 4.07413 13.4912 3.87112 13.3126 3.72534C13.134 3.57956 12.9105 3.49995 12.68 3.5H5.5C5.23478 3.5 4.98043 3.60536 4.79289 3.79289C4.60536 3.98043 4.5 4.23478 4.5 4.5V19.5C4.5 19.7652 4.60536 20.0196 4.79289 20.2071C4.98043 20.3946 5.23478 20.5 5.5 20.5C5.76522 20.5 6.01957 20.3946 6.20711 20.2071C6.39464 20.0196 6.5 19.7652 6.5 19.5V13.5H12.1L12.34 14.7C12.43 15.168 12.843 15.505 13.32 15.5H18.5C18.7652 15.5 19.0196 15.3946 19.2071 15.2071C19.3946 15.0196 19.5 14.7652 19.5 14.5V6.5C19.5 6.23478 19.3946 5.98043 19.2071 5.79289C19.0196 5.60536 18.7652 5.5 18.5 5.5H13.9L13.66 4.3Z" fill="white"/>
</svg>
