<svg width="36" height="36" viewBox="0 0 36 36" fill="none" xmlns="http://www.w3.org/2000/svg">
<path d="M19.5 22.1999C19.5 21.5372 18.9627 20.9999 18.3 20.9999H16.5C14.0394 20.999 11.6253 21.6707 9.51881 22.9423C7.76033 24.0038 6.27199 25.4497 5.16188 27.1654C4.97018 27.4617 4.49982 27.3528 4.5 26.9999C4.5 19.1193 10.5767 12.6584 18.3002 12.0472C18.9608 11.9949 19.5 11.4627 19.5 10.7999V6.99669C19.5 5.99048 20.6639 5.43107 21.4496 6.05964L33.3287 15.5629C33.9292 16.0433 33.9292 16.9566 33.3287 17.437L21.4496 26.9402C20.6639 27.5688 19.5 27.0094 19.5 26.0032V22.1999Z" fill="white"/>
</svg>
