<svg width="20" height="20" viewBox="0 0 20 20" fill="none" xmlns="http://www.w3.org/2000/svg">
<path fill-rule="evenodd" clip-rule="evenodd" d="M6.38881 18.3337H13.611C16.4362 18.3337 18.3337 16.3519 18.3337 13.4031V6.59759C18.3337 3.64875 16.4362 1.66699 13.6118 1.66699H6.38881C3.56441 1.66699 1.66699 3.64875 1.66699 6.59759V13.4031C1.66699 16.3519 3.56441 18.3337 6.38881 18.3337ZM7.08271 9.16699C5.93384 9.16699 5.00033 8.23222 5.00033 7.08366C5.00033 5.9351 5.93384 5.00033 7.08271 5.00033C8.23074 5.00033 9.16509 5.9351 9.16509 7.08366C9.16509 8.23222 8.23074 9.16699 7.08271 9.16699ZM16.5177 12.4453C16.7967 13.1608 16.6517 14.0208 16.3534 14.7294C15.9998 15.5722 15.3227 16.2103 14.4696 16.489C14.0909 16.6128 13.6937 16.667 13.2973 16.667H6.2742C5.57532 16.667 4.95689 16.4993 4.44991 16.1871C4.13232 15.991 4.07617 15.5387 4.31165 15.2454C4.7055 14.7552 5.09432 14.2633 5.48649 13.7671C6.23397 12.8177 6.7376 12.5425 7.29737 12.7841C7.52446 12.8839 7.75239 13.0335 7.98703 13.1918C8.61216 13.6166 9.48115 14.2005 10.6258 13.5667C11.4092 13.128 11.8635 12.3754 12.2591 11.7201L12.2658 11.7091C12.2937 11.6633 12.3215 11.6174 12.3491 11.5716L12.3493 11.5713L12.3493 11.5713C12.4823 11.3513 12.6134 11.1343 12.7618 10.9343C12.9479 10.684 13.6375 9.90143 14.5308 10.4587C15.0998 10.8096 15.5783 11.2843 16.0903 11.7926C16.2855 11.9869 16.4247 12.2079 16.5177 12.4453Z" fill="white"/>
</svg>
