<svg width="36" height="36" viewBox="0 0 36 36" fill="none" xmlns="http://www.w3.org/2000/svg">
<path d="M25.1997 10.5662C25.1997 6.60621 21.9777 3.36621 17.9997 3.36621C14.0217 3.36621 10.7997 6.60621 10.7997 10.5662C10.7997 14.5442 14.0217 17.7662 17.9997 17.7662C21.9777 17.7662 25.1997 14.5442 25.1997 10.5662ZM5.8317 19.1882C5.01207 19.6592 4.29335 20.2872 3.71667 21.0363C3.13998 21.7853 2.71665 22.6407 2.47089 23.5536C2.22513 24.4664 2.16176 25.4187 2.28442 26.3561C2.40707 27.2934 2.71334 28.1974 3.1857 29.0162C4.14078 30.6724 5.71451 31.8816 7.56087 32.3777C9.40723 32.8739 11.3751 32.6166 13.0317 31.6622C13.8508 31.1883 14.5685 30.5577 15.1439 29.8064C15.7193 29.0551 16.141 28.1978 16.3851 27.2835C16.6291 26.3692 16.6907 25.4158 16.5662 24.4777C16.4417 23.5396 16.1337 22.6352 15.6597 21.8162C13.6797 18.3782 9.2697 17.2082 5.8317 19.1882ZM22.9677 31.6622C26.4237 33.6422 30.8157 32.4722 32.8137 29.0342C34.7937 25.5782 33.6237 21.1862 30.1677 19.1882C26.7297 17.2082 22.3197 18.3782 20.3397 21.8162C19.8657 22.6352 19.5577 23.5396 19.4332 24.4777C19.3087 25.4158 19.3703 26.3692 19.6143 27.2835C19.8584 28.1978 20.2801 29.0551 20.8555 29.8064C21.4309 30.5577 22.1486 31.1883 22.9677 31.6622Z" fill="white"/>
</svg>
