<svg width="36" height="36" viewBox="0 0 36 36" fill="none" xmlns="http://www.w3.org/2000/svg">
<path d="M16.6653 34.5001C16.4914 34.4999 16.3188 34.4695 16.1553 34.4101C15.8399 34.2947 15.5724 34.0767 15.3956 33.7911C15.2189 33.5056 15.143 33.1689 15.1803 32.8351L16.3353 22.2001H7.50031C7.22781 22.2006 6.96034 22.1267 6.72663 21.9866C6.49292 21.8464 6.30181 21.6453 6.17381 21.4047C6.04582 21.1641 5.98577 20.8932 6.00013 20.6211C6.01449 20.349 6.10271 20.0859 6.25531 19.8601L18.0903 2.16015C18.2775 1.88315 18.5518 1.67663 18.8698 1.57336C19.1878 1.47009 19.5311 1.476 19.8453 1.59015C20.1474 1.70229 20.4053 1.90872 20.5809 2.17888C20.7565 2.44904 20.8405 2.76856 20.8203 3.09015L19.6653 13.8001H28.5003C28.7728 13.7997 29.0403 13.8736 29.274 14.0137C29.5077 14.1539 29.6988 14.355 29.8268 14.5956C29.9548 14.8362 30.0148 15.1071 30.0005 15.3792C29.9861 15.6513 29.8979 15.9144 29.7453 16.1401L17.9103 33.8401C17.7727 34.0437 17.5872 34.2104 17.3701 34.3254C17.153 34.4405 16.911 34.5005 16.6653 34.5001Z" fill="white"/>
</svg>
