<svg width="16" height="16" viewBox="0 0 16 16" fill="none" xmlns="http://www.w3.org/2000/svg">
<path fill-rule="evenodd" clip-rule="evenodd" d="M1.33301 8.01018C1.33301 4.49824 4.13967 1.3335 8.01301 1.3335C11.7997 1.3335 14.6663 4.43815 14.6663 7.99015C14.6663 12.1097 11.3063 14.6668 7.99967 14.6668C6.90634 14.6668 5.69301 14.3731 4.71967 13.7989C4.37967 13.5919 4.09301 13.4383 3.72634 13.5585L2.37967 13.9591C2.03967 14.0659 1.73301 13.7989 1.83301 13.4383L2.27967 11.9427C2.35301 11.7358 2.33967 11.5154 2.23301 11.3418C1.65967 10.2869 1.33301 9.13186 1.33301 8.01018ZM7.13301 8.01018C7.13301 8.48422 7.51301 8.86479 7.98634 8.87147C8.45967 8.87147 8.83967 8.48422 8.83967 8.01685C8.83967 7.54281 8.45967 7.16224 7.98634 7.16224C7.51967 7.15556 7.13301 7.54281 7.13301 8.01018ZM10.2063 8.01685C10.2063 8.48422 10.5863 8.87147 11.0597 8.87147C11.533 8.87147 11.913 8.48422 11.913 8.01685C11.913 7.54281 11.533 7.16224 11.0597 7.16224C10.5863 7.16224 10.2063 7.54281 10.2063 8.01685ZM4.91301 8.87147C4.44634 8.87147 4.05967 8.48422 4.05967 8.01685C4.05967 7.54281 4.43967 7.16224 4.91301 7.16224C5.38634 7.16224 5.76634 7.54281 5.76634 8.01685C5.76634 8.48422 5.38634 8.86479 4.91301 8.87147Z" fill="#FF4D00"/>
</svg>
