<svg width="36" height="36" viewBox="0 0 36 36" fill="none" xmlns="http://www.w3.org/2000/svg">
<path fill-rule="evenodd" clip-rule="evenodd" d="M18.2621 22.8261H17.7376C14.1325 22.8261 11.2104 19.9391 11.2104 16.3805V9.4456C11.2104 5.8856 14.1325 3 17.7376 3H18.2621C21.8672 3 24.7908 5.8856 24.7908 9.4456V16.3805C24.7908 19.9391 21.8672 22.8261 18.2621 22.8261ZM27.8439 16.1743C27.8439 15.3808 28.4948 14.7394 29.2969 14.7394C30.099 14.7394 30.75 15.3808 30.75 16.1743C30.75 22.6299 25.8008 27.9606 19.4538 28.6766V31.5651C19.4538 32.3572 18.8028 33 18.0007 33C17.1972 33 16.5477 32.3572 16.5477 31.5651V28.6766C10.1992 27.9606 5.25 22.6299 5.25 16.1743C5.25 15.3808 5.90098 14.7394 6.70307 14.7394C7.50517 14.7394 8.15615 15.3808 8.15615 16.1743C8.15615 21.5337 12.572 25.8943 18.0007 25.8943C23.428 25.8943 27.8439 21.5337 27.8439 16.1743Z" fill="white"/>
</svg>
