<svg width="20" height="20" viewBox="0 0 20 20" fill="none" xmlns="http://www.w3.org/2000/svg">
<path fill-rule="evenodd" clip-rule="evenodd" d="M14.6026 6.1633V7.44108C16.0379 7.88909 17.0837 9.18841 17.0837 10.7403V14.8544C17.0837 16.7756 15.4909 18.3333 13.5272 18.3333H6.47432C4.50979 18.3333 2.91699 16.7756 2.91699 14.8544V10.7403C2.91699 9.18841 3.96362 7.88909 5.39806 7.44108V6.1633C5.40653 3.67895 7.46421 1.66663 9.98762 1.66663C12.5449 1.66663 14.6026 3.67895 14.6026 6.1633ZM10.0046 3.11583C11.7235 3.11583 13.1207 4.48222 13.1207 6.1633V7.26138H6.87993V6.14673C6.8884 4.47394 8.28559 3.11583 10.0046 3.11583ZM10.7413 13.7124C10.7413 14.1182 10.411 14.4411 9.99609 14.4411C9.58964 14.4411 9.25939 14.1182 9.25939 13.7124V11.874C9.25939 11.4765 9.58964 11.1535 9.99609 11.1535C10.411 11.1535 10.7413 11.4765 10.7413 11.874V13.7124Z" fill="#9E9E9E"/>
</svg>
