<svg width="17" height="17" viewBox="0 0 17 17" fill="none" xmlns="http://www.w3.org/2000/svg">
<mask id="mask0_1859_7570" style="mask-type:alpha" maskUnits="userSpaceOnUse" x="0" y="0" width="17" height="17">
<path d="M8.5 0C6.24566 0 4.08365 0.895533 2.48959 2.48959C0.895533 4.08365 0 6.24566 0 8.5C0 10.7543 0.895533 12.9163 2.48959 14.5104C4.08365 16.1045 6.24566 17 8.5 17C9.3479 17.0023 10.1912 16.8756 11.001 16.624C11.105 16.5972 11.1987 16.5403 11.2707 16.4606L16.4606 11.2707C16.5386 11.1973 16.5951 11.1041 16.624 11.001C16.8756 10.1912 17.0023 9.3479 17 8.5C16.9957 6.24699 16.0988 4.08749 14.5056 2.49436C12.9125 0.901241 10.753 0.00432027 8.5 0ZM11.4423 5.88462C11.6363 5.88462 11.8259 5.94214 11.9872 6.04991C12.1485 6.15767 12.2742 6.31085 12.3484 6.49006C12.4227 6.66927 12.4421 6.86647 12.4042 7.05672C12.3664 7.24697 12.273 7.42173 12.1358 7.55889C11.9987 7.69606 11.8239 7.78947 11.6336 7.82731C11.4434 7.86515 11.2462 7.84573 11.067 7.7715C10.8878 7.69727 10.7346 7.57156 10.6268 7.41027C10.5191 7.24898 10.4615 7.05936 10.4615 6.86539C10.4615 6.60527 10.5649 6.35581 10.7488 6.17188C10.9327 5.98795 11.1822 5.88462 11.4423 5.88462ZM5.55769 5.88462C5.75167 5.88462 5.94129 5.94214 6.10258 6.04991C6.26387 6.15767 6.38957 6.31085 6.46381 6.49006C6.53804 6.66927 6.55746 6.86647 6.51962 7.05672C6.48177 7.24697 6.38836 7.42173 6.2512 7.55889C6.11404 7.69606 5.93928 7.78947 5.74903 7.82731C5.55878 7.86515 5.36158 7.84573 5.18237 7.7715C5.00316 7.69727 4.84998 7.57156 4.74221 7.41027C4.63444 7.24898 4.57692 7.05936 4.57692 6.86539C4.57692 6.60527 4.68025 6.35581 4.86418 6.17188C5.04811 5.98795 5.29758 5.88462 5.55769 5.88462ZM12.4639 10.7885C12.0623 11.4843 11.4845 12.0622 10.7886 12.464C10.0928 12.8658 9.30349 13.0773 8.5 13.0773C7.69651 13.0773 6.90718 12.8658 6.21136 12.464C5.51553 12.0622 4.93774 11.4843 4.53606 10.7885C4.48489 10.7142 4.44962 10.6302 4.43248 10.5417C4.41534 10.4532 4.41669 10.3621 4.43645 10.2741C4.45621 10.1861 4.49396 10.1032 4.54731 10.0305C4.60066 9.9578 4.66847 9.89693 4.74648 9.85171C4.82448 9.80649 4.911 9.77789 5.00059 9.76772C5.09018 9.75754 5.1809 9.766 5.26707 9.79257C5.35323 9.81913 5.43296 9.86324 5.50126 9.9221C5.56956 9.98096 5.62495 10.0533 5.66394 10.1346C5.9519 10.6318 6.36549 11.0445 6.86325 11.3315C7.36102 11.6184 7.92546 11.7694 8.5 11.7694C9.07454 11.7694 9.63899 11.6184 10.1368 11.3315C10.6345 11.0445 11.0481 10.6318 11.3361 10.1346C11.4295 9.99911 11.5705 9.90382 11.7311 9.86775C11.8917 9.83168 12.0599 9.85749 12.2023 9.94003C12.3447 10.0226 12.4507 10.1558 12.4992 10.313C12.5477 10.4703 12.5351 10.6401 12.4639 10.7885Z" fill="#FF4D00"/>
</mask>
<g mask="url(#mask0_1859_7570)">
<path d="M8.5 0C6.24566 0 4.08365 0.895533 2.48959 2.48959C0.895533 4.08365 0 6.24566 0 8.5C0 10.7543 0.895533 12.9163 2.48959 14.5104C4.08365 16.1045 6.24566 17 8.5 17C9.3479 17.0023 10.1912 16.8756 11.001 16.624C11.105 16.5972 11.1987 16.5403 11.2707 16.4606L16.4606 11.2707C16.5386 11.1973 16.5951 11.1041 16.624 11.001C16.8756 10.1912 17.0023 9.3479 17 8.5C16.9957 6.24699 16.0988 4.08749 14.5056 2.49436C12.9125 0.901241 10.753 0.00432027 8.5 0ZM11.4423 5.88462C11.6363 5.88462 11.8259 5.94214 11.9872 6.04991C12.1485 6.15767 12.2742 6.31085 12.3484 6.49006C12.4227 6.66927 12.4421 6.86647 12.4042 7.05672C12.3664 7.24697 12.273 7.42173 12.1358 7.55889C11.9987 7.69606 11.8239 7.78947 11.6336 7.82731C11.4434 7.86515 11.2462 7.84573 11.067 7.7715C10.8878 7.69727 10.7346 7.57156 10.6268 7.41027C10.5191 7.24898 10.4615 7.05936 10.4615 6.86539C10.4615 6.60527 10.5649 6.35581 10.7488 6.17188C10.9327 5.98795 11.1822 5.88462 11.4423 5.88462ZM5.55769 5.88462C5.75167 5.88462 5.94129 5.94214 6.10258 6.04991C6.26387 6.15767 6.38957 6.31085 6.46381 6.49006C6.53804 6.66927 6.55746 6.86647 6.51962 7.05672C6.48177 7.24697 6.38836 7.42173 6.2512 7.55889C6.11404 7.69606 5.93928 7.78947 5.74903 7.82731C5.55878 7.86515 5.36158 7.84573 5.18237 7.7715C5.00316 7.69727 4.84998 7.57156 4.74221 7.41027C4.63444 7.24898 4.57692 7.05936 4.57692 6.86539C4.57692 6.60527 4.68025 6.35581 4.86418 6.17188C5.04811 5.98795 5.29758 5.88462 5.55769 5.88462ZM12.4639 10.7885C12.0623 11.4843 11.4845 12.0622 10.7886 12.464C10.0928 12.8658 9.30349 13.0773 8.5 13.0773C7.69651 13.0773 6.90718 12.8658 6.21136 12.464C5.51553 12.0622 4.93774 11.4843 4.53606 10.7885C4.48489 10.7142 4.44962 10.6302 4.43248 10.5417C4.41534 10.4532 4.41669 10.3621 4.43645 10.2741C4.45621 10.1861 4.49396 10.1032 4.54731 10.0305C4.60066 9.9578 4.66847 9.89693 4.74648 9.85171C4.82448 9.80649 4.911 9.77789 5.00059 9.76772C5.09018 9.75754 5.1809 9.766 5.26707 9.79257C5.35323 9.81913 5.43296 9.86324 5.50126 9.9221C5.56956 9.98096 5.62495 10.0533 5.66394 10.1346C5.9519 10.6318 6.36549 11.0445 6.86325 11.3315C7.36102 11.6184 7.92546 11.7694 8.5 11.7694C9.07454 11.7694 9.63899 11.6184 10.1368 11.3315C10.6345 11.0445 11.0481 10.6318 11.3361 10.1346C11.4295 9.99911 11.5705 9.90382 11.7311 9.86775C11.8917 9.83168 12.0599 9.85749 12.2023 9.94003C12.3447 10.0226 12.4507 10.1558 12.4992 10.313C12.5477 10.4703 12.5351 10.6401 12.4639 10.7885Z" fill="#FF4D00"/>
</g>
</svg>
