<svg width="36" height="36" viewBox="0 0 36 36" fill="none" xmlns="http://www.w3.org/2000/svg">
<path d="M18 3C9.729 3 3 9.729 3 18C3 26.271 9.729 33 18 33C26.271 33 33 26.271 33 18C33 9.729 26.271 3 18 3ZM18 30C11.3835 30 6 24.6165 6 18C6 16.248 6.387 14.5875 7.0635 13.086C7.2945 13.221 7.5255 13.359 7.7475 13.5C8.3415 13.875 8.934 14.25 9.6765 14.532C10.4175 14.8125 11.3085 15 12.495 15C13.683 15 14.574 14.8125 15.3165 14.5305C16.059 14.2485 16.653 13.875 17.247 13.5C17.841 13.125 18.435 12.75 19.1775 12.468C19.9185 12.1875 20.8095 12 21.9975 12C23.1855 12 24.0765 12.1875 24.8175 12.4695C25.56 12.75 26.154 13.125 26.748 13.5C27.342 13.875 27.936 14.25 28.6785 14.532C28.9455 14.6325 29.2395 14.715 29.55 14.7885C29.8365 15.8115 30 16.8855 30 18C30 24.6165 24.6165 30 18 30Z" fill="white"/>
<path d="M12.75 21C13.9926 21 15 19.9926 15 18.75C15 17.5074 13.9926 16.5 12.75 16.5C11.5074 16.5 10.5 17.5074 10.5 18.75C10.5 19.9926 11.5074 21 12.75 21Z" fill="white"/>
<path d="M23.25 21C24.4926 21 25.5 19.9926 25.5 18.75C25.5 17.5074 24.4926 16.5 23.25 16.5C22.0074 16.5 21 17.5074 21 18.75C21 19.9926 22.0074 21 23.25 21Z" fill="white"/>
</svg>
