<svg width="28" height="28" viewBox="0 0 28 28" fill="none" xmlns="http://www.w3.org/2000/svg">
<path d="M23.334 14.3203C23.334 14.7633 23.0048 15.1294 22.5777 15.1873L22.459 15.1953L4.95898 15.1953C4.47573 15.1953 4.08398 14.8036 4.08398 14.3203C4.08398 13.8773 4.41316 13.5112 4.84025 13.4533L4.95898 13.4453L22.459 13.4453C22.9422 13.4453 23.334 13.8371 23.334 14.3203Z" fill="white"/>
<path d="M12.634 20.7291C12.9764 21.0701 12.9776 21.6241 12.6367 21.9665C12.3267 22.2779 11.8406 22.3071 11.4975 22.0537L11.3992 21.9692L4.34088 14.9412C4.02864 14.6303 4.00024 14.1425 4.25568 13.7994L4.34083 13.7012L11.3992 6.67199C11.7416 6.33099 12.2956 6.33214 12.6366 6.67456C12.9466 6.98584 12.9738 7.47201 12.719 7.81403L12.634 7.91199L6.19867 14.3215L12.634 20.7291Z" fill="white"/>
</svg>
