<svg width="16" height="16" viewBox="0 0 16 16" fill="none" xmlns="http://www.w3.org/2000/svg">
<path fill-rule="evenodd" clip-rule="evenodd" d="M1.33301 8.00016C1.33301 4.32016 4.31301 1.3335 7.99967 1.3335C11.6797 1.3335 14.6663 4.32016 14.6663 8.00016C14.6663 11.6868 11.6797 14.6668 7.99967 14.6668C4.31301 14.6668 1.33301 11.6868 1.33301 8.00016ZM9.48634 9.22016L10.5663 5.80683C10.6397 5.5735 10.4263 5.3535 10.193 5.42683L6.77967 6.4935C6.63967 6.54016 6.52634 6.64683 6.48634 6.78683L5.41967 10.2068C5.34634 10.4335 5.56634 10.6535 5.79301 10.5802L9.19301 9.5135C9.33301 9.4735 9.44634 9.36016 9.48634 9.22016Z" fill="#00F2EA"/>
</svg>
