<svg width="15" height="15" viewBox="0 0 15 15" fill="none" xmlns="http://www.w3.org/2000/svg">
<path fill-rule="evenodd" clip-rule="evenodd" d="M4.58125 1.25H10.4125C12.5375 1.25 13.75 2.45 13.75 4.58125V10.4187C13.75 12.5375 12.5437 13.75 10.4187 13.75H4.58125C2.45 13.75 1.25 12.5375 1.25 10.4187V4.58125C1.25 2.45 2.45 1.25 4.58125 1.25ZM8.0125 8.01875H9.7875C10.075 8.0125 10.3062 7.78125 10.3062 7.49375C10.3062 7.20625 10.075 6.975 9.7875 6.975H8.0125V5.2125C8.0125 4.925 7.78125 4.69375 7.49375 4.69375C7.20625 4.69375 6.975 4.925 6.975 5.2125V6.975H5.20625C5.06875 6.975 4.9375 7.03125 4.8375 7.125C4.74375 7.225 4.6875 7.35563 4.6875 7.49375C4.6875 7.78125 4.91875 8.0125 5.20625 8.01875H6.975V9.7875C6.975 10.075 7.20625 10.3063 7.49375 10.3063C7.78125 10.3063 8.0125 10.075 8.0125 9.7875V8.01875Z" fill="#FF4D00"/>
</svg>
