<svg width="20" height="20" viewBox="0 0 20 20" fill="none" xmlns="http://www.w3.org/2000/svg">
<path fill-rule="evenodd" clip-rule="evenodd" d="M5.09453 3.75H9.92124C11.9396 3.75 13.3488 5.14086 13.3488 7.13409V12.8659C13.3488 14.8591 11.9396 16.25 9.92124 16.25H5.09453C3.07617 16.25 1.66699 14.8591 1.66699 12.8659V7.13409C1.66699 5.14086 3.07617 3.75 5.09453 3.75ZM16.632 5.73249C16.9978 5.54636 17.427 5.56582 17.7762 5.78579C18.1253 6.00491 18.3337 6.38562 18.3337 6.80186V13.1986C18.3337 13.6157 18.1253 13.9956 17.7762 14.2147C17.5853 14.334 17.372 14.3949 17.157 14.3949C16.9778 14.3949 16.7986 14.3526 16.6311 14.2672L15.397 13.6445C14.9403 13.4127 14.657 12.9474 14.657 12.4305V7.5692C14.657 7.05144 14.9403 6.58612 15.397 6.35601L16.632 5.73249Z" fill="#9E9E9E"/>
</svg>
