<svg width="36" height="36" viewBox="0 0 36 36" fill="none" xmlns="http://www.w3.org/2000/svg">
<path d="M34.5 6V9H30V13.5H27V9H22.5V6H27V1.5H30V6H34.5ZM21.75 16.5C22.3469 16.4998 22.9193 16.2625 23.3413 15.8402C23.7633 15.418 24.0002 14.8454 24 14.2485C23.9998 13.6516 23.7625 13.0792 23.3402 12.6572C22.918 12.2352 22.3454 11.9983 21.7485 11.9985C21.4529 11.9986 21.1603 12.0569 20.8872 12.1701C20.6142 12.2833 20.3661 12.4492 20.1572 12.6583C19.9483 12.8673 19.7826 13.1155 19.6695 13.3886C19.5565 13.6617 19.4984 13.9544 19.4985 14.25C19.4986 14.5456 19.5569 14.8382 19.6701 15.1113C19.7833 15.3843 19.9492 15.6324 20.1583 15.8413C20.3673 16.0502 20.6155 16.2159 20.8886 16.329C21.1617 16.442 21.4544 16.5001 21.75 16.5ZM27 21.351L26.2305 20.496C25.9492 20.1827 25.605 19.9322 25.2205 19.7607C24.8359 19.5892 24.4196 19.5005 23.9985 19.5005C23.5774 19.5005 23.1611 19.5892 22.7765 19.7607C22.392 19.9322 22.0478 20.1827 21.7665 20.496L20.7825 21.5925L13.5 13.5L9 18.4995V9H19.5V6H9C8.20435 6 7.44129 6.31607 6.87868 6.87868C6.31607 7.44129 6 8.20435 6 9V27C6 27.7956 6.31607 28.5587 6.87868 29.1213C7.44129 29.6839 8.20435 30 9 30H27C27.7956 30 28.5587 29.6839 29.1213 29.1213C29.6839 28.5587 30 27.7956 30 27V16.5H27V21.351Z" fill="white"/>
</svg>
