<svg width="36" height="36" viewBox="0 0 36 36" fill="none" xmlns="http://www.w3.org/2000/svg">
<path d="M15.675 23.25C16.275 23.85 17.05 24.1435 18 24.1305C18.95 24.1185 19.65 23.775 20.1 23.1L26.4375 13.6125C26.6625 13.2625 26.631 12.944 26.343 12.657C26.056 12.369 25.7375 12.3375 25.3875 12.5625L15.9 18.9C15.225 19.35 14.869 20.0375 14.832 20.9625C14.794 21.8875 15.075 22.65 15.675 23.25ZM7.65 30C7.125 30 6.625 29.875 6.15 29.625C5.675 29.375 5.3 29.025 5.025 28.575C4.375 27.45 3.875 26.2565 3.525 24.9945C3.175 23.7315 3 22.4 3 21C3 18.925 3.394 16.981 4.182 15.168C4.969 13.356 6.044 11.7685 7.407 10.4055C8.769 9.0435 10.3625 7.9685 12.1875 7.1805C14.0125 6.3935 15.95 6 18 6C20.075 6 22.0185 6.3935 23.8305 7.1805C25.6435 7.9685 27.231 9.0435 28.593 10.4055C29.956 11.7685 31.031 13.356 31.818 15.168C32.606 16.981 33 18.925 33 21C33 22.4 32.8315 23.7185 32.4945 24.9555C32.1565 26.1935 31.65 27.4 30.975 28.575C30.7 29.025 30.325 29.375 29.85 29.625C29.375 29.875 28.875 30 28.35 30H7.65Z" fill="white"/>
</svg>
