<svg width="36" height="36" viewBox="0 0 36 36" fill="none" xmlns="http://www.w3.org/2000/svg">
<path d="M14.2502 3.00001C16.6637 2.99991 19.0133 3.77568 20.9523 5.21281C22.8912 6.64995 24.3169 8.67233 25.0187 10.9815C26.8777 11.5466 28.5586 12.5836 29.8977 13.9914C31.2368 15.3991 32.1885 17.1297 32.6601 19.0146C33.1317 20.8995 33.107 22.8743 32.5886 24.7468C32.0702 26.6193 31.0757 28.3257 29.7019 29.6996C28.3281 31.0736 26.6218 32.0683 24.7494 32.5869C22.8769 33.1055 20.9021 33.1304 19.0172 32.659C17.1322 32.1876 15.4016 31.2361 13.9936 29.8971C12.5857 28.5582 11.5486 26.8774 10.9832 25.0185C8.39931 24.2372 6.18246 22.5528 4.73727 20.2728C3.29208 17.9928 2.71491 15.2691 3.11111 12.5989C3.50731 9.92862 4.85045 7.48987 6.8954 5.72768C8.94036 3.9655 11.5508 2.99738 14.2502 3.00001ZM25.4972 14.3985L25.5002 14.25C25.5005 17.2079 24.3359 20.0469 22.2584 22.1524C20.181 24.2579 17.3579 25.4606 14.4002 25.5C14.9921 26.659 15.8497 27.6615 16.9031 28.4257C17.9564 29.1899 19.1756 29.694 20.461 29.897C21.7465 30.0999 23.0617 29.9959 24.2992 29.5934C25.5368 29.1909 26.6615 28.5014 27.5817 27.5812C28.5018 26.6609 29.1912 25.536 29.5935 24.2984C29.9958 23.0608 30.0997 21.7456 29.8965 20.4602C29.6934 19.1748 29.1891 17.9557 28.4248 16.9024C27.6604 15.8492 26.6578 14.9917 25.4987 14.4L25.4972 14.3985ZM14.2502 6.00001C12.3968 5.99934 10.597 6.62285 9.14121 7.77001C7.68538 8.91717 6.65825 10.5212 6.22541 12.3234C5.79257 14.1256 5.97922 16.0211 6.75529 17.7043C7.53136 19.3875 8.85162 20.7603 10.5032 21.6015L10.5002 21.75C10.5 18.7921 11.6646 15.9531 13.7421 13.8476C15.8195 11.7421 18.6426 10.5394 21.6002 10.5C20.9093 9.145 19.8571 8.0075 18.56 7.21332C17.2628 6.41913 15.7712 5.99921 14.2502 6.00001Z" fill="white"/>
</svg>
