<svg width="263" height="263" viewBox="0 0 263 263" fill="none" xmlns="http://www.w3.org/2000/svg">
<path d="M10.52 0H0V10.52H10.52V0Z" fill="black"/>
<path d="M21.04 0H10.52V10.52H21.04V0Z" fill="black"/>
<path d="M31.56 0H21.04V10.52H31.56V0Z" fill="black"/>
<path d="M42.08 0H31.56V10.52H42.08V0Z" fill="black"/>
<path d="M52.6 0H42.08V10.52H52.6V0Z" fill="black"/>
<path d="M63.12 0H52.6V10.52H63.12V0Z" fill="black"/>
<path d="M73.64 0H63.12V10.52H73.64V0Z" fill="black"/>
<path d="M94.68 0H84.16V10.52H94.68V0Z" fill="black"/>
<path d="M126.24 0H115.72V10.52H126.24V0Z" fill="black"/>
<path d="M157.8 0H147.28V10.52H157.8V0Z" fill="black"/>
<path d="M178.84 0H168.32V10.52H178.84V0Z" fill="black"/>
<path d="M199.88 0H189.36V10.52H199.88V0Z" fill="black"/>
<path d="M210.4 0H199.88V10.52H210.4V0Z" fill="black"/>
<path d="M220.92 0H210.4V10.52H220.92V0Z" fill="black"/>
<path d="M231.44 0H220.92V10.52H231.44V0Z" fill="black"/>
<path d="M241.96 0H231.44V10.52H241.96V0Z" fill="black"/>
<path d="M252.48 0H241.96V10.52H252.48V0Z" fill="black"/>
<path d="M263 0H252.48V10.52H263V0Z" fill="black"/>
<path d="M10.52 10.52H0V21.04H10.52V10.52Z" fill="black"/>
<path d="M73.64 10.52H63.12L63.12 21.04H73.64V10.52Z" fill="black"/>
<path d="M105.2 10.52H94.68V21.04H105.2V10.52Z" fill="black"/>
<path d="M147.28 10.52H136.76V21.04H147.28V10.52Z" fill="black"/>
<path d="M168.32 10.52H157.8L157.8 21.04H168.32V10.52Z" fill="black"/>
<path d="M199.88 10.52H189.36V21.04H199.88V10.52Z" fill="black"/>
<path d="M263 10.52H252.48V21.04H263V10.52Z" fill="black"/>
<path d="M10.52 21.04H0V31.56H10.52V21.04Z" fill="black"/>
<path d="M31.56 21.04H21.04V31.56H31.56V21.04Z" fill="black"/>
<path d="M42.08 21.04H31.56V31.56H42.08V21.04Z" fill="black"/>
<path d="M52.6 21.04H42.08V31.56H52.6V21.04Z" fill="black"/>
<path d="M73.64 21.04H63.12V31.56H73.64V21.04Z" fill="black"/>
<path d="M94.68 21.04H84.16V31.56H94.68V21.04Z" fill="black"/>
<path d="M115.72 21.04H105.2V31.56H115.72V21.04Z" fill="black"/>
<path d="M136.76 21.04H126.24V31.56H136.76V21.04Z" fill="black"/>
<path d="M178.84 21.04H168.32V31.56H178.84V21.04Z" fill="black"/>
<path d="M199.88 21.04H189.36V31.56H199.88V21.04Z" fill="black"/>
<path d="M220.92 21.04H210.4V31.56H220.92V21.04Z" fill="black"/>
<path d="M231.44 21.04H220.92V31.56H231.44V21.04Z" fill="black"/>
<path d="M241.96 21.04H231.44V31.56H241.96V21.04Z" fill="black"/>
<path d="M263 21.04H252.48V31.56H263V21.04Z" fill="black"/>
<path d="M10.52 31.56H0V42.08H10.52V31.56Z" fill="black"/>
<path d="M31.56 31.56H21.04V42.08H31.56V31.56Z" fill="black"/>
<path d="M42.08 31.56H31.56V42.08H42.08V31.56Z" fill="black"/>
<path d="M52.6 31.56H42.08V42.08H52.6V31.56Z" fill="black"/>
<path d="M73.64 31.56H63.12V42.08H73.64V31.56Z" fill="black"/>
<path d="M115.72 31.56H105.2V42.08H115.72V31.56Z" fill="black"/>
<path d="M126.24 31.56H115.72V42.08H126.24V31.56Z" fill="black"/>
<path d="M136.76 31.56H126.24V42.08H136.76V31.56Z" fill="black"/>
<path d="M199.88 31.56H189.36V42.08H199.88V31.56Z" fill="black"/>
<path d="M220.92 31.56H210.4V42.08H220.92V31.56Z" fill="black"/>
<path d="M231.44 31.56H220.92V42.08H231.44V31.56Z" fill="black"/>
<path d="M241.96 31.56H231.44V42.08H241.96V31.56Z" fill="black"/>
<path d="M263 31.56H252.48V42.08H263V31.56Z" fill="black"/>
<path d="M10.52 42.08H0V52.6H10.52V42.08Z" fill="black"/>
<path d="M31.56 42.08H21.04V52.6H31.56V42.08Z" fill="black"/>
<path d="M42.08 42.08H31.56V52.6H42.08V42.08Z" fill="black"/>
<path d="M52.6 42.08H42.08V52.6H52.6V42.08Z" fill="black"/>
<path d="M73.64 42.08H63.12V52.6H73.64V42.08Z" fill="black"/>
<path d="M94.68 42.08H84.16V52.6H94.68V42.08Z" fill="black"/>
<path d="M136.76 42.08H126.24V52.6H136.76V42.08Z" fill="black"/>
<path d="M147.28 42.08H136.76V52.6H147.28V42.08Z" fill="black"/>
<path d="M157.8 42.08H147.28V52.6H157.8V42.08Z" fill="black"/>
<path d="M168.32 42.08H157.8V52.6H168.32V42.08Z" fill="black"/>
<path d="M178.84 42.08H168.32V52.6H178.84V42.08Z" fill="black"/>
<path d="M199.88 42.08H189.36V52.6H199.88V42.08Z" fill="black"/>
<path d="M220.92 42.08H210.4V52.6H220.92V42.08Z" fill="black"/>
<path d="M231.44 42.08H220.92V52.6H231.44V42.08Z" fill="black"/>
<path d="M241.96 42.08H231.44V52.6H241.96V42.08Z" fill="black"/>
<path d="M263 42.08H252.48V52.6H263V42.08Z" fill="black"/>
<path d="M10.52 52.6H0V63.12H10.52V52.6Z" fill="black"/>
<path d="M73.64 52.6H63.12V63.12H73.64V52.6Z" fill="black"/>
<path d="M105.2 52.6H94.68V63.12H105.2V52.6Z" fill="black"/>
<path d="M115.72 52.6H105.2V63.12H115.72V52.6Z" fill="black"/>
<path d="M126.24 52.6H115.72V63.12H126.24V52.6Z" fill="black"/>
<path d="M136.76 52.6H126.24V63.12H136.76V52.6Z" fill="black"/>
<path d="M147.28 52.6H136.76V63.12H147.28V52.6Z" fill="black"/>
<path d="M199.88 52.6H189.36V63.12H199.88V52.6Z" fill="black"/>
<path d="M263 52.6H252.48V63.12H263V52.6Z" fill="black"/>
<path d="M10.52 63.12H0V73.64H10.52V63.12Z" fill="black"/>
<path d="M21.04 63.12L10.52 63.12V73.64H21.04V63.12Z" fill="black"/>
<path d="M31.56 63.12H21.04V73.64H31.56V63.12Z" fill="black"/>
<path d="M42.08 63.12H31.56V73.64H42.08V63.12Z" fill="black"/>
<path d="M52.6 63.12H42.08V73.64H52.6V63.12Z" fill="black"/>
<path d="M63.12 63.12L52.6 63.12V73.64H63.12L63.12 63.12Z" fill="black"/>
<path d="M73.64 63.12H63.12L63.12 73.64H73.64V63.12Z" fill="black"/>
<path d="M94.68 63.12L84.16 63.12V73.64H94.68V63.12Z" fill="black"/>
<path d="M115.72 63.12H105.2V73.64H115.72V63.12Z" fill="black"/>
<path d="M136.76 63.12H126.24V73.64H136.76V63.12Z" fill="black"/>
<path d="M157.8 63.12L147.28 63.12V73.64H157.8V63.12Z" fill="black"/>
<path d="M178.84 63.12H168.32V73.64H178.84V63.12Z" fill="black"/>
<path d="M199.88 63.12H189.36V73.64H199.88V63.12Z" fill="black"/>
<path d="M210.4 63.12L199.88 63.12V73.64H210.4V63.12Z" fill="black"/>
<path d="M220.92 63.12H210.4V73.64H220.92V63.12Z" fill="black"/>
<path d="M231.44 63.12H220.92V73.64H231.44V63.12Z" fill="black"/>
<path d="M241.96 63.12H231.44V73.64H241.96V63.12Z" fill="black"/>
<path d="M252.48 63.12L241.96 63.12V73.64H252.48V63.12Z" fill="black"/>
<path d="M263 63.12H252.48V73.64H263V63.12Z" fill="black"/>
<path d="M115.72 73.64H105.2V84.16H115.72V73.64Z" fill="black"/>
<path d="M136.76 73.64H126.24V84.16H136.76V73.64Z" fill="black"/>
<path d="M147.28 73.64H136.76V84.16H147.28V73.64Z" fill="black"/>
<path d="M21.04 84.16H10.52V94.68H21.04V84.16Z" fill="black"/>
<path d="M52.6 84.16H42.08V94.68H52.6V84.16Z" fill="black"/>
<path d="M73.64 84.16H63.12V94.68H73.64V84.16Z" fill="black"/>
<path d="M105.2 84.16H94.68V94.68H105.2V84.16Z" fill="black"/>
<path d="M126.24 84.16H115.72V94.68H126.24V84.16Z" fill="black"/>
<path d="M147.28 84.16H136.76V94.68H147.28V84.16Z" fill="black"/>
<path d="M178.84 84.16H168.32V94.68H178.84V84.16Z" fill="black"/>
<path d="M189.36 84.16H178.84V94.68H189.36V84.16Z" fill="black"/>
<path d="M220.92 84.16H210.4V94.68H220.92V84.16Z" fill="black"/>
<path d="M241.96 84.16H231.44V94.68H241.96V84.16Z" fill="black"/>
<path d="M263 84.16H252.48V94.68H263V84.16Z" fill="black"/>
<path d="M21.04 94.68H10.52V105.2H21.04V94.68Z" fill="black"/>
<path d="M31.56 94.68H21.04V105.2H31.56V94.68Z" fill="black"/>
<path d="M63.12 94.68H52.6V105.2H63.12L63.12 94.68Z" fill="black"/>
<path d="M84.16 94.68H73.64V105.2H84.16V94.68Z" fill="black"/>
<path d="M105.2 94.68H94.68V105.2H105.2V94.68Z" fill="black"/>
<path d="M115.72 94.68H105.2V105.2H115.72V94.68Z" fill="black"/>
<path d="M126.24 94.68H115.72V105.2H126.24V94.68Z" fill="black"/>
<path d="M136.76 94.68H126.24V105.2H136.76V94.68Z" fill="black"/>
<path d="M168.32 94.68H157.8V105.2H168.32V94.68Z" fill="black"/>
<path d="M189.36 94.68H178.84V105.2H189.36V94.68Z" fill="black"/>
<path d="M199.88 94.68H189.36V105.2H199.88V94.68Z" fill="black"/>
<path d="M210.4 94.68H199.88V105.2H210.4V94.68Z" fill="black"/>
<path d="M241.96 94.68H231.44V105.2H241.96V94.68Z" fill="black"/>
<path d="M52.6 105.2H42.08V115.72H52.6V105.2Z" fill="black"/>
<path d="M73.64 105.2H63.12L63.12 115.72H73.64V105.2Z" fill="black"/>
<path d="M84.16 105.2H73.64V115.72H84.16V105.2Z" fill="black"/>
<path d="M105.2 105.2H94.68V115.72H105.2V105.2Z" fill="black"/>
<path d="M147.28 105.2H136.76V115.72H147.28V105.2Z" fill="black"/>
<path d="M157.8 105.2H147.28V115.72H157.8L157.8 105.2Z" fill="black"/>
<path d="M168.32 105.2H157.8L157.8 115.72H168.32V105.2Z" fill="black"/>
<path d="M178.84 105.2H168.32V115.72H178.84V105.2Z" fill="black"/>
<path d="M220.92 105.2H210.4V115.72H220.92V105.2Z" fill="black"/>
<path d="M231.44 105.2H220.92V115.72H231.44V105.2Z" fill="black"/>
<path d="M252.48 105.2H241.96V115.72H252.48V105.2Z" fill="black"/>
<path d="M263 105.2H252.48V115.72H263V105.2Z" fill="black"/>
<path d="M31.56 115.72H21.04V126.24H31.56V115.72Z" fill="black"/>
<path d="M42.08 115.72H31.56V126.24H42.08V115.72Z" fill="black"/>
<path d="M52.6 115.72H42.08V126.24H52.6V115.72Z" fill="black"/>
<path d="M84.16 115.72H73.64V126.24H84.16V115.72Z" fill="black"/>
<path d="M126.24 115.72H115.72V126.24H126.24V115.72Z" fill="black"/>
<path d="M147.28 115.72H136.76V126.24H147.28V115.72Z" fill="black"/>
<path d="M168.32 115.72H157.8L157.8 126.24H168.32V115.72Z" fill="black"/>
<path d="M189.36 115.72H178.84V126.24H189.36V115.72Z" fill="black"/>
<path d="M199.88 115.72H189.36V126.24H199.88V115.72Z" fill="black"/>
<path d="M220.92 115.72H210.4V126.24H220.92V115.72Z" fill="black"/>
<path d="M231.44 115.72H220.92V126.24H231.44V115.72Z" fill="black"/>
<path d="M252.48 115.72H241.96V126.24H252.48V115.72Z" fill="black"/>
<path d="M10.52 126.24H0V136.76H10.52V126.24Z" fill="black"/>
<path d="M21.04 126.24H10.52V136.76H21.04V126.24Z" fill="black"/>
<path d="M31.56 126.24H21.04V136.76H31.56V126.24Z" fill="black"/>
<path d="M63.12 126.24H52.6V136.76H63.12V126.24Z" fill="black"/>
<path d="M73.64 126.24H63.12V136.76H73.64V126.24Z" fill="black"/>
<path d="M94.68 126.24H84.16V136.76H94.68V126.24Z" fill="black"/>
<path d="M105.2 126.24H94.68V136.76H105.2V126.24Z" fill="black"/>
<path d="M126.24 126.24H115.72V136.76H126.24V126.24Z" fill="black"/>
<path d="M178.84 126.24H168.32V136.76H178.84V126.24Z" fill="black"/>
<path d="M189.36 126.24H178.84V136.76H189.36V126.24Z" fill="black"/>
<path d="M199.88 126.24H189.36V136.76H199.88V126.24Z" fill="black"/>
<path d="M210.4 126.24H199.88V136.76H210.4V126.24Z" fill="black"/>
<path d="M263 126.24H252.48V136.76H263V126.24Z" fill="black"/>
<path d="M21.04 136.76H10.52V147.28H21.04V136.76Z" fill="black"/>
<path d="M42.08 136.76H31.56V147.28H42.08V136.76Z" fill="black"/>
<path d="M52.6 136.76H42.08V147.28H52.6V136.76Z" fill="black"/>
<path d="M105.2 136.76H94.68V147.28H105.2V136.76Z" fill="black"/>
<path d="M126.24 136.76H115.72V147.28H126.24V136.76Z" fill="black"/>
<path d="M157.8 136.76H147.28V147.28H157.8V136.76Z" fill="black"/>
<path d="M189.36 136.76H178.84V147.28H189.36V136.76Z" fill="black"/>
<path d="M210.4 136.76H199.88V147.28H210.4V136.76Z" fill="black"/>
<path d="M241.96 136.76H231.44V147.28H241.96V136.76Z" fill="black"/>
<path d="M10.52 147.28H0V157.8H10.52V147.28Z" fill="black"/>
<path d="M63.12 147.28H52.6V157.8H63.12V147.28Z" fill="black"/>
<path d="M73.64 147.28H63.12V157.8H73.64V147.28Z" fill="black"/>
<path d="M115.72 147.28H105.2V157.8H115.72V147.28Z" fill="black"/>
<path d="M126.24 147.28H115.72V157.8H126.24V147.28Z" fill="black"/>
<path d="M136.76 147.28H126.24V157.8H136.76V147.28Z" fill="black"/>
<path d="M147.28 147.28H136.76V157.8H147.28V147.28Z" fill="black"/>
<path d="M199.88 147.28H189.36V157.8H199.88V147.28Z" fill="black"/>
<path d="M210.4 147.28H199.88V157.8H210.4V147.28Z" fill="black"/>
<path d="M220.92 147.28H210.4V157.8H220.92V147.28Z" fill="black"/>
<path d="M231.44 147.28H220.92V157.8H231.44V147.28Z" fill="black"/>
<path d="M31.56 157.8H21.04V168.32H31.56V157.8Z" fill="black"/>
<path d="M63.12 157.8H52.6V168.32H63.12V157.8Z" fill="black"/>
<path d="M84.16 157.8L73.64 157.8V168.32H84.16V157.8Z" fill="black"/>
<path d="M105.2 157.8L94.68 157.8V168.32H105.2V157.8Z" fill="black"/>
<path d="M115.72 157.8H105.2V168.32H115.72V157.8Z" fill="black"/>
<path d="M136.76 157.8H126.24V168.32H136.76V157.8Z" fill="black"/>
<path d="M147.28 157.8H136.76V168.32H147.28V157.8Z" fill="black"/>
<path d="M168.32 157.8H157.8V168.32H168.32V157.8Z" fill="black"/>
<path d="M178.84 157.8H168.32V168.32H178.84V157.8Z" fill="black"/>
<path d="M199.88 157.8H189.36V168.32H199.88V157.8Z" fill="black"/>
<path d="M241.96 157.8L231.44 157.8V168.32H241.96V157.8Z" fill="black"/>
<path d="M252.48 157.8H241.96V168.32H252.48V157.8Z" fill="black"/>
<path d="M263 157.8H252.48V168.32H263V157.8Z" fill="black"/>
<path d="M42.08 168.32H31.56V178.84H42.08V168.32Z" fill="black"/>
<path d="M52.6 168.32H42.08V178.84H52.6V168.32Z" fill="black"/>
<path d="M63.12 168.32H52.6V178.84H63.12V168.32Z" fill="black"/>
<path d="M73.64 168.32H63.12V178.84H73.64V168.32Z" fill="black"/>
<path d="M94.68 168.32H84.16V178.84H94.68V168.32Z" fill="black"/>
<path d="M105.2 168.32H94.68V178.84H105.2V168.32Z" fill="black"/>
<path d="M115.72 168.32H105.2V178.84H115.72V168.32Z" fill="black"/>
<path d="M126.24 168.32H115.72V178.84H126.24V168.32Z" fill="black"/>
<path d="M136.76 168.32H126.24V178.84H136.76V168.32Z" fill="black"/>
<path d="M178.84 168.32H168.32V178.84H178.84V168.32Z" fill="black"/>
<path d="M189.36 168.32H178.84V178.84H189.36V168.32Z" fill="black"/>
<path d="M199.88 168.32H189.36V178.84H199.88V168.32Z" fill="black"/>
<path d="M210.4 168.32H199.88V178.84H210.4V168.32Z" fill="black"/>
<path d="M220.92 168.32H210.4V178.84H220.92V168.32Z" fill="black"/>
<path d="M241.96 168.32H231.44V178.84H241.96V168.32Z" fill="black"/>
<path d="M252.48 168.32H241.96V178.84H252.48V168.32Z" fill="black"/>
<path d="M263 168.32H252.48V178.84H263V168.32Z" fill="black"/>
<path d="M105.2 178.84H94.68V189.36H105.2V178.84Z" fill="black"/>
<path d="M115.72 178.84H105.2V189.36H115.72V178.84Z" fill="black"/>
<path d="M126.24 178.84H115.72V189.36H126.24V178.84Z" fill="black"/>
<path d="M136.76 178.84H126.24V189.36H136.76V178.84Z" fill="black"/>
<path d="M178.84 178.84H168.32V189.36H178.84V178.84Z" fill="black"/>
<path d="M220.92 178.84H210.4V189.36H220.92V178.84Z" fill="black"/>
<path d="M10.52 189.36H0V199.88H10.52V189.36Z" fill="black"/>
<path d="M21.04 189.36H10.52V199.88H21.04V189.36Z" fill="black"/>
<path d="M31.56 189.36H21.04V199.88H31.56V189.36Z" fill="black"/>
<path d="M42.08 189.36H31.56V199.88H42.08V189.36Z" fill="black"/>
<path d="M52.6 189.36H42.08V199.88H52.6V189.36Z" fill="black"/>
<path d="M63.12 189.36H52.6V199.88H63.12V189.36Z" fill="black"/>
<path d="M73.64 189.36H63.12V199.88H73.64V189.36Z" fill="black"/>
<path d="M105.2 189.36H94.68V199.88H105.2V189.36Z" fill="black"/>
<path d="M126.24 189.36H115.72V199.88H126.24V189.36Z" fill="black"/>
<path d="M136.76 189.36H126.24V199.88H136.76V189.36Z" fill="black"/>
<path d="M147.28 189.36H136.76V199.88H147.28V189.36Z" fill="black"/>
<path d="M157.8 189.36H147.28V199.88H157.8V189.36Z" fill="black"/>
<path d="M168.32 189.36H157.8V199.88H168.32V189.36Z" fill="black"/>
<path d="M178.84 189.36H168.32V199.88H178.84V189.36Z" fill="black"/>
<path d="M199.88 189.36H189.36V199.88H199.88V189.36Z" fill="black"/>
<path d="M220.92 189.36H210.4V199.88H220.92V189.36Z" fill="black"/>
<path d="M252.48 189.36H241.96V199.88H252.48V189.36Z" fill="black"/>
<path d="M263 189.36H252.48V199.88H263V189.36Z" fill="black"/>
<path d="M10.52 199.88H0V210.4H10.52V199.88Z" fill="black"/>
<path d="M73.64 199.88H63.12L63.12 210.4H73.64V199.88Z" fill="black"/>
<path d="M115.72 199.88H105.2V210.4H115.72V199.88Z" fill="black"/>
<path d="M126.24 199.88H115.72V210.4H126.24V199.88Z" fill="black"/>
<path d="M157.8 199.88H147.28V210.4H157.8V199.88Z" fill="black"/>
<path d="M168.32 199.88H157.8V210.4H168.32V199.88Z" fill="black"/>
<path d="M178.84 199.88H168.32V210.4H178.84V199.88Z" fill="black"/>
<path d="M220.92 199.88H210.4V210.4H220.92V199.88Z" fill="black"/>
<path d="M231.44 199.88H220.92V210.4H231.44V199.88Z" fill="black"/>
<path d="M241.96 199.88H231.44V210.4H241.96V199.88Z" fill="black"/>
<path d="M252.48 199.88H241.96V210.4H252.48V199.88Z" fill="black"/>
<path d="M10.52 210.4H0V220.92H10.52V210.4Z" fill="black"/>
<path d="M31.56 210.4H21.04V220.92H31.56V210.4Z" fill="black"/>
<path d="M42.08 210.4H31.56V220.92H42.08V210.4Z" fill="black"/>
<path d="M52.6 210.4H42.08V220.92H52.6V210.4Z" fill="black"/>
<path d="M73.64 210.4H63.12V220.92H73.64V210.4Z" fill="black"/>
<path d="M94.68 210.4H84.16V220.92H94.68V210.4Z" fill="black"/>
<path d="M115.72 210.4H105.2V220.92H115.72V210.4Z" fill="black"/>
<path d="M126.24 210.4H115.72V220.92H126.24V210.4Z" fill="black"/>
<path d="M157.8 210.4H147.28V220.92H157.8V210.4Z" fill="black"/>
<path d="M178.84 210.4H168.32V220.92H178.84V210.4Z" fill="black"/>
<path d="M189.36 210.4H178.84V220.92H189.36V210.4Z" fill="black"/>
<path d="M199.88 210.4H189.36V220.92H199.88V210.4Z" fill="black"/>
<path d="M210.4 210.4H199.88V220.92H210.4V210.4Z" fill="black"/>
<path d="M220.92 210.4H210.4V220.92H220.92V210.4Z" fill="black"/>
<path d="M241.96 210.4H231.44V220.92H241.96V210.4Z" fill="black"/>
<path d="M263 210.4H252.48V220.92H263V210.4Z" fill="black"/>
<path d="M10.52 220.92H0V231.44H10.52V220.92Z" fill="black"/>
<path d="M31.56 220.92H21.04V231.44H31.56V220.92Z" fill="black"/>
<path d="M42.08 220.92H31.56V231.44H42.08V220.92Z" fill="black"/>
<path d="M52.6 220.92H42.08V231.44H52.6V220.92Z" fill="black"/>
<path d="M73.64 220.92H63.12V231.44H73.64V220.92Z" fill="black"/>
<path d="M136.76 220.92H126.24V231.44H136.76V220.92Z" fill="black"/>
<path d="M147.28 220.92H136.76V231.44H147.28V220.92Z" fill="black"/>
<path d="M199.88 220.92H189.36V231.44H199.88V220.92Z" fill="black"/>
<path d="M220.92 220.92H210.4V231.44H220.92V220.92Z" fill="black"/>
<path d="M241.96 220.92H231.44V231.44H241.96V220.92Z" fill="black"/>
<path d="M252.48 220.92H241.96V231.44H252.48V220.92Z" fill="black"/>
<path d="M10.52 231.44H0V241.96H10.52V231.44Z" fill="black"/>
<path d="M31.56 231.44H21.04V241.96H31.56V231.44Z" fill="black"/>
<path d="M42.08 231.44H31.56V241.96H42.08V231.44Z" fill="black"/>
<path d="M52.6 231.44H42.08V241.96H52.6V231.44Z" fill="black"/>
<path d="M73.64 231.44H63.12V241.96H73.64V231.44Z" fill="black"/>
<path d="M115.72 231.44H105.2V241.96H115.72V231.44Z" fill="black"/>
<path d="M199.88 231.44H189.36V241.96H199.88V231.44Z" fill="black"/>
<path d="M10.52 241.96H0V252.48H10.52V241.96Z" fill="black"/>
<path d="M73.64 241.96H63.12V252.48H73.64V241.96Z" fill="black"/>
<path d="M94.68 241.96H84.16V252.48H94.68V241.96Z" fill="black"/>
<path d="M105.2 241.96H94.68V252.48H105.2V241.96Z" fill="black"/>
<path d="M115.72 241.96H105.2V252.48H115.72V241.96Z" fill="black"/>
<path d="M126.24 241.96H115.72V252.48H126.24V241.96Z" fill="black"/>
<path d="M136.76 241.96H126.24V252.48H136.76V241.96Z" fill="black"/>
<path d="M147.28 241.96H136.76V252.48H147.28V241.96Z" fill="black"/>
<path d="M157.8 241.96H147.28V252.48H157.8V241.96Z" fill="black"/>
<path d="M189.36 241.96H178.84V252.48H189.36V241.96Z" fill="black"/>
<path d="M199.88 241.96H189.36V252.48H199.88V241.96Z" fill="black"/>
<path d="M210.4 241.96H199.88V252.48H210.4V241.96Z" fill="black"/>
<path d="M220.92 241.96H210.4V252.48H220.92V241.96Z" fill="black"/>
<path d="M231.44 241.96H220.92V252.48H231.44V241.96Z" fill="black"/>
<path d="M252.48 241.96H241.96V252.48H252.48V241.96Z" fill="black"/>
<path d="M263 241.96H252.48V252.48H263V241.96Z" fill="black"/>
<path d="M10.52 252.48H0V263H10.52V252.48Z" fill="black"/>
<path d="M21.04 252.48H10.52V263H21.04V252.48Z" fill="black"/>
<path d="M31.56 252.48H21.04V263H31.56V252.48Z" fill="black"/>
<path d="M42.08 252.48H31.56V263H42.08V252.48Z" fill="black"/>
<path d="M52.6 252.48H42.08V263H52.6V252.48Z" fill="black"/>
<path d="M63.12 252.48H52.6V263H63.12L63.12 252.48Z" fill="black"/>
<path d="M73.64 252.48H63.12L63.12 263H73.64V252.48Z" fill="black"/>
<path d="M105.2 252.48H94.68V263H105.2V252.48Z" fill="black"/>
<path d="M115.72 252.48H105.2V263H115.72V252.48Z" fill="black"/>
<path d="M126.24 252.48H115.72V263H126.24V252.48Z" fill="black"/>
<path d="M147.28 252.48H136.76V263H147.28V252.48Z" fill="black"/>
<path d="M157.8 252.48H147.28V263H157.8V252.48Z" fill="black"/>
<path d="M178.84 252.48H168.32V263H178.84V252.48Z" fill="black"/>
<path d="M199.88 252.48H189.36V263H199.88V252.48Z" fill="black"/>
<path d="M210.4 252.48H199.88V263H210.4V252.48Z" fill="black"/>
<path d="M241.96 252.48H231.44V263H241.96V252.48Z" fill="black"/>
<path d="M263 252.48H252.48V263H263V252.48Z" fill="black"/>
</svg>
