<svg width="36" height="36" viewBox="0 0 36 36" fill="none" xmlns="http://www.w3.org/2000/svg">
<path fill-rule="evenodd" clip-rule="evenodd" d="M20.0366 9.67584C19.9611 8.94633 19.8825 8.18944 19.689 7.43416C19.1621 5.62729 17.7024 4.50001 16.1374 4.50001C15.2645 4.49679 14.1603 5.03467 13.5343 5.57898L8.34529 9.92545H5.62889C3.62974 9.92545 2.02224 11.4666 1.71867 13.6906C1.46072 15.826 1.3978 19.8568 1.71867 22.2064C1.99708 24.5559 3.53222 26.0745 5.62889 26.0745H8.34529L13.6349 30.4854C14.1776 30.9573 15.1355 31.4984 16.0163 31.4984C16.0729 31.5 16.1233 31.5 16.1736 31.5C17.7685 31.5 19.1731 30.3308 19.7 28.5288C19.8985 27.767 19.9681 27.0529 20.0354 26.3628V26.3628L20.0366 26.3499L20.1074 25.6623C20.3779 23.4319 20.3779 12.5536 20.1074 10.3393L20.0366 9.67584ZM26.1102 9.74219C25.6776 9.10447 24.8204 8.94504 24.1928 9.3879C23.5715 9.83398 23.4174 10.7133 23.8499 11.3494C25.0532 13.1224 25.7154 15.4833 25.7154 18.0003C25.7154 20.5158 25.0532 22.8782 23.8499 24.6513C23.4174 25.2874 23.5715 26.1667 24.1944 26.6127C24.4272 26.777 24.6993 26.864 24.9792 26.864C25.4307 26.864 25.8522 26.6369 26.1102 26.2585C27.6296 24.02 28.4679 21.0875 28.4679 18.0003C28.4679 14.9132 27.6296 11.9806 26.1102 9.74219ZM28.9364 4.83093C29.5624 4.38646 30.4227 4.54911 30.8521 5.18522C33.2052 8.64919 34.5013 13.2018 34.5013 17.9992C34.5013 22.7998 33.2052 27.3508 30.8521 30.8147C30.5958 31.1932 30.1727 31.4203 29.7212 31.4203C29.4413 31.4203 29.1707 31.3333 28.9379 31.169C28.3151 30.7229 28.1609 29.8453 28.5919 29.2076C30.6272 26.209 31.7487 22.2281 31.7487 17.9992C31.7487 13.7719 30.6272 9.79097 28.5919 6.7924C28.1609 6.15629 28.3151 5.27701 28.9364 4.83093Z" fill="white"/>
</svg>
