<svg width="362" height="198" viewBox="0 0 362 198" fill="none" xmlns="http://www.w3.org/2000/svg">
<path d="M293.426 11.5705C218.375 -25.3277 186.577 59.9609 113.293 37.2759C8.534 4.8459 2.51976 161.835 49.6884 187.3H318.865C318.865 187.3 368.477 48.4695 293.426 11.5705Z" fill="#FFD4D1"/>
<path opacity="0.39" d="M209.863 64.0069L195.577 59.5519C195.544 59.5413 195.509 59.5374 195.475 59.5403C195.44 59.5433 195.406 59.5531 195.376 59.5691C195.345 59.5852 195.318 59.6071 195.296 59.6338C195.274 59.6604 195.257 59.6912 195.247 59.7243L195.232 59.7697C195.221 59.8027 195.218 59.8374 195.221 59.8719C195.224 59.9064 195.233 59.9399 195.249 59.9706C195.266 60.0013 195.287 60.0285 195.314 60.0506C195.341 60.0728 195.371 60.0895 195.404 60.0997L209.69 64.5547C209.723 64.5653 209.758 64.5693 209.792 64.5664C209.827 64.5635 209.86 64.5538 209.891 64.5378C209.922 64.5218 209.949 64.4999 209.971 64.4734C209.993 64.4468 210.01 64.4162 210.02 64.3831L210.034 64.3369C210.045 64.304 210.049 64.2693 210.046 64.2347C210.043 64.2002 210.034 64.1666 210.018 64.1359C210.002 64.1052 209.98 64.078 209.953 64.0558C209.926 64.0337 209.896 64.017 209.863 64.0069Z" fill="#FAFBF5"/>
<path d="M232.906 136.154C230.573 128.679 215.829 79.6817 213.771 69.7751L199.734 76.173C200.559 84.6631 204.024 141.273 204.072 141.683H204.094C204.496 151.392 212.36 159.251 222.212 159.473C232.468 159.704 233.934 153.575 234.165 143.32C234.222 140.803 240.805 136.395 239.947 134.186C239.943 134.176 232.909 136.165 232.906 136.154Z" fill="#FBC5A9"/>
<path d="M183.494 71.5274C182.184 69.059 181.446 66.2754 180.9 63.534C180.039 59.2027 179.494 54.8145 178.514 50.5047C177.606 46.5068 176.294 42.6218 174.389 38.9836C171.419 33.3092 167.195 28.3081 162.06 24.4941C161.497 23.9166 161.152 23.5783 161.185 23.5866C161.578 23.731 159.443 22.241 158.441 21.9176C157.785 21.5511 157.109 21.219 156.418 20.9227C153.86 19.8312 151.064 19.2042 148.28 19.2322C146.458 19.245 144.653 19.5778 142.946 20.2156C141.114 20.4623 139.318 20.927 137.596 21.6C132.111 23.7747 128.393 28.2718 125.634 33.3315C122.836 38.4564 120.825 44.0309 117.309 48.745C117.18 48.9191 117.044 49.089 116.909 49.2606C115.526 50.3852 114.044 51.3831 112.481 52.2422C109.531 53.8608 106.357 54.8079 103.076 55.5001C99.7764 56.1964 96.4459 56.7549 93.2771 57.9405C87.7223 60.0178 82.5884 63.746 79.2108 68.658C79.1955 68.6809 79.1896 68.7089 79.1945 68.7361C79.1993 68.7632 79.2145 68.7874 79.2369 68.8036C79.2592 68.8197 79.287 68.8266 79.3143 68.8227C79.3416 68.8187 79.3663 68.8044 79.3832 68.7826C81.5505 66.1335 84.0032 63.7765 86.8454 61.8526C89.4009 60.1138 92.2012 58.7653 95.154 57.8514C98.4927 56.8267 101.968 56.3565 105.351 55.5042C108.416 54.732 111.354 53.5696 114.031 51.8742C114.57 51.5335 115.09 51.1713 115.598 50.7968C114.29 52.2141 112.808 53.4689 111.117 54.4078C108.403 55.9159 105.342 56.5025 102.299 56.948C99.2889 57.3885 96.2454 57.7144 93.339 58.659C90.8019 59.4974 88.4283 60.7666 86.3223 62.4111C82.1338 65.655 74.2773 75.6466 72.8327 80.7501C71.8246 84.31 68.9709 111.011 91.2674 117.827L181.831 101.979C181.838 101.939 181.819 101.88 181.856 101.862C184.007 100.808 195.901 103.49 194.726 85.0987C194.446 80.6618 184.801 72.5108 183.494 71.5274ZM180.954 68.6696C180.304 67.3347 180.1 65.8374 179.944 64.3796C179.779 62.7956 179.623 61.2149 179.367 59.6408C178.83 56.3268 177.996 53.068 176.959 49.8769C175.018 43.9022 172.447 37.9622 169.086 32.6426C167.798 30.6049 165.278 27.8428 163.429 25.9073C165.284 27.5034 167.007 29.2453 168.584 31.1164C171.057 34.052 173.141 37.2947 174.784 40.7639C176.623 44.6629 177.754 48.8085 178.605 53.0243C179.448 57.2169 179.929 61.5028 180.982 65.6468C181.457 67.5212 182.08 69.3915 182.966 71.1099C182.147 70.4343 181.433 69.6579 180.954 68.6729V68.6696Z" fill="#62200D"/>
<path d="M135.24 77.1985C126.507 72.1561 115.237 75.1764 110.194 83.9091L75.3989 144.176C70.3573 152.91 73.3768 164.18 82.1103 169.222C90.8438 174.264 102.114 171.244 107.156 162.511L141.951 102.244C146.993 93.5112 143.973 82.2401 135.24 77.1985ZM234.675 128.618L184.453 80.4457C177.174 73.4654 165.509 73.7087 158.529 80.9869C151.548 88.2642 151.792 99.9297 159.069 106.91L209.292 155.081C216.57 162.061 228.235 161.818 235.216 154.541C242.195 147.267 241.952 135.601 234.675 128.618ZM143.375 57.4562L143.225 73.571C156.233 81.8556 165.5 73.7145 165.5 73.7145L162.837 60.3314L143.375 57.4562Z" fill="#FBC5A9"/>
<path d="M145.037 60.4723C152.986 71.8714 165.497 73.7153 165.497 73.7153L163.477 61.5135L145.037 60.4723Z" fill="#F7A18A"/>
<path d="M47.9774 124.658L57.6827 126.519L67.3402 114.532L66.2735 98.7526C55.433 95.6101 43.7163 120.921 47.9774 124.658Z" fill="#FF4D00"/>
<path d="M232.423 100.127C226.667 99.9158 225.584 99.4719 219.751 97.8393C218.133 97.3863 216.56 96.8946 215.057 96.3856C206.89 93.6218 200.785 90.3705 200.785 90.3705L201.133 95.5622C201.063 95.4913 196.775 91.1072 191.685 86.5029C186.114 81.4605 179.584 76.15 176.574 75.9305L176.904 91.2244L177.326 110.777L186.859 135.831C186.859 135.831 201.235 151.073 204.987 155.706C206.838 157.99 209.948 159.511 213.701 160.468C217.558 161.448 222.094 161.833 226.639 161.833C235.605 161.833 244.124 151.373 241.882 139.866C239.64 128.359 232.423 100.127 232.423 100.127Z" fill="#FF4D00"/>
<path d="M176.902 91.2242L177.323 110.777L186.856 135.83C186.856 135.83 201.232 151.073 204.985 155.705C206.836 157.99 209.945 159.51 213.698 160.467C207.707 149.169 202.187 121.633 198.321 110.407C195.045 100.889 183.075 94.2149 176.902 91.2242Z" fill="#FF4D00"/>
<path d="M108.467 85.0187C103.747 93.4865 93.9868 108.232 90.1011 112.216C86.5041 115.906 87.0907 120.364 87.1979 121.005C87.1426 120.737 86.8927 119.816 85.9159 118.742C85.373 118.147 84.6074 117.505 83.5234 116.898C83.4409 116.854 83.3584 116.803 83.2759 116.746C79.6401 114.397 69.6237 102.104 66.2734 98.7541C66.2734 98.7541 66.0523 99.2994 65.6522 100.233C65.6324 100.279 65.6126 100.327 65.5911 100.374C63.1178 106.1 54.3175 124.657 47.9765 124.657C47.9765 124.657 50.9647 131.632 54.0535 136.613C56.7059 140.89 70.0742 164.498 81.3058 172.03C83.1538 173.267 84.9424 174.072 86.6171 174.283C98.4724 175.777 106.841 171.195 108.037 168.508C109.009 166.319 114.416 152.055 118.886 143.973C119.908 142.125 120.883 140.601 121.743 139.618C126.363 134.338 127.615 74.8241 127.615 74.8241C118.993 74.2598 113.186 76.5508 108.467 85.0187Z" fill="#FF4D00"/>
<path d="M83.5261 116.903C83.4436 116.858 83.3611 116.807 83.2786 116.75C79.6428 114.401 69.6265 102.109 66.2762 98.7583C66.2762 98.7583 66.0551 99.3037 65.6549 100.238C65.6351 100.283 65.6153 100.331 65.5939 100.378C66.5245 107.166 68.4476 114.164 74.9931 120.343C78.9432 124.069 82.937 127.408 82.937 127.408C85.2182 122.645 86.9796 120.344 86.9796 120.344C86.9796 120.344 86.751 120.006 85.9211 118.75C85.3733 118.147 84.6069 117.504 83.5261 116.903Z" fill="#FF4D00"/>
<path d="M192 109.917C190.522 103.595 185.895 97.0951 181.176 87.1151C179.446 83.4699 177.91 79.7363 176.572 75.9298L164.779 73.5703H143.223L127.614 74.8185L119.906 115.071C119.906 115.071 119.882 115.84 119.838 117.202C119.636 123.53 119.548 150.45 119.185 169.532C119.033 177.557 118.831 184.196 118.553 187.341H188.164C188.164 187.341 188 176.38 188.216 164.499C188.386 155.185 188.793 145.305 189.701 139.694C189.813 138.993 189.923 138.315 190.031 137.659C190.031 137.659 190.031 137.651 190.031 137.649C190.383 135.491 190.704 133.554 190.988 131.751C190.988 131.742 190.988 131.734 190.993 131.724C191.695 127.269 192.178 123.625 192.382 119.439C192.464 117.69 192.503 115.848 192.486 113.815C192.469 112.502 192.306 111.194 192 109.917Z" fill="#FF4D00"/>
<path d="M143.225 73.571C143.225 73.571 141.845 85.6028 156.948 92.1723C156.948 92.1723 166.382 88.2626 165.496 73.7145L143.225 73.571Z" fill="#FBC5A9"/>
<path d="M156.885 99.1099L156.791 99.062C151.996 96.6274 148.175 93.9157 145.434 91.0018C143.164 88.5878 141.613 86.0154 140.823 83.3565C139.135 77.673 141.447 73.5703 141.547 73.3987L142.143 73.7427C142.121 73.7832 139.88 77.7852 141.489 83.1774C142.251 85.73 143.75 88.2099 145.944 90.5397C148.611 93.3712 152.331 96.0145 156.999 98.3971C157.617 98.2906 160.967 97.6026 164.008 94.7448C165.97 92.8993 167.426 90.5183 168.332 87.6704C169.472 84.0891 169.745 79.7504 169.142 74.7806L169.826 74.6981C170.442 79.7809 170.156 84.2252 168.98 87.9064C168.032 90.8706 166.505 93.3514 164.451 95.2744C160.94 98.5571 157.146 99.076 156.986 99.0967L156.885 99.1099Z" fill="#878CFF"/>
<path d="M140.83 48.575C141.211 49.2845 141.501 49.7531 141.6 49.9041C141.379 49.4416 141.121 48.9972 140.83 48.575Z" fill="#FBC5A9"/>
<path d="M140.83 48.575C141.121 48.9972 141.379 49.4416 141.6 49.9041C141.501 49.7531 141.212 49.2845 140.83 48.575C139.865 47.1774 138.147 45.5819 136.6 48.7449C134.372 53.3064 138.13 55.222 138.13 55.222C138.13 55.222 155.62 71.0002 164.514 65.0676C177.781 56.2178 160.32 23.7276 160.32 23.7276C129.618 23.5436 137.913 43.1407 140.83 48.575Z" fill="#FBC5A9"/>
<path opacity="0.5" d="M153.908 51.4272C151.845 51.4338 150.174 52.2167 150.176 53.1762C150.179 54.1357 151.855 54.9087 153.919 54.9021C155.982 54.8955 157.653 54.1126 157.65 53.1531C157.648 52.1936 155.97 51.4206 153.908 51.4272Z" fill="#F3888A"/>
<path d="M132.36 47.7271C129.789 52.9526 135.578 57.8012 139.944 56.0117C139.944 56.0117 142.724 52.1342 139.544 45.1217C139.544 45.1209 134.932 42.4999 132.36 47.7271Z" fill="#FBC5A9"/>
<path d="M135.911 46.4903C135.865 46.4755 135.841 46.5398 135.878 46.5654C137.75 47.8648 138.403 50.0181 138.715 52.168C138.275 51.2679 137.535 50.6624 136.348 51.1598C136.287 51.1862 136.319 51.2819 136.38 51.2828C137.264 51.2927 137.841 51.5765 138.258 52.3808C138.554 52.9501 138.693 53.6184 138.857 54.2338C138.912 54.4392 139.27 54.4161 139.245 54.1884C139.245 54.1719 139.245 54.1546 139.239 54.1373C139.882 51.5253 138.672 47.3921 135.911 46.4903Z" fill="#F7A18A"/>
<path d="M161.76 27.7726C161.656 27.2586 161.524 26.7488 161.375 26.2464C161.307 26.006 161.221 25.7712 161.117 25.5443C160.892 24.762 160.62 23.9942 160.302 23.245C131.15 21.3104 136.819 43.3594 139.14 44.86C141.352 46.2931 141.067 51.4237 141.067 51.4237C141.067 51.4237 159.529 44.5507 161.577 32.1666C161.56 32.7499 161.527 33.3323 161.464 33.9131C161.41 34.4081 161.338 34.9031 161.254 35.3981C161.171 35.8931 161.038 36.3724 160.971 36.8617C160.954 36.9871 161.129 37.0135 161.176 36.9095C161.589 36.0103 161.781 34.9295 161.928 33.9585C162.083 32.9211 162.142 31.8717 162.104 30.8235C162.073 29.7988 161.958 28.7784 161.76 27.7726ZM158.713 22.5413C158.729 22.5792 158.788 22.552 158.771 22.5141C158.746 22.4573 158.708 22.407 158.66 22.3672C158.613 22.3273 158.557 22.2988 158.496 22.2839C158.492 22.2821 158.487 22.2814 158.482 22.2818C158.477 22.2822 158.472 22.2837 158.468 22.2863C158.464 22.2888 158.46 22.2923 158.458 22.2965C158.455 22.3007 158.453 22.3054 158.453 22.3103C158.451 22.3916 158.479 22.4708 158.531 22.5334C158.583 22.596 158.655 22.6377 158.736 22.651C158.744 22.6517 158.752 22.6491 158.759 22.6437C158.765 22.6383 158.77 22.6305 158.77 22.6221C158.771 22.6136 158.768 22.6052 158.763 22.5986C158.758 22.592 158.75 22.5877 158.741 22.5867C158.688 22.5764 158.639 22.5502 158.6 22.5115C158.562 22.4728 158.536 22.4233 158.526 22.3697C158.608 22.4012 158.674 22.4625 158.713 22.5413Z" fill="#62200D"/>
<path d="M131.605 74.3895C131.247 74.3895 130.887 74.3724 130.526 74.3383C127.623 74.0595 124.944 72.6568 123.061 70.4296C121.179 68.2024 120.241 65.3274 120.45 62.4186C120.658 59.5098 121.996 56.7978 124.177 54.8619C126.358 52.926 129.209 51.9196 132.122 52.0577C135.035 52.1957 137.779 53.4674 139.767 55.6009C141.755 57.7344 142.83 60.5608 142.763 63.4763C142.695 66.3917 141.49 69.1652 139.405 71.2043C137.32 73.2434 134.521 74.3865 131.605 74.3895ZM131.565 52.6342C128.807 52.6373 126.159 53.7188 124.188 55.6477C122.216 57.5766 121.077 60.2 121.014 62.9574C120.951 65.7148 121.968 68.3877 123.849 70.4051C125.73 72.4224 128.325 73.6244 131.08 73.7541C133.835 73.8838 136.532 72.931 138.594 71.0992C140.656 69.2675 141.92 66.702 142.116 63.9509C142.312 61.1997 141.424 58.4809 139.643 56.3753C137.861 54.2697 135.327 52.9442 132.581 52.682C132.242 52.6507 131.903 52.635 131.565 52.635V52.6342Z" fill="#FCB614"/>
<path d="M163.085 56.5323C163.01 56.5314 162.937 56.5028 162.881 56.452C162.825 56.4012 162.79 56.3316 162.783 56.2565C162.775 56.1815 162.795 56.1062 162.839 56.0449C162.883 55.9836 162.948 55.9407 163.021 55.9243C163.031 55.9243 164.026 55.6999 165.77 54.7247C166.017 54.5861 166.148 54.4244 166.171 54.2297C166.26 53.4526 164.813 52.1317 163.949 51.3422C163.627 51.0631 163.321 50.7656 163.034 50.4512C162.169 49.4084 162.097 47.7105 162.093 47.6388C162.093 47.5591 162.124 47.4824 162.179 47.4249C162.234 47.3675 162.31 47.3337 162.39 47.3307C162.469 47.3277 162.547 47.3557 162.606 47.4089C162.666 47.462 162.702 47.5362 162.708 47.6157C162.708 47.6437 162.78 49.1832 163.507 50.0585C163.777 50.3506 164.063 50.6274 164.364 50.8876C165.497 51.9222 166.908 53.2092 166.782 54.299C166.736 54.6991 166.496 55.0225 166.07 55.2609C164.233 56.2881 163.192 56.5158 163.149 56.5249C163.128 56.5293 163.107 56.5318 163.085 56.5323Z" fill="#F7A18A"/>
<path d="M157.459 48.4564C157.086 48.5389 156.869 48.9968 156.974 49.4802C157.08 49.9637 157.469 50.2904 157.841 50.2095C158.213 50.1287 158.432 49.6692 158.326 49.1857C158.221 48.7023 157.832 48.3756 157.459 48.4564ZM164.468 47.4483C164.086 47.4747 163.808 47.8962 163.838 48.3904C163.869 48.8846 164.208 49.2641 164.589 49.2377C164.97 49.2113 165.249 48.7905 165.218 48.2964C165.188 47.8022 164.851 47.4227 164.468 47.4483ZM155.558 46.8237C155.436 46.824 155.317 46.7881 155.216 46.7206C155.114 46.6531 155.036 46.557 154.989 46.4445C154.942 46.332 154.93 46.2082 154.954 46.0889C154.978 45.9696 155.037 45.8601 155.124 45.7743C155.193 45.705 156.852 44.0921 159.042 44.9221C159.195 44.9799 159.319 45.0961 159.386 45.2453C159.454 45.3944 159.459 45.5642 159.401 45.7174C159.344 45.8706 159.227 45.9945 159.078 46.062C158.929 46.1294 158.759 46.1349 158.606 46.0771C157.167 45.531 156.035 46.6076 155.988 46.6546C155.872 46.7647 155.718 46.8254 155.558 46.8237ZM162.772 46.0194C162.648 46.0193 162.527 45.982 162.425 45.9122C162.322 45.8423 162.244 45.7433 162.198 45.628C162.153 45.5127 162.144 45.3865 162.172 45.2659C162.2 45.1453 162.263 45.0358 162.354 44.9518C162.974 44.3743 164.574 43.5947 166.185 44.7711C166.306 44.871 166.384 45.0133 166.403 45.1689C166.423 45.3246 166.382 45.4817 166.289 45.6083C166.196 45.7348 166.059 45.8211 165.905 45.8495C165.75 45.8779 165.591 45.8463 165.459 45.7611C164.294 44.9097 163.298 45.7537 163.188 45.8527C163.076 45.9593 162.927 46.0189 162.772 46.0194Z" fill="#5B1E13"/>
<path d="M160.613 24.3894C159.352 24.4331 162.112 31.6815 162.112 31.6815C162.112 31.6815 166.36 38.2032 167.402 41.1163C168.417 43.9534 168.496 35.3478 166.412 31.1073C164.328 26.8668 161.875 24.3448 160.613 24.3894Z" fill="#62200D"/>
<path d="M147.952 48.5141L147.704 47.7716C151.236 46.5828 154.152 44.9996 156.367 43.0691C158.133 41.5313 159.465 39.7691 160.327 37.8312C161.795 34.5312 161.382 31.8161 161.378 31.7897L162.155 31.6626C162.174 31.7806 162.611 34.5972 161.067 38.1059C160.164 40.1568 158.767 42.0189 156.913 43.6392C154.611 45.6447 151.598 47.2873 147.952 48.5141Z" fill="#62200D"/>
<path d="M162.782 59.0245C162.634 59.0245 162.403 58.876 161.932 58.8686C161.461 58.8612 159.892 59.0517 159.892 59.0517C159.892 59.0517 160.437 62.0754 162.772 62.0754C165.087 62.0754 165.653 59.0517 165.653 59.0517C165.653 59.0517 164.387 58.8645 163.861 58.8686C163.336 58.8727 162.93 59.0204 162.782 59.0245Z" fill="#ED2B47"/>
<path d="M159.937 59.1064C160.888 60.4701 161.932 60.9148 162.758 60.9148C163.584 60.9148 164.744 60.4198 165.609 59.1064C165.609 59.1064 164.094 59.6014 162.758 59.6245C161.42 59.5973 159.937 59.1064 159.937 59.1064Z" fill="white"/>
<path d="M137.873 13.365C132.195 10.852 125.925 12.5837 123.867 17.2326C121.809 21.8815 124.745 27.687 130.422 30.2C136.1 32.7129 142.372 30.9821 144.429 26.3323C146.487 21.6826 143.552 15.8804 137.873 13.365Z" fill="#62200D"/>
<path d="M135.323 22.1215C133.374 22.1207 131.438 21.8011 129.593 21.1752C126.089 19.9921 123.99 18.0847 123.969 18.0658L124.162 17.857C124.182 17.876 126.245 19.7471 129.696 20.9096C131.704 21.5887 133.818 21.8992 135.936 21.8261C138.583 21.7337 141.265 21.0407 143.908 19.7636L144.032 20.0202C141.35 21.3138 138.626 22.0159 135.938 22.1083C135.733 22.1176 135.528 22.122 135.323 22.1215ZM133.382 25.7894C132.545 25.7886 131.708 25.7399 130.876 25.6434C127.133 25.2144 124.441 23.9629 124.417 23.9505L124.538 23.6931C124.564 23.7055 127.219 24.9397 130.918 25.3621C132.995 25.6139 135.099 25.5385 137.154 25.1385C139.589 24.6549 141.887 23.6409 143.886 22.1685L144.051 22.397C142.018 23.8962 139.68 24.9288 137.203 25.4215C135.945 25.6703 134.665 25.7936 133.382 25.7894Z" fill="#BE7649"/>
<path d="M139.765 31.2625C137.746 32.0752 134.476 32.7706 130.36 31.4696C126.659 30.2981 123.984 27.4015 123.204 23.7212C122.565 20.7042 123.385 17.8406 125.399 16.0611L125.197 15.8325C123.1 17.6855 122.243 20.658 122.906 23.7847C123.284 25.5536 124.11 27.1957 125.305 28.554C126.636 30.0568 128.353 31.1664 130.27 31.7625C131.763 32.2443 133.321 32.4931 134.89 32.5C136.604 32.5054 138.304 32.1802 139.896 31.5422C142.14 30.6347 143.37 29.4319 143.421 29.3815L143.206 29.1646C143.191 29.1745 141.957 30.3806 139.765 31.2625Z" fill="#62200D"/>
<path d="M165.504 72.5077L165.488 71.86C167.894 71.7951 170.207 70.9098 172.041 69.3509C173.875 67.7921 175.122 65.6532 175.575 63.2888C176.027 60.9243 175.658 58.4762 174.529 56.3502C173.4 54.2241 171.578 52.5477 169.365 51.5988L169.62 51.0032C171.972 52.0069 173.91 53.7852 175.112 56.0426C176.314 58.3001 176.707 60.9007 176.226 63.4126C175.746 65.9245 174.421 68.1964 172.47 69.8509C170.52 71.5054 168.063 72.4429 165.506 72.5077H165.504Z" fill="#FCB614"/>
<path d="M45.8193 98.5792L54.1717 120.336C58.3247 115.34 63.5404 107.8 66.2719 98.8391L57.7175 84.5764L45.8193 98.5792Z" fill="#FBC5A9"/>
<path d="M51.3067 112.879L54.1645 120.335C58.3217 115.343 63.5348 107.803 66.2697 98.8417C66.273 98.8417 60.371 109.3 51.3067 112.879Z" fill="#F7A18A"/>
<path d="M46.2044 77.6498C42.8368 77.3371 41.5151 73.2963 41.1183 71.2354C40.7214 69.1746 39.1589 68.442 37.4008 70.4979C35.6427 72.5538 39.8923 79.544 39.8923 79.544L33.3674 80.897C33.3674 80.897 27.5751 68.7365 25.2304 69.3676C22.8858 69.9988 24.8443 74.2277 24.8443 74.2277C21.2061 69.1243 19.5915 69.6275 18.472 70.4327C17.3525 71.2379 23.4888 81.086 23.4888 81.086C23.4888 81.086 17.6882 79.5671 14.9195 80.5514C12.1508 81.5356 10.618 83.2846 15.0895 84.353C19.561 85.4213 26.8986 89.369 26.8986 89.369C26.8986 89.369 28.3514 91.9875 31.1242 94.4625C33.897 96.9375 40.9549 94.7925 42.5546 95.1341C44.1543 95.4756 46.0798 98.7525 46.0798 98.7525L57.7198 84.5749C53.8975 78.6654 49.5696 77.9625 46.2044 77.6498Z" fill="#FBC5A9"/>
<path d="M29.9471 87.69C29.9067 87.6413 29.8003 87.5134 24.5747 74.3349L25.1126 74.122C27.1504 79.2609 30.2458 87.0275 30.419 87.3592C30.4116 87.3454 30.4027 87.3324 30.3926 87.3204L29.9471 87.69Z" fill="#F1A97F"/>
<path d="M33.0911 81.0037L33.6324 80.7976L35.7412 86.3375L35.2 86.5435L33.0911 81.0037Z" fill="#F1A97F"/>
<path d="M48.6934 85.7927C47.1259 83.9777 45.2226 83.1922 43.0405 83.4554C42.0319 83.5808 41.0585 83.9067 40.1778 84.4141L39.8667 83.9257C40.8114 83.373 41.8587 83.0185 42.9448 82.8837C44.5948 82.6799 47.0005 82.9538 49.1274 85.414L48.6934 85.7927Z" fill="#F1A97F"/>
<path d="M14.9173 80.5548C12.1494 81.5373 10.6158 83.288 15.0873 84.3564C19.5588 85.4247 26.8963 89.3724 26.8963 89.3724L23.4866 81.0894C23.4866 81.0894 17.686 79.5705 14.9173 80.5548Z" fill="#F7A18A"/>
<path d="M118.515 111.837C118.527 111.804 118.539 111.771 118.551 111.739L118.515 111.837ZM117.755 114.052C118.112 112.996 118.373 112.237 118.518 111.837C118.241 112.584 117.987 113.323 117.755 114.052ZM117.755 114.052C114.323 124.2 101.969 161.572 97.3546 165.549C94.0983 168.354 86.6296 170.66 81.3042 172.029C83.1522 173.267 84.9408 174.071 86.6156 174.282C98.4708 175.776 106.84 171.194 108.035 168.507C109.008 166.318 114.414 152.054 118.885 143.972L119.528 143.219C119.528 143.219 112.245 131.422 117.755 114.052ZM119.186 169.532C119.033 177.557 118.832 184.196 118.554 187.341H188.165C188.165 187.341 188 176.38 188.216 164.498C155.97 184.773 129.29 174.832 119.186 169.532ZM200.784 90.3704L201.132 95.5622L220.47 121.562L215.058 96.3855C206.893 93.6218 200.784 90.3704 200.784 90.3704Z" fill="#FF4D00"/>
<path d="M219.938 92.5518L221.623 98.3665C221.623 98.3665 229.096 100.698 232.423 100.127C232.423 100.127 228.57 95.9921 219.938 92.5518Z" fill="#FF4D00"/>
<path d="M202.453 53.2578C202.453 53.2578 198.669 52.8453 194.271 49.0652C194.271 49.0652 190.488 49.8827 193.453 54.1802C193.453 54.1802 187.105 52.8602 186.806 55.6115C186.46 58.7919 188.538 59.6491 188.538 59.6491C187.848 61.0071 188.169 63.0572 189.465 64.6107C189.465 64.6107 188.738 68.6309 192.15 69.7686L194.542 69.6324C194.764 71.9862 194.222 75.2886 201.93 77.0657L213.772 69.7768L208.692 56.8391C208.692 56.8391 206.851 53.667 202.453 53.2578Z" fill="#FBC5A9"/>
<path d="M193.059 60.9543C190.872 60.9543 189.022 60.4758 187.642 59.5419C187.566 59.4869 187.514 59.4044 187.498 59.3118C187.481 59.2193 187.502 59.124 187.554 59.0462C187.607 58.9683 187.688 58.9141 187.78 58.895C187.872 58.8759 187.968 58.8934 188.047 58.9437C191.962 61.5928 198.62 59.3315 198.69 59.3084C198.734 59.2928 198.782 59.2863 198.829 59.289C198.876 59.2918 198.923 59.3038 198.965 59.3245C199.008 59.3451 199.046 59.374 199.077 59.4093C199.109 59.4447 199.133 59.486 199.149 59.5307C199.164 59.5755 199.171 59.6228 199.168 59.6701C199.165 59.7174 199.153 59.7637 199.133 59.8063C199.112 59.849 199.083 59.8871 199.048 59.9186C199.012 59.9501 198.971 59.9743 198.926 59.9898C197.62 60.4115 196.275 60.6993 194.91 60.8487C194.296 60.918 193.678 60.9532 193.059 60.9543ZM192.712 65.5437C191.558 65.5515 190.412 65.3491 189.33 64.9464C189.24 64.9125 189.168 64.8445 189.129 64.7572C189.09 64.6699 189.087 64.5706 189.12 64.4811C189.154 64.3916 189.222 64.3193 189.31 64.28C189.397 64.2407 189.496 64.2377 189.586 64.2716C194.112 65.9843 198.713 63.1545 198.758 63.1257C198.839 63.0748 198.937 63.0582 199.03 63.0796C199.124 63.1009 199.205 63.1585 199.256 63.2395C199.306 63.3206 199.323 63.4185 199.302 63.5118C199.28 63.6051 199.223 63.6861 199.142 63.737C199.091 63.7683 197.892 64.5133 196.085 65.0405C194.99 65.3666 193.855 65.536 192.712 65.5437ZM192.778 70.1555C192.553 70.1575 192.329 70.1473 192.105 70.125C192.056 70.122 192.008 70.1091 191.965 70.087C191.921 70.0649 191.882 70.0341 191.85 69.9964C191.819 69.9588 191.795 69.9152 191.781 69.8682C191.767 69.8211 191.763 69.7717 191.768 69.723C191.774 69.6742 191.789 69.6271 191.814 69.5845C191.838 69.5419 191.871 69.5048 191.91 69.4753C191.95 69.4458 191.994 69.4247 192.042 69.4131C192.09 69.4015 192.139 69.3998 192.188 69.4081C192.249 69.4147 196.763 69.8824 200.03 66.1666C200.094 66.0969 200.183 66.055 200.277 66.0498C200.372 66.0447 200.464 66.0768 200.535 66.1392C200.606 66.2016 200.65 66.2893 200.657 66.3836C200.664 66.4779 200.634 66.5712 200.573 66.6435C199.116 68.3004 197.166 69.4449 195.008 69.908C194.276 70.0693 193.528 70.1523 192.778 70.1555Z" fill="#F7A18A"/>
<path d="M201.929 68.1937C201.863 68.1938 201.799 68.1758 201.743 68.1417C199.633 66.8663 198.466 64.5942 198.369 61.5599C198.336 60.2732 198.468 58.9875 198.762 57.7343C195.792 56.84 193.317 54.5432 193.206 54.4418C193.171 54.4096 193.142 54.3705 193.121 54.327C193.101 54.2835 193.089 54.2363 193.087 54.1883C193.085 54.1402 193.093 54.0923 193.11 54.0472C193.126 54.0022 193.152 53.9609 193.185 53.9259C193.218 53.8909 193.258 53.8628 193.302 53.8432C193.345 53.8237 193.393 53.8131 193.441 53.8122C193.489 53.8112 193.537 53.8198 193.582 53.8375C193.626 53.8553 193.667 53.8817 193.701 53.9154C193.727 53.9393 196.348 56.3698 199.291 57.1329L199.651 57.2261L199.546 57.5834C199.21 58.8794 199.057 60.2163 199.093 61.5549C199.187 64.3599 200.204 66.3671 202.117 67.5238C202.184 67.5648 202.236 67.6266 202.265 67.6999C202.294 67.7731 202.298 67.8538 202.277 67.9296C202.256 68.0055 202.21 68.0723 202.148 68.12C202.085 68.1676 202.009 68.1935 201.93 68.1937H201.929Z" fill="#F7A18A"/>
<path d="M180.428 50.8126C179.273 49.684 177.058 47.6256 175.768 47.0382C173.962 46.2173 171.622 45.8733 170.067 47.9655C169.423 48.8317 168.867 49.698 168.511 50.6212C168.006 51.9255 167.904 53.3288 168.528 54.959C169.594 57.7401 171.745 58.2821 173.336 58.1345C173.698 58.1015 174.21 58.0346 174.787 57.9521C176.015 57.7747 177.528 57.524 178.485 57.3614C179.053 57.2657 179.426 57.1964 179.426 57.1964L181.185 51.5625C181.185 51.5625 180.89 51.2622 180.428 50.8126Z" fill="black"/>
<path opacity="0.33" d="M180.427 50.8125L178.398 49.3506L176.579 48.7888C176.638 48.8449 178.596 50.6384 178.517 50.5955C178.438 50.5526 174.958 48.8399 174.958 48.8399L177.509 51.0122L174.258 49.41L177.375 52.1795L172.808 51.2993L176.253 53.4253L172.842 53.2801L175.423 54.511L172.484 54.6958L175.768 56.2633L173.121 56.4762L177.071 57.1436L173.493 57.7483L174.787 57.9504C176.015 57.7731 177.528 57.5223 178.485 57.3597C179.053 57.264 179.426 57.1947 179.426 57.1947L181.185 51.5624C181.185 51.5624 180.889 51.2621 180.427 50.8125Z" fill="white"/>
<path opacity="0.33" d="M175.77 47.039C173.965 46.214 171.624 45.8733 170.069 47.9655C169.427 48.8309 168.87 49.698 168.514 50.6212C169.144 49.4224 170.459 48.6742 171.75 48.3615C173.841 47.8541 175.962 48.9027 177.32 50.7441C178.805 52.8066 178.172 55.1826 178.488 57.3622C179.055 57.2657 179.429 57.1972 179.429 57.1972L181.185 51.5625C181.185 51.5625 177.573 47.8599 175.77 47.039Z" fill="black"/>
<path d="M194.446 58.0982L193.765 60.2795L198.385 61.7208C198.371 61.4832 198.364 61.2472 198.364 61.0162C198.364 60.8133 198.364 60.6136 198.373 60.4197C198.387 60.0353 198.414 59.6723 198.447 59.3472C198.485 58.9735 198.53 58.6468 198.571 58.3886L194.733 57.1899L194.446 58.0982Z" fill="#ED2B47"/>
<path d="M194.447 58.0981L198.444 59.3455C198.482 58.9718 198.527 58.6451 198.568 58.3869L194.73 57.1882L194.447 58.0981Z" fill="#EAEAEA"/>
<path d="M179.565 53.5986C179.404 53.9148 179.298 54.2555 179.25 54.6068C179.163 55.2321 179.09 56.3055 179.415 57.1981C179.415 57.1981 185.177 57.5999 193.762 60.2795L194.245 58.7343L194.727 57.189C186.142 54.5094 181.174 51.5625 181.174 51.5625C180.4 52.1103 179.849 53.0343 179.565 53.5986Z" fill="#E5E5E5"/>
<path opacity="0.5" d="M179.565 53.5987C179.414 53.8994 179.31 54.222 179.259 54.5549C179.267 54.5392 179.273 54.5235 179.281 54.507C179.565 53.9435 180.116 53.022 180.893 52.4709C180.893 52.4709 185.861 55.4186 194.446 58.0982L194.73 57.1907C186.145 54.5111 181.176 51.5642 181.176 51.5642C180.401 52.1104 179.85 53.0344 179.565 53.5987Z" fill="#C4C4C4"/>
<path opacity="0.39" d="M195.249 59.7199L195.235 59.7653C195.225 59.7982 195.221 59.8328 195.224 59.8672C195.226 59.9016 195.236 59.9351 195.252 59.9658C195.268 59.9964 195.29 60.0236 195.316 60.0459C195.342 60.0681 195.373 60.0849 195.406 60.0953L198.361 61.0177C198.361 60.8147 198.361 60.6151 198.37 60.4212L195.577 59.5492C195.511 59.5284 195.44 59.5348 195.378 59.5668C195.316 59.5988 195.27 59.6538 195.249 59.7199Z" fill="#FAFBF5"/>
<path d="M180.044 56.7947C181.776 57.3359 185.005 57.7451 185.005 57.7451C182.895 57.1857 179.684 55.0869 179.684 55.0869C179.514 55.6322 179.87 56.7402 180.044 56.7947Z" fill="white"/>
<g opacity="0.33">
<path d="M172.382 57.0638C170.936 56.7412 169.512 55.5243 169.512 55.5243C169.512 55.5243 169.879 56.412 171.45 57.1595C172.918 57.8582 174.635 57.3979 174.949 57.3641C174.085 57.3533 173.225 57.2527 172.382 57.0638Z" fill="white"/>
<path d="M174.946 57.3641H174.991C174.976 57.3615 174.961 57.3615 174.946 57.3641Z" fill="white"/>
</g>
<path d="M214.289 63.4425L213.705 63.2602L213.677 63.2519L210.866 62.3749L211.311 63.5101L211.806 64.7608L212.073 65.4439L212.386 66.2392L213.328 66.5329C213.704 66.6494 214.11 66.6124 214.458 66.4299C214.806 66.2475 215.068 65.9344 215.185 65.5594L215.221 65.4448L215.226 65.4299C215.226 65.4299 215.226 65.42 215.231 65.4159L215.267 65.3004C215.384 64.9244 215.346 64.5174 215.163 64.169C214.979 63.8207 214.665 63.5593 214.289 63.4425Z" fill="#ED2B47"/>
<path d="M213.705 63.261L213.677 63.2527L210.866 62.3749L211.311 63.5101L213.394 64.161C214.307 64.4448 214.934 65.1453 214.991 65.8564C215.092 65.7341 215.168 65.5942 215.217 65.4439L215.223 65.4291C215.223 65.4291 215.223 65.4192 215.227 65.4151C215.479 64.5744 214.802 63.6174 213.705 63.261Z" fill="#EAEAEA"/>
<path opacity="0.39" d="M213.429 65.269L211.804 64.7616L212.071 65.4447L213.259 65.8151C213.292 65.8255 213.327 65.8292 213.361 65.8262C213.396 65.8231 213.429 65.8133 213.46 65.7973C213.491 65.7813 213.518 65.7594 213.54 65.7328C213.562 65.7063 213.579 65.6757 213.589 65.6427L213.603 65.5973C213.624 65.5307 213.617 65.4587 213.584 65.3972C213.551 65.3356 213.496 65.2895 213.429 65.269Z" fill="#FAFBF5"/>
<path d="M157.65 105.172C157.198 105.172 156.755 105.306 156.379 105.557C156.003 105.808 155.709 106.166 155.536 106.584C155.363 107.002 155.317 107.462 155.406 107.906C155.494 108.349 155.712 108.757 156.032 109.077C156.352 109.397 156.76 109.615 157.203 109.703C157.647 109.792 158.107 109.746 158.525 109.573C158.943 109.4 159.301 109.106 159.552 108.73C159.803 108.354 159.937 107.911 159.937 107.459C159.937 106.852 159.696 106.27 159.267 105.842C158.838 105.413 158.257 105.172 157.65 105.172ZM158.168 118.882C157.716 118.882 157.274 119.017 156.898 119.268C156.522 119.519 156.229 119.876 156.056 120.294C155.882 120.712 155.837 121.172 155.925 121.616C156.014 122.059 156.231 122.467 156.551 122.786C156.871 123.106 157.279 123.324 157.722 123.412C158.166 123.501 158.626 123.455 159.044 123.282C159.461 123.109 159.819 122.816 160.07 122.44C160.321 122.064 160.455 121.622 160.455 121.169C160.455 120.563 160.214 119.981 159.785 119.552C159.357 119.123 158.775 118.882 158.168 118.882Z" fill="white"/>
<path d="M83.8977 186.45C85.5881 185.89 82.9539 178.374 81.4639 175.18C79.8964 171.996 77.5658 169.792 76.0272 170.243C74.4885 170.694 74.2196 173.687 75.6419 176.95C76.7969 179.822 80.865 185.382 83.0743 186.342C75.3696 184.508 67.8668 181.91 60.6772 178.587C57.0555 176.914 53.5632 175.076 50.1997 173.101C51.3341 171.626 52.23 166.876 52.3571 164.502C52.4874 161.622 51.6096 159.192 50.3168 159.02C49.0241 158.847 47.6966 160.987 47.4343 163.854C47.2173 165.877 47.5679 169.789 48.3253 171.977C45.1232 170.02 42.0448 167.941 39.0902 165.739C37.0508 164.214 35.0763 162.634 33.1667 161C34.2186 160.106 35.1632 155.479 35.3546 153.255C35.5411 150.733 34.8695 148.581 33.7648 148.387C32.6602 148.193 31.4746 150.037 31.2073 152.554C30.9755 154.377 31.2412 157.989 31.8871 159.897C29.5601 157.857 27.3326 155.744 25.2046 153.557C26.2309 153.103 27.3076 148.472 27.5641 146.307C27.8059 143.97 27.2531 141.958 26.2441 141.751C25.2352 141.544 24.095 143.223 23.7832 145.558C23.5175 147.301 23.6883 150.838 24.2707 152.577C22.0449 150.24 19.9321 147.832 17.9323 145.353C18.6929 144.524 18.9924 140.338 18.9569 138.377C18.8744 136.175 18.1319 134.367 17.1873 134.284C16.2427 134.2 15.4375 135.9 15.4762 138.127C15.4762 139.429 15.8714 141.724 16.406 143.407C14.6719 141.159 13.0328 138.861 11.489 136.514C12.4188 136.087 13.964 132.626 14.4969 130.935C15.0662 129.045 14.9177 127.3 14.1108 126.983C13.304 126.667 12.111 127.891 11.4939 129.773C11.0278 131.117 10.6252 133.865 10.7696 135.424C9.85494 133.999 8.97714 132.558 8.13619 131.101C8.60562 130.302 8.51817 127.071 8.33997 125.557C8.11062 123.824 7.38874 122.447 6.66274 122.45C5.93674 122.453 5.47721 123.867 5.69914 125.63C5.78728 126.289 5.92293 126.94 6.10504 127.58C5.46979 126.749 4.78504 125.93 4.29004 125.406C3.00469 124.067 1.58074 123.321 1.06676 123.797C0.552784 124.273 1.17484 125.822 2.49401 127.198C3.56981 128.37 6.12154 130.296 7.22209 130.598C7.46382 131.031 7.70059 131.304 7.90024 131.291C7.92509 131.285 7.94862 131.275 7.96954 131.26C8.73074 132.61 9.52109 133.948 10.3406 135.274C9.30604 134.554 5.49289 133.942 3.65809 133.789C1.55846 133.652 -0.0940167 134.221 0.00415838 135.158C0.102333 136.095 1.93219 137.01 4.05161 137.108C6.12402 137.239 10.4577 136.551 10.5922 135.683C10.6945 135.848 10.8026 136.008 10.9057 136.171C10.9444 136.298 11.0168 136.412 11.1153 136.501C12.7345 139.04 14.4648 141.527 16.3062 143.964C14.9037 143.097 11.2019 142.067 9.32172 141.654C6.98449 141.199 5.03172 141.522 5.00036 142.506C4.96901 143.49 6.89787 144.744 9.27552 145.179C11.5855 145.648 16.5149 145.552 16.8342 144.661L16.9687 144.839C17.1213 145.119 17.2764 145.33 17.4315 145.434C19.1915 147.689 21.0477 149.891 23.0002 152.039C21.4921 151.195 17.1865 150.352 15.0406 150.049C12.4559 149.743 10.3653 150.247 10.4206 151.323C10.4759 152.4 12.6968 153.609 15.336 153.887C17.9603 154.217 23.5216 153.655 23.534 152.612C25.8605 155.137 28.316 157.576 30.9004 159.93C30.9515 159.968 30.9985 160.011 31.0407 160.059L30.9004 159.93C29.6745 158.978 24.3004 158.054 21.7479 157.736C18.9016 157.452 16.6131 158.016 16.6906 159.165C16.7682 160.314 19.2382 161.585 22.1538 161.841C25.0924 162.165 31.3451 161.418 31.1537 160.269C31.1393 160.194 31.1044 160.126 31.0531 160.07C33.4478 162.24 35.9486 164.33 38.5556 166.34L38.5796 166.359C36.2852 165.988 31.9012 166.163 29.6365 166.351C26.6179 166.681 24.4135 167.804 24.8169 169.037C25.2203 170.269 28.1169 171.085 31.1842 170.694C33.9529 170.406 39.1868 168.615 39.9614 167.394C42.4425 169.241 45.014 171.004 47.676 172.683C45.1952 172.295 40.284 172.537 37.7661 172.747C34.4661 173.115 32.0373 174.302 32.4646 175.601C32.892 176.899 36.0666 177.757 39.4442 177.327C42.5998 177.004 48.6528 174.912 49.147 173.603C51.3222 174.931 53.5561 176.196 55.8485 177.398C53.2439 177.712 48.4433 179.41 46.04 180.388C42.9257 181.753 41.0554 183.756 42.0363 185.013C43.0172 186.27 46.4806 186.204 49.5999 184.728C52.3224 183.515 56.9235 179.997 57.5628 178.293C58.4068 178.721 59.2549 179.143 60.1137 179.553C62.5244 180.703 64.9931 181.778 67.5198 182.779C64.4805 182.929 59.3597 184.007 56.6702 184.637C52.9469 185.627 50.3936 187.366 51.1427 188.75C51.8918 190.135 55.7247 190.553 59.5329 189.464C62.9682 188.58 69.1409 185.332 69.885 183.697C72.7082 184.755 75.5941 185.722 78.5476 186.576C75.283 187.024 69.9494 188.593 67.1427 189.47C63.2355 190.829 60.6508 192.868 61.5847 194.27C62.5186 195.673 66.6799 195.8 70.677 194.322C74.2914 193.1 80.6191 189.117 81.2692 187.321C82.5826 187.668 83.9043 188 85.2424 188.302C85.3964 187.855 85.5485 187.406 85.6987 186.955C85.004 186.807 84.3184 186.643 83.6304 186.483C83.7207 186.487 83.811 186.476 83.8977 186.45Z" fill="#236D66"/>
<path d="M30.8997 159.921L31.04 160.051C30.9977 160.003 30.9508 159.96 30.8997 159.921ZM39.8097 153.469C38.6094 153.501 37.7951 155.706 38.135 158.453C38.4072 161.192 40.5861 167.357 41.9448 167.286C43.2277 167.209 42.9975 161 42.6304 158.294C42.213 155.574 41.0142 153.439 39.8097 153.469ZM57.36 163.426C55.9789 163.601 55.2917 166.186 55.9971 169.248C56.6257 172.313 59.8795 179.019 61.4833 178.78C62.9947 178.544 61.9833 171.567 61.221 168.55C60.3952 165.527 58.746 163.253 57.36 163.426ZM66.4639 167.211C65.0028 167.517 64.5062 170.311 65.5564 173.494C66.5134 176.685 70.6714 183.493 72.3783 183.091C73.9846 182.702 72.2001 175.413 71.0913 172.289C69.9116 169.166 67.9316 166.907 66.4639 167.211ZM246.86 163.034C239.539 179.198 244.348 197.168 244.348 197.168C244.348 197.168 261.028 188.932 268.35 172.769C275.672 156.607 270.863 138.636 270.863 138.636C270.863 138.636 254.182 146.872 246.86 163.034Z" fill="#236D66"/>
<path d="M261.854 157.551C259.792 161.901 257.812 166.286 255.789 170.652C253.843 175.054 251.849 179.434 249.942 183.852L247.095 190.488C246.181 192.715 245.234 194.927 244.348 197.17C245.447 195.025 246.486 192.856 247.557 190.699L250.667 184.181C252.73 179.833 254.71 175.446 256.735 171.081C258.684 166.681 260.673 162.299 262.583 157.881L265.43 151.246C266.344 149.018 267.29 146.806 268.176 144.563C267.076 146.708 266.037 148.877 264.965 151.034L261.854 157.551Z" fill="#2FC3B0"/>
<path d="M265.311 151.179L265.229 151.075L265.091 151.087L265.311 151.179Z" fill="#2FC3B0"/>
<path d="M265.311 151.179L265.087 151.087L265.225 151.075C264.639 150.365 264.041 149.665 263.424 148.981C262.772 148.267 262.118 147.555 261.413 146.886C261.941 147.702 262.521 148.475 263.103 149.248C263.684 150.021 264.295 150.767 264.918 151.507L265.007 151.614L265.141 151.598C266.806 151.411 268.467 151.185 270.115 150.827C268.475 150.813 266.849 150.926 265.226 151.075L265.311 151.179ZM249.695 185.653C249.666 185.619 249.637 185.585 249.612 185.55C249.566 185.55 249.52 185.557 249.474 185.562L249.695 185.653Z" fill="#2FC3B0"/>
<path d="M249.694 185.653L249.471 185.562C249.516 185.557 249.562 185.554 249.609 185.55C249.023 184.839 248.425 184.139 247.808 183.455C247.155 182.742 246.502 182.03 245.796 181.361C246.324 182.177 246.904 182.95 247.486 183.723C248.067 184.495 248.678 185.242 249.301 185.981L249.391 186.088L249.525 186.073C251.19 185.885 252.851 185.661 254.498 185.302C252.859 185.288 251.232 185.4 249.61 185.549C249.637 185.585 249.665 185.618 249.694 185.653ZM261.754 159.532C261.715 159.483 261.672 159.436 261.635 159.388L261.446 159.406L261.754 159.532Z" fill="#2FC3B0"/>
<path d="M264.903 159.143C263.811 159.19 262.723 159.287 261.636 159.39C261.676 159.439 261.719 159.486 261.755 159.534L261.447 159.408L261.636 159.39C260.829 158.411 260.002 157.449 259.154 156.503C258.254 155.519 257.353 154.537 256.38 153.615C257.108 154.74 257.908 155.807 258.71 156.872C259.512 157.937 260.354 158.967 261.21 159.987L261.334 160.133L261.52 160.112C262.667 159.984 263.815 159.853 264.957 159.665C266.1 159.494 267.242 159.303 268.377 159.049C267.214 159.03 266.057 159.077 264.903 159.143ZM253.245 178.318L253.126 178.175L252.936 178.192L253.245 178.318Z" fill="#2FC3B0"/>
<path d="M256.393 177.929C255.3 177.975 254.213 178.072 253.126 178.176L253.245 178.32L252.937 178.193L253.126 178.176C252.32 177.197 251.492 176.235 250.643 175.289C249.744 174.305 248.843 173.323 247.87 172.401C248.599 173.526 249.398 174.593 250.2 175.658C251.002 176.723 251.844 177.753 252.701 178.773L252.824 178.919L253.009 178.899C254.158 178.77 255.305 178.639 256.447 178.452C257.59 178.28 258.732 178.089 259.868 177.835C258.704 177.816 257.548 177.863 256.393 177.929ZM257.542 169.335C257.491 169.273 257.44 169.212 257.39 169.151L257.149 169.174L257.542 169.335Z" fill="#2FC3B0"/>
<path d="M257.39 169.151C257.44 169.212 257.491 169.273 257.542 169.335L257.149 169.174L257.39 169.151C256.362 167.902 255.308 166.675 254.228 165.469C253.659 164.837 253.081 164.214 252.495 163.598C251.894 162.994 251.314 162.372 250.688 161.789C251.147 162.511 251.65 163.196 252.134 163.897C252.632 164.587 253.139 165.269 253.656 165.942C254.69 167.289 255.754 168.612 256.846 169.91L257.003 170.098L257.24 170.071C260.167 169.746 263.086 169.352 265.985 168.717C263.1 168.686 260.242 168.884 257.39 169.151Z" fill="#2FC3B0"/>
<path d="M39.4845 124.196C39.4845 124.196 35.3224 145.854 45.3519 164.344C55.3814 182.835 75.8043 191.157 75.8043 191.157C75.8043 191.157 79.9656 169.5 69.9361 151.009C59.9066 132.518 39.4845 124.196 39.4845 124.196Z" fill="#0AA798"/>
<path d="M68.0589 175.89C65.4279 170.827 62.6964 165.817 60.025 160.777C57.2621 155.786 54.547 150.768 51.7404 145.801L47.5089 138.36C46.0594 135.901 44.6462 133.423 43.1636 130.982C44.4011 133.556 45.7079 136.092 46.9776 138.649L50.9071 146.253C53.5405 151.314 56.2647 156.327 58.9426 161.364C61.708 166.355 64.4198 171.374 67.2289 176.34L71.4595 183.78C72.9091 186.24 74.3223 188.718 75.804 191.159C74.5665 188.586 73.2588 186.05 71.9883 183.494L68.0589 175.89Z" fill="#2FC3B0"/>
<path d="M47.3611 138.422L47.2011 138.428L47.1144 138.568L47.3611 138.422Z" fill="#2FC3B0"/>
<path d="M47.3612 138.422L47.1137 138.568L47.2003 138.428C46.1096 138.473 45.0198 138.537 43.9316 138.631C42.7907 138.736 41.6497 138.844 40.5128 139.031C41.6621 139.114 42.808 139.122 43.9539 139.126C45.0998 139.13 46.2441 139.087 47.3867 139.03L47.5517 139.022L47.6342 138.883C48.649 137.176 49.6266 135.445 50.4673 133.632C49.2801 135.17 48.2241 136.785 47.2011 138.428L47.3612 138.422ZM68.7534 177.861L68.5934 177.868L68.5109 178.007L68.7534 177.861Z" fill="#2FC3B0"/>
<path d="M68.7542 177.861L68.5067 178.007L68.5892 177.869C67.4985 177.912 66.4095 177.977 65.3205 178.07C64.1796 178.176 63.0386 178.284 61.9009 178.471C63.051 178.553 64.1969 178.562 65.3428 178.566C66.4887 178.57 67.633 178.527 68.7756 178.469L68.9406 178.461L69.0231 178.323C70.0379 176.615 71.0155 174.885 71.8562 173.071C70.669 174.611 69.6105 176.228 68.59 177.869L68.7542 177.861ZM52.7071 147.763L52.486 147.773L52.3672 147.964L52.7071 147.763Z" fill="#2FC3B0"/>
<path d="M52.4855 147.772L52.7066 147.762L52.3667 147.964L52.4855 147.772C50.9824 147.833 49.4808 147.923 47.9802 148.051C46.4069 148.196 44.8336 148.345 43.2653 148.603C44.8501 148.721 46.4308 148.729 48.0107 148.734C49.5906 148.74 51.168 148.68 52.7437 148.601L52.9706 148.589L53.0845 148.399C53.7849 147.223 54.487 146.045 55.123 144.831C55.783 143.628 56.4175 142.413 56.99 141.158C56.1411 142.246 55.3573 143.371 54.5926 144.509C53.8542 145.575 53.1678 146.672 52.4855 147.772ZM64.3639 169.255L64.1428 169.264C64.1032 169.328 64.0603 169.392 64.0248 169.456L64.3639 169.255Z" fill="#2FC3B0"/>
<path d="M64.1467 169.265L64.3678 169.255L64.0287 169.456C64.0675 169.392 64.1112 169.328 64.1467 169.265C62.6435 169.326 61.142 169.414 59.6414 169.543C58.0681 169.689 56.4948 169.837 54.9265 170.095C56.5121 170.213 58.092 170.221 59.6719 170.226C61.2518 170.231 62.8292 170.172 64.4057 170.093L64.6326 170.081L64.7456 169.892C65.4461 168.715 66.144 167.536 66.7842 166.324C67.4442 165.12 68.0786 163.905 68.6512 162.651C67.8023 163.737 67.0185 164.863 66.2537 166.001C65.5112 167.067 64.8248 168.164 64.1467 169.265ZM58.9492 158.762L58.5161 159.019L58.667 158.771C56.7503 158.849 54.8357 158.966 52.9234 159.124C51.9202 159.208 50.9178 159.306 49.9162 159.418C48.9155 159.554 47.9131 159.658 46.9141 159.831C47.9247 159.913 48.932 159.929 49.941 159.974C50.9491 159.998 51.9565 160.007 52.963 160.001C54.976 159.988 56.9871 159.93 58.9962 159.828L59.2858 159.813L59.4302 159.571C61.2188 156.573 62.9364 153.532 64.409 150.342C62.3168 153.043 60.4565 155.886 58.667 158.771C58.7644 158.771 58.8584 158.767 58.9492 158.762Z" fill="#2FC3B0"/>
<path d="M58.9494 158.762C58.8553 158.766 58.7613 158.771 58.6672 158.775L58.5162 159.022L58.9494 158.762Z" fill="#2FC3B0"/>
<path d="M302.325 168.336L302.187 168.364C302.233 168.358 302.28 168.349 302.325 168.336Z" fill="#236D66"/>
<path d="M337.329 165.629C336.046 165.771 333.563 166.503 332.838 167.074C332.44 167.023 332.148 167.045 332.06 167.181C332.052 167.2 332.047 167.22 332.046 167.241C330.801 167.086 329.549 166.955 328.291 166.848C329.258 166.518 331.496 164.336 332.483 163.218C333.585 161.918 334.011 160.568 333.355 160.18C332.698 159.791 331.22 160.542 330.137 161.873C329.052 163.158 327.41 166.31 327.91 166.817C327.754 166.804 327.597 166.796 327.441 166.785C327.34 166.75 327.232 166.743 327.128 166.764C324.694 166.593 322.241 166.519 319.768 166.542C321.006 166.047 323.465 164.136 324.636 163.111C326.06 161.81 326.79 160.388 326.166 159.888C325.543 159.388 323.798 160.041 322.365 161.381C320.946 162.657 318.631 165.911 319.056 166.549H318.876C318.62 166.512 318.408 166.511 318.265 166.562C315.948 166.621 313.619 166.767 311.281 166.999C312.558 166.422 315.183 164.029 316.416 162.781C317.861 161.246 318.542 159.646 317.818 159.159C317.095 158.672 315.233 159.538 313.78 161.12C312.295 162.669 309.985 166.559 310.655 167.07C307.885 167.366 305.109 167.788 302.327 168.336C302.282 168.348 302.235 168.357 302.188 168.363L302.327 168.336C303.527 168.016 306.737 164.953 308.185 163.436C309.742 161.721 310.479 159.96 309.694 159.456C308.91 158.952 306.889 159.951 305.318 161.72C303.689 163.476 301.16 167.907 302 168.335C302.055 168.361 302.117 168.372 302.178 168.365C299.61 168.877 297.045 169.496 294.481 170.224L294.458 170.231C295.806 168.917 297.807 165.98 298.777 164.416C300.02 162.293 300.35 160.316 299.355 159.984C298.359 159.652 296.432 161.139 295.205 163.328C294.057 165.268 292.696 169.539 293.122 170.632C290.723 171.356 288.336 172.179 285.959 173.102C287.408 171.674 289.62 168.362 290.697 166.622C292.052 164.296 292.448 162.145 291.397 161.797C290.346 161.448 288.257 163.099 286.907 165.509C285.596 167.718 284.038 172.666 284.651 173.619C282.737 174.394 280.836 175.238 278.948 176.148C280 174.302 281.21 170.359 281.734 168.324C282.347 165.639 281.947 163.457 280.656 163.489C279.365 163.521 277.737 165.805 277.191 168.548C276.667 170.904 276.736 175.594 277.538 176.833C276.853 177.176 276.169 177.524 275.488 177.886C273.577 178.899 271.687 179.987 269.816 181.149C271.185 179.099 272.951 175.247 273.841 173.192C274.992 170.292 275.093 167.793 273.829 167.613C272.565 167.433 270.447 169.726 269.318 172.728C268.236 175.389 267.372 180.972 268.08 182.245C266.03 183.573 264.013 184.989 262.029 186.493C263.312 184.153 264.864 179.926 265.647 177.676C266.647 174.479 266.567 171.814 265.204 171.744C263.842 171.675 261.751 174.323 260.786 177.636C259.837 180.577 259.376 186.615 260.231 187.905C259.372 188.592 258.519 189.292 257.673 190.017C257.89 190.333 258.11 190.648 258.333 190.963C258.764 190.583 259.202 190.215 259.637 189.845C259.588 189.899 259.549 189.962 259.52 190.029C259.07 191.399 265.231 193.31 268.028 193.882C270.855 194.398 273.414 193.944 273.862 192.727C274.31 191.51 272.493 189.89 269.683 189.241C267.257 188.609 261.681 188.572 259.988 189.546C264.898 185.418 270.208 181.79 275.838 178.715C278.673 177.165 281.548 175.774 284.462 174.542C284.875 175.992 287.534 178.865 289.017 180.093C290.832 181.567 292.832 182.168 293.568 181.413C294.304 180.659 293.552 178.759 291.812 177.206C290.601 176.089 287.886 174.43 286.098 173.867C288.915 172.728 291.753 171.728 294.612 170.868C296.592 170.276 298.572 169.759 300.552 169.3C300.625 170.415 303.181 173.26 304.536 174.46C306.087 175.798 307.81 176.398 308.468 175.771C309.127 175.144 308.501 173.486 306.992 172.095C305.919 171.065 303.439 169.496 301.884 168.995C304.334 168.464 306.784 168.033 309.234 167.703C309.033 168.59 311.527 171.524 312.813 172.735C314.215 174.02 315.793 174.633 316.415 174.073C317.037 173.512 316.497 171.964 315.125 170.635C314.12 169.622 311.738 168.029 310.322 167.567C312.917 167.245 315.502 167.032 318.077 166.927C318.25 167.822 320.829 170.036 322.12 170.958C323.591 171.969 325.128 172.356 325.637 171.783C326.147 171.211 325.43 169.865 323.962 168.813C323.115 168.184 321.431 167.335 320.074 166.87C322.375 166.826 324.66 166.867 326.932 166.995C326.762 167.806 328.268 170.481 329.112 171.643C330.067 172.925 331.273 173.67 331.869 173.298C332.464 172.926 332.242 171.558 331.316 170.25C330.666 169.298 329.072 167.71 327.989 167.053C329.357 167.144 330.718 167.272 332.072 167.425C332.364 168.115 334.51 169.617 335.58 170.23C336.818 170.915 338.063 171.111 338.411 170.637C338.759 170.162 338.061 169.182 336.807 168.476C336.336 168.215 335.846 167.989 335.342 167.8C336.189 167.787 337.052 167.732 337.632 167.667C339.123 167.477 340.295 166.91 340.233 166.347C340.171 165.785 338.861 165.435 337.329 165.629Z" fill="#236D66"/>
<path d="M299.8 173.753C297.886 172.61 292.823 171.053 292.215 171.972C291.646 172.844 295.797 175.685 297.736 176.757C299.707 177.795 301.675 178.045 302.234 177.248C302.794 176.451 301.748 174.856 299.8 173.753ZM284.161 180.168C281.863 179.095 275.93 177.981 275.312 179.139C274.735 180.237 279.767 182.944 282.096 183.903C284.461 184.824 286.736 184.848 287.293 183.862C287.851 182.876 286.493 181.186 284.161 180.168ZM276.787 184.339C274.249 183.423 267.813 182.845 267.252 184.149C266.73 185.382 272.334 187.737 274.901 188.522C277.503 189.264 279.928 189.062 280.438 187.961C280.948 186.859 279.364 185.191 276.787 184.339Z" fill="#236D66"/>
<path d="M258.487 190.556C258.487 190.556 275.693 188.856 287.356 177.191C299.018 165.527 300.721 148.324 300.721 148.324C300.721 148.324 283.514 150.024 271.852 161.689C260.19 173.353 258.487 190.556 258.487 190.556Z" fill="#2FC3B0"/>
<path d="M286.69 161.83C283.473 164.938 280.313 168.1 277.12 171.24C273.985 174.431 270.818 177.588 267.711 180.81L263.062 185.648C261.537 187.286 259.989 188.901 258.484 190.559C260.143 189.055 261.758 187.506 263.396 185.982L268.235 181.333C271.453 178.227 274.611 175.059 277.805 171.928C280.94 168.738 284.106 165.575 287.214 162.358L291.864 157.518C293.388 155.88 294.936 154.265 296.44 152.607C294.781 154.11 293.167 155.66 291.529 157.183L286.69 161.83Z" fill="#0AA798"/>
<path d="M291.784 157.419L291.619 157.267L291.743 157.301C291.467 156.491 291.175 155.687 290.863 154.889C290.529 154.055 290.193 153.222 289.798 152.408C289.991 153.292 290.242 154.154 290.495 155.016C290.747 155.878 291.035 156.729 291.333 157.573L291.376 157.696L291.498 157.726C293.008 158.108 294.527 158.457 296.077 158.685C294.656 158.15 293.21 157.688 291.743 157.3C291.756 157.34 291.77 157.38 291.784 157.419Z" fill="#0AA798"/>
<path d="M291.784 157.419C291.77 157.38 291.756 157.337 291.743 157.301L291.619 157.267L291.784 157.419ZM266.909 182.292C266.896 182.253 266.882 182.214 266.868 182.174L266.745 182.139L266.909 182.292Z" fill="#0AA798"/>
<path d="M266.909 182.292L266.744 182.139L266.868 182.174C266.592 181.364 266.301 180.56 265.987 179.762C265.657 178.928 265.318 178.094 264.924 177.281C265.117 178.165 265.368 179.027 265.62 179.889C265.872 180.751 266.16 181.602 266.458 182.446L266.501 182.568L266.623 182.599C268.133 182.981 269.651 183.33 271.202 183.558C269.782 183.023 268.335 182.561 266.868 182.172C266.882 182.214 266.896 182.252 266.909 182.292ZM285.955 163.52L285.899 163.355L285.729 163.309L285.955 163.52Z" fill="#0AA798"/>
<path d="M285.898 163.356L285.955 163.521L285.728 163.31L285.898 163.357C285.517 162.24 285.115 161.129 284.684 160.033C284.224 158.883 283.761 157.733 283.217 156.611C283.483 157.829 283.829 159.019 284.178 160.208C284.527 161.396 284.92 162.569 285.333 163.736L285.392 163.901L285.557 163.944C286.597 164.208 287.639 164.47 288.692 164.681C289.742 164.907 290.798 165.115 291.868 165.266C290.863 164.87 289.841 164.531 288.816 164.21C287.855 163.895 286.877 163.623 285.898 163.356ZM272.4 177.074L272.343 176.909L272.172 176.863L272.4 177.074Z" fill="#0AA798"/>
<path d="M272.344 176.91L272.401 177.075L272.173 176.864L272.344 176.911C271.963 175.794 271.561 174.683 271.129 173.587C270.67 172.437 270.207 171.287 269.663 170.166C269.928 171.384 270.275 172.573 270.623 173.762C270.971 174.95 271.365 176.123 271.778 177.29L271.837 177.455L272.002 177.498C273.043 177.762 274.084 178.024 275.137 178.235C276.188 178.461 277.243 178.669 278.314 178.82C277.308 178.424 276.287 178.085 275.262 177.764C274.301 177.449 273.323 177.177 272.344 176.91ZM279.08 170.667C279.056 170.598 279.031 170.528 279.008 170.458L278.79 170.399L279.08 170.667Z" fill="#0AA798"/>
<path d="M279.079 170.667L278.79 170.399L279.008 170.458C278.521 169.036 278.006 167.623 277.462 166.22C277.175 165.484 276.878 164.753 276.57 164.025C276.246 163.302 275.944 162.572 275.59 161.86C275.755 162.638 275.967 163.399 276.157 164.17C276.364 164.934 276.582 165.693 276.811 166.448C277.27 167.958 277.762 169.457 278.287 170.944L278.362 171.159L278.576 171.213C281.229 171.889 283.898 172.502 286.624 172.898C284.127 171.928 281.575 171.165 279.008 170.462C279.031 170.528 279.06 170.598 279.079 170.667Z" fill="#0AA798"/>
<path d="M52.2905 173.731C38.8942 168.057 24.262 172.363 24.262 172.363C24.262 172.363 31.3495 185.868 44.7467 191.543C58.1439 197.217 72.7761 192.911 72.7761 192.911C72.7761 192.911 65.6877 179.405 52.2905 173.731Z" fill="#2FC3B0"/>
<path d="M62.0021 187.994C58.396 186.39 54.7602 184.859 51.141 183.285C47.4945 181.777 43.8628 180.233 40.2031 178.759L34.707 176.561C32.8622 175.856 31.0299 175.125 29.1794 174.445C30.9581 175.304 32.7591 176.111 34.5477 176.945L39.9515 179.363C43.5584 180.965 47.1925 182.498 50.8134 184.07C54.4608 185.576 58.0908 187.123 61.7521 188.595L67.2483 190.794C69.0922 191.498 70.9253 192.23 72.7758 192.911C70.9963 192.053 69.1961 191.245 67.4067 190.411L62.0021 187.994Z" fill="#0AA798"/>
<path d="M34.6554 176.659L34.5729 176.731C34.5729 176.769 34.5812 176.807 34.5861 176.844L34.6554 176.659Z" fill="#0AA798"/>
<path d="M34.2694 172.73C34.303 174.068 34.4037 175.404 34.5714 176.732L34.6539 176.659L34.5838 176.844C34.5788 176.807 34.5747 176.769 34.5706 176.732C34.0002 177.227 33.44 177.733 32.89 178.25C32.3191 178.799 31.7482 179.349 31.2145 179.942C31.8745 179.492 32.4949 179 33.112 178.509C33.7291 178.017 34.333 177.5 34.927 176.976L35.0095 176.901L34.9946 176.791C34.8217 175.426 34.5797 174.07 34.2694 172.73ZM63.2295 188.76L63.147 188.833C63.147 188.87 63.1552 188.908 63.1602 188.945L63.2295 188.76Z" fill="#0AA798"/>
<path d="M62.8447 184.832C62.8782 186.17 62.9789 187.506 63.1466 188.834L63.2291 188.762L63.159 188.947C63.154 188.91 63.1499 188.872 63.1458 188.834C62.5749 189.329 62.0139 189.833 61.4653 190.353C60.8944 190.902 60.3235 191.452 59.7889 192.044C60.4489 191.594 61.0701 191.103 61.6913 190.612C62.3125 190.12 62.9123 189.603 63.5063 189.079L63.5888 189.003L63.574 188.893C63.3996 187.528 63.1562 186.172 62.8447 184.832ZM41.5737 179.405L41.459 179.505C41.4648 179.557 41.4705 179.609 41.4771 179.66L41.5737 179.405Z" fill="#0AA798"/>
<path d="M41.6164 176.778C41.4513 175.844 41.274 174.912 41.0388 173.987C41.0487 174.941 41.1098 175.884 41.1873 176.832C41.2476 177.727 41.3523 178.617 41.4555 179.505L41.5701 179.405L41.4736 179.66C41.467 179.608 41.4612 179.557 41.4555 179.505C40.6684 180.187 39.8946 180.882 39.1389 181.599C38.351 182.356 37.5639 183.115 36.8289 183.931C37.7364 183.311 38.5952 182.634 39.4515 181.955C40.3079 181.277 41.1354 180.565 41.9538 179.842L42.0717 179.738L42.0503 179.587C41.9241 178.648 41.7896 177.71 41.6164 176.778ZM57.1445 186L57.0298 186.1C57.0356 186.152 57.0414 186.203 57.048 186.255L57.1445 186Z" fill="#0AA798"/>
<path d="M57.1878 183.373C57.0228 182.439 56.8454 181.507 56.6103 180.582C56.6202 181.536 56.682 182.479 56.7588 183.427C56.819 184.322 56.9238 185.212 57.0269 186.1L57.1416 186L57.045 186.255C57.0384 186.203 57.0327 186.152 57.0269 186.1C56.2398 186.782 55.466 187.477 54.7103 188.194C53.9224 188.951 53.1362 189.71 52.4003 190.526C53.3078 189.906 54.1666 189.229 55.023 188.55C55.8793 187.872 56.7068 187.16 57.5252 186.437L57.6432 186.333L57.6225 186.182C57.4955 185.243 57.3643 184.305 57.1878 183.373ZM49.6943 182.66L49.5483 182.788C49.5557 182.854 49.5631 182.92 49.5714 182.986L49.6943 182.66Z" fill="#0AA798"/>
<path d="M49.0167 175.754C49.0506 178.117 49.2708 180.457 49.548 182.788L49.6941 182.66L49.5711 182.99C49.5629 182.924 49.5555 182.858 49.548 182.792C48.5448 183.66 47.56 184.549 46.5937 185.459C46.0871 185.938 45.5872 186.423 45.0938 186.915C44.6112 187.42 44.1137 187.905 43.6484 188.433C44.2309 188.042 44.782 187.616 45.3471 187.206C45.9026 186.783 46.4526 186.354 46.9971 185.917C48.0795 185.041 49.1421 184.143 50.1849 183.222L50.3351 183.089L50.3087 182.896C49.9787 180.499 49.5959 178.118 49.0167 175.754Z" fill="#0AA798"/>
<path d="M78.6749 160.348C71.834 175.363 76.2708 192.085 76.2708 192.085C76.2708 192.085 91.7982 184.459 98.6391 169.443C105.48 154.428 101.044 137.707 101.044 137.707C101.044 137.707 85.515 145.332 78.6749 160.348Z" fill="#236D66"/>
<path d="M92.6294 155.279C90.7038 159.322 88.8517 163.393 86.9624 167.45C85.1474 171.539 83.2821 175.609 81.4993 179.714L78.8387 185.878C77.9831 187.947 77.0987 190.003 76.2704 192.085C77.2967 190.093 78.2678 188.077 79.2677 186.074L82.1733 180.021C84.1005 175.978 85.9493 171.906 87.8411 167.85C89.6618 163.763 91.5206 159.691 93.3059 155.588L95.9665 149.422C96.8204 147.353 97.7056 145.297 98.5331 143.216C97.506 145.207 96.5358 147.223 95.535 149.226L92.6294 155.279Z" fill="#0AA798"/>
<path d="M95.7762 149.263L95.8587 149.36L95.6508 149.277L95.7787 149.266C95.2358 148.606 94.6814 147.952 94.1089 147.314C93.5033 146.654 92.897 145.986 92.2427 145.363C92.732 146.123 93.2699 146.843 93.8102 147.563C94.3506 148.282 94.9165 148.978 95.4924 149.667L95.5749 149.766L95.7003 149.752C97.2488 149.581 98.7941 149.375 100.327 149.045C98.8073 149.042 97.2885 149.114 95.7762 149.263Z" fill="#0AA798"/>
<path d="M95.8562 149.36L95.7737 149.263L95.6458 149.275L95.8562 149.36ZM81.2652 181.388L81.1827 181.291L81.054 181.303L81.2652 181.388Z" fill="#0AA798"/>
<path d="M81.1859 181.291L81.2684 181.388L81.0605 181.306L81.1891 181.294C80.6455 180.634 80.0911 179.981 79.5185 179.343C78.913 178.678 78.3066 178.015 77.6515 177.391C78.1416 178.151 78.6795 178.871 79.219 179.59C79.7586 180.31 80.3254 181.006 80.9012 181.695L80.9837 181.794L81.1091 181.78C82.6577 181.609 84.2029 181.403 85.7357 181.073C84.2164 181.069 82.6978 181.142 81.1859 181.291ZM92.5321 157.121L92.4215 156.987L92.2458 157.003L92.5321 157.121Z" fill="#0AA798"/>
<path d="M95.4611 156.764C94.4447 156.805 93.4333 156.893 92.4218 156.987L92.5324 157.12L92.2461 157.002L92.4218 156.987C91.6738 156.074 90.9063 155.177 90.1192 154.296C89.2843 153.381 88.4486 152.466 87.546 151.605C88.2209 152.653 88.9626 153.646 89.7059 154.639C90.4492 155.631 91.2313 156.59 92.0258 157.539L92.1397 157.676L92.3121 157.657C93.3796 157.54 94.4472 157.421 95.5098 157.245C96.5732 157.088 97.6358 156.915 98.6918 156.68C97.6102 156.667 96.5344 156.705 95.4611 156.764ZM87.5098 174.218C86.4934 174.259 85.4819 174.346 84.4713 174.44L84.5818 174.573L84.2947 174.456L84.4713 174.44C83.7222 173.527 82.9574 172.625 82.1679 171.75C81.3338 170.834 80.4972 169.919 79.5947 169.058C80.2704 170.107 81.0112 171.099 81.7545 172.092C82.4979 173.084 83.28 174.044 84.0744 174.993L84.1883 175.129L84.3607 175.11C85.4332 174.993 86.4967 174.874 87.5584 174.698C88.6227 174.54 89.6844 174.368 90.7405 174.132C89.6589 174.118 88.5831 174.157 87.5098 174.218Z" fill="#0AA798"/>
<path d="M84.5813 174.57L84.4708 174.437L84.2942 174.453L84.5813 174.57ZM88.5941 166.228C88.5479 166.171 88.5001 166.115 88.4539 166.058L88.2295 166.078L88.5941 166.228Z" fill="#0AA798"/>
<path d="M88.4541 166.058C88.5003 166.115 88.5481 166.171 88.5943 166.228L88.2297 166.078L88.4541 166.058C87.5004 164.893 86.5225 163.75 85.5204 162.627C84.9935 162.04 84.4583 161.458 83.9149 160.883C83.3572 160.32 82.8185 159.742 82.2377 159.198C82.6634 159.87 83.1303 160.508 83.5783 161.161C84.0392 161.804 84.5095 162.439 84.9891 163.066C85.9483 164.32 86.9347 165.552 87.9483 166.762L88.0935 166.937L88.3138 166.913C91.0363 166.616 93.7522 166.253 96.4458 165.67C93.7646 165.636 91.1064 165.814 88.4541 166.058ZM301.665 176.757C287.626 175.2 275.21 183.268 275.21 183.268C275.21 183.268 285.554 193.864 299.592 195.422C313.631 196.981 326.048 188.911 326.048 188.911C326.048 188.911 315.704 178.316 301.665 176.757Z" fill="#0AA798"/>
<path d="M309.511 186.755C305.711 186.267 301.903 185.848 298.1 185.393C294.288 185.005 290.482 184.576 286.667 184.221L280.943 183.702C279.032 183.558 277.124 183.387 275.21 183.268C277.104 183.572 279.005 183.823 280.903 184.103L286.6 184.851C290.4 185.341 294.208 185.759 298.012 186.215C301.823 186.605 305.63 187.031 309.444 187.388L315.167 187.907C317.079 188.051 318.987 188.221 320.901 188.339C319.004 188.035 317.106 187.783 315.209 187.504L309.511 186.755Z" fill="#2FC3B0"/>
<path d="M315.186 187.801L315.243 187.711L315.2 187.609L315.186 187.801Z" fill="#2FC3B0"/>
<path d="M317.475 183.792C316.987 184.393 316.545 185.023 316.103 185.653C315.662 186.283 315.248 186.93 314.841 187.583L314.783 187.677L314.827 187.775C315.369 188.997 315.973 190.19 316.636 191.35C316.234 190.114 315.769 188.9 315.244 187.711L315.187 187.801L315.201 187.609L315.244 187.711C315.637 187.092 316.018 186.466 316.386 185.831C316.763 185.161 317.142 184.492 317.475 183.792ZM285.248 184.478C285.267 184.448 285.285 184.417 285.305 184.387C285.29 184.353 285.276 184.319 285.262 184.286L285.248 184.478Z" fill="#2FC3B0"/>
<path d="M287.532 180.469C287.044 181.07 286.602 181.7 286.161 182.33C285.719 182.96 285.304 183.607 284.898 184.26L284.839 184.354L284.884 184.451C285.425 185.673 286.029 186.866 286.694 188.026C286.291 186.79 285.826 185.576 285.301 184.387C285.281 184.417 285.263 184.448 285.243 184.478L285.257 184.286C285.272 184.319 285.286 184.353 285.301 184.387C285.695 183.769 286.075 183.143 286.442 182.507C286.821 181.838 287.199 181.17 287.532 180.469ZM307.988 187.168L308.07 187.043L308.01 186.903L307.988 187.168Z" fill="#2FC3B0"/>
<path d="M311.144 181.64C310.472 182.469 309.861 183.337 309.253 184.206C308.645 185.075 308.073 185.967 307.512 186.867L307.429 186.996L307.49 187.132C307.87 187.969 308.252 188.805 308.676 189.624C309.099 190.442 309.512 191.264 309.985 192.06C309.711 191.176 309.391 190.312 309.057 189.455C308.752 188.639 308.41 187.84 308.067 187.042L307.984 187.168L308.003 186.903L308.063 187.042C308.605 186.19 309.136 185.328 309.637 184.452C310.163 183.529 310.684 182.604 311.144 181.64ZM294.827 179.829C294.155 180.659 293.544 181.526 292.935 182.395C292.327 183.264 291.756 184.157 291.195 185.056L291.112 185.185L291.174 185.321C291.554 186.158 291.936 186.995 292.36 187.812C292.783 188.63 293.196 189.453 293.669 190.249C293.395 189.365 293.075 188.501 292.741 187.643C292.435 186.828 292.094 186.028 291.751 185.232L291.668 185.357L291.687 185.092C291.708 185.138 291.728 185.185 291.747 185.232C292.289 184.379 292.82 183.517 293.321 182.64C293.847 181.717 294.368 180.793 294.827 179.829Z" fill="#2FC3B0"/>
<path d="M291.67 185.357L291.753 185.232C291.733 185.185 291.713 185.138 291.693 185.092L291.67 185.357ZM299.528 186.395C299.563 186.342 299.596 186.288 299.63 186.235L299.553 186.057L299.528 186.395Z" fill="#2FC3B0"/>
<path d="M301.139 182.619C300.375 183.734 299.635 184.864 298.922 186.011L298.819 186.176L298.897 186.349C299.865 188.485 300.883 190.597 302.077 192.632C301.39 190.442 300.535 188.328 299.63 186.235C299.596 186.288 299.563 186.342 299.529 186.395L299.553 186.057L299.63 186.235C300.323 185.149 300.992 184.049 301.637 182.935C301.976 182.35 302.306 181.76 302.627 181.164C302.937 180.56 303.264 179.968 303.551 179.349C303.118 179.874 302.726 180.422 302.314 180.963C301.901 181.504 301.522 182.062 301.139 182.619Z" fill="#2FC3B0"/>
<path d="M245.504 150.691H186.866C185.932 150.691 185.174 151.448 185.174 152.383V185.607C185.174 186.542 185.932 187.3 186.866 187.3H245.504C246.439 187.3 247.197 186.542 247.197 185.607V152.383C247.197 151.448 246.439 150.691 245.504 150.691Z" fill="#2E5FC8"/>
<path d="M243.018 150.691H184.38C183.445 150.691 182.687 151.448 182.687 152.383V185.607C182.687 186.542 183.445 187.3 184.38 187.3H243.018C243.953 187.3 244.711 186.542 244.711 185.607V152.383C244.711 151.448 243.953 150.691 243.018 150.691Z" fill="#2E98EC"/>
<path d="M199.789 165.859C202.512 163.136 202.512 158.721 199.789 155.998C197.066 153.275 192.651 153.275 189.928 155.998C187.205 158.721 187.205 163.136 189.928 165.859C192.651 168.582 197.066 168.582 199.789 165.859Z" fill="#FFFFDC"/>
<path d="M199.789 181.992C202.512 179.269 202.512 174.854 199.789 172.131C197.066 169.408 192.651 169.408 189.928 172.131C187.205 174.854 187.205 179.269 189.928 181.992C192.651 184.715 197.066 184.715 199.789 181.992Z" fill="#9AEBFF"/>
<path d="M218.629 165.86C221.352 163.136 221.352 158.721 218.629 155.998C215.905 153.275 211.49 153.275 208.767 155.998C206.044 158.721 206.044 163.136 208.767 165.86C211.49 168.583 215.905 168.583 218.629 165.86Z" fill="#DCAAF2"/>
<path d="M218.629 181.992C221.352 179.269 221.352 174.854 218.629 172.131C215.905 169.408 211.49 169.408 208.767 172.131C206.044 174.854 206.044 179.269 208.767 181.992C211.49 184.715 215.905 184.715 218.629 181.992Z" fill="#F4C97C"/>
<path d="M233.662 167.799C237.463 167.182 240.045 163.6 239.428 159.799C238.811 155.998 235.229 153.417 231.428 154.034C227.626 154.651 225.045 158.232 225.662 162.034C226.279 165.835 229.861 168.416 233.662 167.799Z" fill="#2FC391"/>
<path d="M233.662 183.933C237.463 183.316 240.045 179.734 239.428 175.933C238.811 172.131 235.229 169.55 231.428 170.167C227.626 170.784 225.045 174.366 225.662 178.167C226.279 181.968 229.861 184.55 233.662 183.933Z" fill="#FAE1B4"/>
<path opacity="0.5" d="M185.643 185.585H190.061L201.14 152.404H196.721L185.643 185.585ZM193.316 185.585H195.524L206.605 152.404H204.394L193.316 185.585ZM219.876 185.585H224.295L235.373 152.404H230.958L219.876 185.585ZM227.549 185.585H229.76L240.838 152.404H238.63L227.549 185.585ZM216.292 185.585H218.503L229.581 152.404H227.374L216.292 185.585Z" fill="white"/>
<path d="M108.368 186.245C108.368 186.525 108.479 186.793 108.677 186.991C108.875 187.189 109.144 187.3 109.424 187.3H129.983C130.262 187.3 130.531 187.189 130.729 186.991C130.927 186.793 131.038 186.525 131.038 186.245V172.126H108.368V186.245Z" fill="#0AA798"/>
<path d="M131.195 171.683C123.68 169.557 115.723 169.557 108.209 171.683C108.018 171.738 107.851 171.855 107.733 172.014C107.615 172.173 107.553 172.367 107.555 172.565V174.081C107.555 174.324 107.652 174.558 107.824 174.73C107.996 174.902 108.229 174.998 108.473 174.998H130.929C131.05 174.998 131.169 174.975 131.281 174.929C131.392 174.883 131.493 174.815 131.578 174.73C131.664 174.645 131.731 174.544 131.778 174.432C131.824 174.321 131.847 174.201 131.847 174.081V172.567C131.85 172.369 131.788 172.175 131.67 172.015C131.552 171.855 131.385 171.738 131.195 171.683Z" fill="#8ED7D0"/>
<path d="M119.701 177.385C115.642 177.385 112.351 178.865 112.351 180.69C112.351 182.515 115.642 183.995 119.701 183.995C123.76 183.995 127.05 182.516 127.05 180.69C127.05 178.864 123.76 177.385 119.701 177.385Z" fill="white"/>
<path d="M148.119 156.963C144.894 155.101 139.857 157.617 136.141 162.664C135.62 163.374 135.138 164.112 134.697 164.876C130.953 171.363 130.89 178.339 134.559 180.456C136.555 181.611 139.246 181.085 141.886 179.32C144.098 177.845 146.275 175.5 147.982 172.544C151.726 166.056 151.787 159.08 148.119 156.963Z" fill="#ED2B47"/>
<path d="M146.557 159.669C143.734 158.04 139.109 160.766 136.227 165.759C133.346 170.752 133.297 176.121 136.12 177.751C138.943 179.38 143.568 176.654 146.451 171.66C149.333 166.667 149.38 161.298 146.557 159.669Z" fill="white"/>
<path d="M132.408 168.51L150.702 162.385L151.259 164.048L132.964 170.172L132.408 168.51Z" fill="#EAEAEA"/>
<path d="M132.858 170.948L151.154 164.827L151.432 165.658L133.136 171.78L132.858 170.948Z" fill="#EAEAEA"/>
<path opacity="0.3" d="M138.536 179.14C129.543 179.868 133.825 167.94 136.143 162.664C135.622 163.374 135.14 164.112 134.699 164.876C130.955 171.363 130.892 178.339 134.561 180.456C136.557 181.611 139.248 181.085 141.888 179.32C141.374 179.077 140.316 178.995 138.536 179.14Z" fill="#C4C4C4"/>
<path d="M150.064 178.624C144.668 178.624 139.999 179.725 137.729 181.33H136.267V183.723H136.279C136.565 186.342 142.627 188.434 150.064 188.434C157.501 188.434 163.563 186.342 163.849 183.723H163.86V181.33H162.399C160.131 179.725 155.459 178.624 150.064 178.624Z" fill="#ED2B47"/>
<path d="M150.064 176.55C142.445 176.55 136.267 178.746 136.267 181.455C136.267 184.163 142.445 186.36 150.064 186.36C157.683 186.36 163.86 184.164 163.86 181.455C163.86 178.745 157.684 176.55 150.064 176.55Z" fill="white"/>
<path d="M159.622 177.914C161.292 179.004 161.974 181.709 160.881 182.874C158.323 185.628 149.155 186.217 143.029 185.671C145.092 186.106 147.494 186.356 150.063 186.356C157.683 186.356 163.86 184.16 163.86 181.451C163.86 180.061 162.234 178.807 159.622 177.914Z" fill="#EAEAEA"/>
<path d="M160.59 180.383C160.569 180.356 160.546 180.329 160.523 180.301C159.146 178.713 154.985 177.559 150.066 177.559C144.022 177.559 139.124 179.301 139.124 181.45C139.124 183.45 143.374 185.099 148.84 185.315C149.225 185.33 149.613 185.338 150.006 185.339H150.066C156.109 185.339 161.008 183.596 161.008 181.449C161.001 181.112 160.89 180.785 160.69 180.514C160.658 180.471 160.624 180.428 160.59 180.383Z" fill="#C4C4C4"/>
<path d="M160.196 180.423C160.175 180.397 160.154 180.371 160.132 180.345C158.805 178.816 154.8 177.705 150.067 177.705C144.249 177.705 139.533 179.381 139.533 181.45C139.533 183.377 143.624 184.963 148.887 185.171C149.256 185.186 149.63 185.194 150.009 185.194H150.067C155.885 185.194 160.601 183.517 160.601 181.45C160.595 181.125 160.488 180.811 160.295 180.55C160.26 180.51 160.23 180.465 160.196 180.423Z" fill="#FECF96"/>
<path opacity="0.3" d="M150.006 185.195H150.064C155.882 185.195 160.599 183.518 160.599 181.451C160.592 181.126 160.485 180.812 160.292 180.551C158.363 184.08 153.076 185.001 150.006 185.195Z" fill="#C4C4C4"/>
<path opacity="0.69" d="M140.794 182.644C139.729 179.529 146.115 178.624 146.115 178.624C138.246 179.43 140.794 182.644 140.794 182.644Z" fill="white"/>
<path d="M173.561 149.892C173.121 148.678 172.268 146.989 171.003 147.369C170.779 147.437 170.568 147.541 170.377 147.677C169.738 148.139 169.366 148.914 169.153 149.609C168.961 150.244 168.867 150.904 168.872 151.567V157.837H173.91V151.484C173.91 151.17 173.865 150.857 173.777 150.555C173.722 150.367 173.65 150.139 173.561 149.892Z" fill="#ED2B47"/>
<g style="mix-blend-mode:multiply" opacity="0.5">
<path d="M173.561 149.892C173.121 148.678 172.268 146.989 171.003 147.369C170.968 147.38 170.934 147.393 170.9 147.405C171.725 147.741 172.312 148.956 172.651 149.892C172.74 150.139 172.816 150.367 172.866 150.552C172.955 150.854 173 151.166 173 151.481V157.833H173.907V151.481C173.907 151.166 173.863 150.854 173.774 150.552C173.722 150.367 173.65 150.139 173.561 149.892Z" fill="#7C68C4"/>
</g>
<path d="M175.751 166.747H174.976V157.748C174.976 157.708 174.968 157.669 174.953 157.632C174.938 157.595 174.916 157.562 174.888 157.534C174.86 157.506 174.827 157.484 174.79 157.469C174.753 157.453 174.714 157.446 174.675 157.446H168.108C168.027 157.446 167.951 157.477 167.894 157.534C167.837 157.591 167.806 157.668 167.806 157.748V166.747H167.031V170.041H166.256V187.288H176.526V170.041H175.751V166.747Z" fill="#2B2B2B"/>
<path opacity="0.5" d="M175.751 166.747H174.976V157.748C174.976 157.708 174.968 157.669 174.953 157.632C174.938 157.595 174.916 157.562 174.888 157.534C174.86 157.506 174.827 157.484 174.79 157.469C174.754 157.453 174.714 157.446 174.675 157.446H173.19C173.025 163 174.15 168.558 173.001 174.305C172.188 178.978 169.669 182.691 166.257 185.447V187.288H176.527V170.041H175.752L175.751 166.747Z" fill="#C4C4C4"/>
<path opacity="0.21" d="M168.542 158.802C167.961 159.577 168.348 167.522 168.348 166.166C168.348 164.81 168.235 161.621 168.926 159.771C169.503 158.22 171.446 158.22 171.446 158.22C171.446 158.22 169.124 158.027 168.542 158.802ZM169.511 152.794C169.511 152.794 169.705 151.245 169.899 150.276C170.04 149.615 170.233 148.967 170.476 148.338C169.317 149.5 169.511 152.02 169.511 152.794Z" fill="white"/>
<path d="M94.0593 180.276H100.133C100.483 180.276 100.819 180.415 101.066 180.663C101.314 180.91 101.453 181.246 101.453 181.596V185.818C101.453 186.168 101.314 186.504 101.066 186.752C100.819 186.999 100.483 187.138 100.133 187.138H94.0593C93.7092 187.138 93.3734 186.999 93.1259 186.752C92.8783 186.504 92.7393 186.168 92.7393 185.818V181.596C92.7393 181.246 92.8783 180.91 93.1259 180.663C93.3734 180.415 93.7092 180.276 94.0593 180.276Z" fill="#F26122"/>
<path d="M97.5911 186.259C96.6897 186.678 95.7356 186.973 94.7547 187.136H100.004C100.194 187.136 100.383 187.098 100.558 187.026C100.734 186.953 100.893 186.846 101.028 186.712C101.162 186.577 101.269 186.418 101.341 186.242C101.414 186.066 101.451 185.878 101.451 185.688V181.433H100.055C100.051 183.358 99.3277 185.431 97.5911 186.259Z" fill="#F24111"/>
<path opacity="0.68" d="M93.6435 186.083C93.6435 183.278 96.1003 182.749 96.1003 182.749C96.1003 182.749 95.1351 182.837 93.9949 182.925C92.9307 183.006 93.6435 186.259 93.6435 186.083Z" fill="white"/>
<path d="M89.2 145.901H104.992V147.217H89.2V145.901Z" fill="#E03E20"/>
<path d="M89.2 147.218C89.2 147.218 90.6916 157.746 90.8673 162.659C91.043 167.572 91.6568 180.205 91.8317 181.17C92.0066 182.135 93.8497 182.573 97.096 182.573C100.342 182.573 102.185 182.134 102.36 181.17C102.536 180.206 103.149 167.571 103.325 162.659C103.501 157.747 104.992 147.218 104.992 147.218H89.2Z" fill="#F26122"/>
<path d="M101.219 150.639C102.184 156.868 102.009 163.009 101.921 169.151C101.921 170.379 101.921 171.607 101.571 172.835C101.312 173.96 100.829 175.022 100.15 175.957C99.4717 176.891 98.6119 177.679 97.6221 178.274C95.9366 179.247 93.6291 179.978 91.6895 179.48C91.7489 180.378 91.7984 180.986 91.8314 181.17C92.0071 182.134 93.8494 182.573 97.0957 182.573C100.342 182.573 102.184 182.134 102.36 181.17C102.536 180.206 103.149 167.571 103.324 162.659C103.5 157.747 104.992 147.218 104.992 147.218H99.3422C100.325 148.124 101.024 149.248 101.219 150.639Z" fill="#F24111"/>
<path d="M97.2948 155.728H96.8971C95.6988 155.728 94.7274 156.699 94.7274 157.898V168.999C94.7274 170.197 95.6988 171.168 96.8971 171.168H97.2948C98.4931 171.168 99.4645 170.197 99.4645 168.999V157.898C99.4645 156.699 98.4931 155.728 97.2948 155.728Z" fill="#FECF96"/>
<path d="M89.2 146.955H104.992V147.218H89.2V146.955Z" fill="#BD744B"/>
<path opacity="0.68" d="M91.3128 158.94C91.2856 159.318 91.2691 159.541 91.2691 159.541C91.2995 159.342 91.3142 159.141 91.3128 158.94ZM90.3913 149.013C90.5497 150.433 91.345 156.673 91.3128 158.94C91.4398 157.187 91.7954 152.071 91.7954 149.978C91.7954 147.434 96.229 148.163 96.229 147.736C96.229 147.309 90.2172 147.434 90.3913 149.013Z" fill="white"/>
<path d="M285.95 83.7185H280.799C280.139 83.7185 279.605 84.253 279.605 84.9123V98.2855C279.605 98.9448 280.139 99.4793 280.799 99.4793H285.95C286.609 99.4793 287.144 98.9448 287.144 98.2855V84.9123C287.144 84.253 286.609 83.7185 285.95 83.7185Z" fill="#1D2970"/>
<path d="M285.948 83.7185H281.914C281.255 83.7185 280.72 84.253 280.72 84.9123V98.2855C280.72 98.9448 281.255 99.4793 281.914 99.4793H285.948C286.607 99.4793 287.142 98.9448 287.142 98.2855V84.9123C287.142 84.253 286.607 83.7185 285.948 83.7185Z" fill="#203592"/>
<path d="M318.57 127.076C317.897 126.595 303.72 116.304 302.666 116.112C301.612 115.92 300.933 117.267 300.933 117.267L317.127 129.098C318.185 129.001 319.244 127.558 318.57 127.076Z" fill="#454342"/>
<path d="M300.934 117.267L304.64 119.974C305.363 119.497 306.29 119.185 307.159 118.968C304.855 117.38 303.021 116.177 302.666 116.112C301.608 115.92 300.934 117.267 300.934 117.267ZM314.743 123.902C313.76 123.984 312.904 125.997 312.904 125.997C312.822 126.08 316.796 129.888 317.607 129.76C318.418 129.632 319.574 128.007 319.36 127.45C319.146 126.893 315.107 123.87 314.743 123.902Z" fill="#2B2A29"/>
<path d="M314.787 124.629C314.402 124.629 315.001 125.826 316.454 126.852C317.908 127.878 318.977 127.835 318.764 127.537C318.551 127.238 314.787 124.629 314.787 124.629ZM294.657 149.499L276.78 187.422C277.075 188.443 278.692 189.21 279.037 188.457C279.382 187.705 297.091 150.878 297.08 149.802C297.069 148.726 294.657 149.499 294.657 149.499Z" fill="#454342"/>
<path d="M278.836 182.573C278.733 182.503 275.88 187.207 276.182 187.994C276.484 188.78 278.321 189.621 278.818 189.301C279.314 188.98 281.391 184.362 281.281 184.005C280.984 183.043 278.836 182.573 278.836 182.573Z" fill="#2B2A29"/>
<path d="M278.77 186.285C278.084 187.935 278.357 188.994 278.605 188.723C278.852 188.452 280.585 184.192 280.585 184.192C280.496 183.81 279.456 184.635 278.77 186.285Z" fill="#454342"/>
<path d="M296.338 127.395L295.513 186.921C296.197 187.735 297.988 187.778 297.995 186.951C298.002 186.123 299.12 127.666 298.673 126.688C298.226 125.709 296.338 127.395 296.338 127.395Z" fill="#2B2A29"/>
<path d="M295.425 181.658C295.303 181.636 294.605 187.094 295.2 187.69C295.795 188.287 297.815 188.308 298.14 187.813C298.464 187.318 298.486 182.256 298.241 181.974C297.577 181.212 295.425 181.658 295.425 181.658Z" fill="#2B2A29"/>
<path d="M297.966 149.802C297.954 150.874 315.664 187.705 316.009 188.457C316.354 189.21 317.971 188.443 318.266 187.422L300.389 149.499C300.389 149.499 297.978 148.726 297.966 149.802Z" fill="#454342"/>
<path d="M316.211 182.573C316.211 182.573 314.066 183.04 313.766 184.005C313.656 184.362 315.732 188.98 316.229 189.3C316.726 189.621 318.563 188.781 318.865 187.994C319.167 187.207 316.313 182.507 316.211 182.573Z" fill="#2B2A29"/>
<path d="M314.466 184.191C314.466 184.191 316.198 188.451 316.446 188.722C316.693 188.994 316.966 187.934 316.281 186.284C315.596 184.635 314.55 183.81 314.466 184.191ZM295.336 116.182L295.345 149.877C296.529 150.683 299.552 150.62 299.533 149.754C299.514 148.889 299.424 117.85 298.632 116.857C297.841 115.865 295.336 116.182 295.336 116.182Z" fill="#454342"/>
<path d="M305.447 115.342C305.02 115.086 288.177 115.04 287.985 115.41C287.664 116.028 292.453 120.6 292.77 120.749C293.087 120.897 300.793 120.865 301.223 120.716C301.653 120.566 305.863 115.592 305.447 115.342ZM299.256 123.061C299.117 122.955 295.626 122.969 295.429 123.076C295.232 123.183 293.938 126.788 294.127 126.968C294.316 127.148 300.533 127.205 300.619 126.937C300.764 126.489 299.398 123.172 299.256 123.061ZM299.641 148.429C299.485 148.365 295.569 148.38 295.351 148.446C295.132 148.512 293.673 150.711 293.883 150.821C294.093 150.93 301.061 150.953 301.161 150.789C301.324 150.516 299.8 148.495 299.641 148.429Z" fill="#2B2A29"/>
<path d="M297.383 123.795L295.906 123.682C295.906 123.682 294.543 126.521 294.695 126.559C294.846 126.597 297.155 126.559 297.155 126.559C297.155 126.559 297.874 123.832 297.383 123.795ZM297.761 148.818C297.341 148.87 295.679 148.969 295.679 148.969C295.679 148.969 294.354 150.521 294.543 150.559C294.732 150.597 296.171 150.673 296.511 150.407C296.852 150.142 298.064 148.78 297.761 148.818Z" fill="#454342"/>
<path d="M304.489 67.1055H285.993C284.153 67.1055 282.66 68.5977 282.66 70.4385V112.76C282.66 114.601 284.153 116.093 285.993 116.093H304.489C306.33 116.093 307.822 114.601 307.822 112.76V70.4385C307.822 68.5977 306.33 67.1055 304.489 67.1055Z" fill="#09163F"/>
<path d="M306.243 67.1055H287.748C285.907 67.1055 284.415 68.5977 284.415 70.4385V112.76C284.415 114.601 285.907 116.093 287.748 116.093H306.243C308.084 116.093 309.576 114.601 309.576 112.76V70.4385C309.576 68.5977 308.084 67.1055 306.243 67.1055Z" fill="#01265A"/>
<path d="M306.244 67.1055H303.569C304.453 67.1055 305.3 67.4566 305.925 68.0817C306.55 68.7068 306.902 69.5545 306.902 70.4385V112.761C306.902 113.199 306.816 113.632 306.648 114.037C306.481 114.441 306.235 114.809 305.926 115.118C305.616 115.428 305.249 115.674 304.844 115.841C304.44 116.009 304.006 116.095 303.569 116.095H306.244C307.128 116.095 307.976 115.743 308.601 115.118C309.226 114.493 309.577 113.645 309.577 112.761V70.4385C309.577 69.5545 309.226 68.7068 308.601 68.0817C307.976 67.4566 307.128 67.1055 306.244 67.1055Z" fill="#273B70"/>
<path d="M293.715 70.6778H288.052C287.098 70.6778 286.324 71.4516 286.324 72.4062V77.7505C286.324 78.7051 287.098 79.4789 288.052 79.4789H293.715C294.669 79.4789 295.443 78.7051 295.443 77.7505V72.4062C295.443 71.4516 294.669 70.6778 293.715 70.6778Z" fill="#09163F"/>
<path d="M293.058 69.9955H288.052C287.098 69.9955 286.324 70.7693 286.324 71.7239V77.0683C286.324 78.0228 287.098 78.7966 288.052 78.7966H293.058C294.013 78.7966 294.787 78.0228 294.787 77.0683V71.7239C294.787 70.7693 294.013 69.9955 293.058 69.9955Z" fill="#647EBC"/>
<path d="M288.741 72.4704C287.683 72.4704 286.821 73.3606 286.821 74.4504C286.821 75.5402 287.683 76.4304 288.741 76.4304C289.799 76.4304 290.661 75.5402 290.661 74.4504C290.661 73.3606 289.799 72.4704 288.741 72.4704Z" fill="#5970A6"/>
<path d="M288.741 76.1162C289.623 76.1162 290.339 75.372 290.339 74.4539C290.339 73.5358 289.623 72.7915 288.741 72.7915C287.858 72.7915 287.143 73.5358 287.143 74.4539C287.143 75.372 287.858 76.1162 288.741 76.1162Z" fill="#A1B7DB"/>
<path d="M292.369 74.4355C291.311 74.4355 290.449 75.3257 290.449 76.4155C290.449 77.5054 291.311 78.3955 292.369 78.3955C293.428 78.3955 294.289 77.5054 294.289 76.4155C294.289 75.3257 293.428 74.4355 292.369 74.4355Z" fill="#5970A6"/>
<path d="M292.369 78.0814C293.252 78.0814 293.967 77.3371 293.967 76.419C293.967 75.5009 293.252 74.7566 292.369 74.7566C291.487 74.7566 290.771 75.5009 290.771 76.419C290.771 77.3371 291.487 78.0814 292.369 78.0814Z" fill="#A1B7DB"/>
<path d="M292.369 70.3897C291.311 70.3897 290.449 71.279 290.449 72.3697C290.449 73.4603 291.311 74.3497 292.369 74.3497C293.428 74.3497 294.289 73.4603 294.289 72.3697C294.289 71.279 293.428 70.3897 292.369 70.3897Z" fill="#5970A6"/>
<path d="M292.369 74.0355C293.252 74.0355 293.967 73.2912 293.967 72.3731C293.967 71.455 293.252 70.7108 292.369 70.7108C291.487 70.7108 290.771 71.455 290.771 72.3731C290.771 73.2912 291.487 74.0355 292.369 74.0355Z" fill="#A1B7DB"/>
<path d="M292.369 73.6783C292.109 73.687 291.852 73.6178 291.632 73.4797C291.411 73.3415 291.237 73.1407 291.131 72.9029C291.026 72.6651 290.994 72.4012 291.039 72.1451C291.085 71.8889 291.205 71.6521 291.386 71.4651C291.567 71.2781 291.8 71.1494 292.054 71.0954C292.309 71.0415 292.574 71.0648 292.815 71.1623C293.056 71.2599 293.262 71.4273 293.408 71.643C293.553 71.8587 293.631 72.1129 293.631 72.3731C293.636 72.7134 293.506 73.0418 293.27 73.2864C293.033 73.5311 292.709 73.672 292.369 73.6783ZM292.369 71.4805C292.19 71.4717 292.013 71.5167 291.86 71.6096C291.708 71.7024 291.586 71.839 291.512 72.0015C291.437 72.1641 291.413 72.3452 291.443 72.5215C291.473 72.6978 291.554 72.8612 291.678 72.9906C291.801 73.12 291.96 73.2095 292.135 73.2475C292.31 73.2855 292.492 73.2703 292.658 73.2039C292.823 73.1374 292.966 73.0227 293.066 72.8747C293.166 72.7266 293.219 72.5519 293.219 72.3731C293.224 72.1421 293.138 71.9184 292.978 71.7511C292.819 71.5838 292.6 71.4865 292.369 71.4805ZM292.369 77.7645C292.109 77.7732 291.852 77.704 291.632 77.5659C291.411 77.4278 291.237 77.2269 291.131 76.9891C291.026 76.7514 290.994 76.4875 291.039 76.2313C291.085 75.9751 291.205 75.7383 291.386 75.5513C291.567 75.3643 291.8 75.2356 292.054 75.1816C292.309 75.1277 292.574 75.151 292.815 75.2486C293.056 75.3461 293.262 75.5135 293.408 75.7292C293.553 75.9449 293.631 76.1992 293.631 76.4593C293.636 76.7996 293.506 77.128 293.27 77.3727C293.033 77.6173 292.709 77.7582 292.369 77.7645ZM292.369 75.5659C292.19 75.5571 292.013 75.6021 291.86 75.6949C291.708 75.7878 291.586 75.9242 291.512 76.0867C291.438 76.2492 291.413 76.4303 291.443 76.6066C291.472 76.7829 291.554 76.9463 291.677 77.0757C291.801 77.2052 291.96 77.2947 292.134 77.3328C292.309 77.3709 292.491 77.3558 292.657 77.2895C292.823 77.2232 292.965 77.1086 293.065 76.9607C293.166 76.8127 293.219 76.6381 293.219 76.4593C293.223 76.2289 293.136 76.0063 292.977 75.8397C292.818 75.6732 292.599 75.5763 292.369 75.57V75.5659ZM288.741 75.7589C288.481 75.7673 288.225 75.6979 288.005 75.5597C287.785 75.4215 287.611 75.2207 287.506 74.9831C287.401 74.7454 287.369 74.4818 287.414 74.2259C287.46 73.97 287.581 73.7336 287.761 73.5468C287.942 73.36 288.174 73.2315 288.429 73.1776C288.683 73.1238 288.947 73.147 289.188 73.2445C289.429 73.3419 289.636 73.509 289.781 73.7245C289.926 73.9399 290.004 74.1939 290.004 74.4538C290.009 74.7942 289.879 75.1227 289.643 75.3674C289.406 75.612 289.082 75.7528 288.741 75.7589ZM288.741 73.5611C288.563 73.5524 288.386 73.5973 288.233 73.6902C288.08 73.7831 287.959 73.9196 287.884 74.0822C287.81 74.2447 287.786 74.4258 287.815 74.6021C287.845 74.7784 287.927 74.9418 288.05 75.0713C288.173 75.2007 288.333 75.2902 288.507 75.3282C288.682 75.3662 288.864 75.351 289.03 75.2845C289.196 75.2181 289.338 75.1034 289.438 74.9553C289.538 74.8072 289.592 74.6325 289.592 74.4538C289.597 74.2227 289.51 73.9991 289.351 73.8318C289.191 73.6645 288.972 73.5672 288.741 73.5611Z" fill="#01265A"/>
<path d="M297.883 91.9223C297.883 91.5691 297.995 91.2249 298.202 90.9391C298.41 90.6534 298.702 90.4407 299.038 90.3317C298.239 89.4778 297.084 90.4208 297.084 90.4208C297.084 90.4208 294.587 88.4556 294.427 92.5023C294.369 93.9683 295.616 95.1596 297.084 95.1596C298.161 95.1596 299.158 94.5153 299.559 93.5921H299.549C299.107 93.5906 298.684 93.414 298.371 93.1011C298.059 92.7882 297.884 92.3643 297.883 91.9223ZM297.105 89.5356C297.105 89.5356 298.557 89.3607 298.169 87.846C298.169 87.846 296.927 88.2131 297.105 89.5356Z" fill="#647EBC"/>
<path d="M310.398 83.0898H305.246C304.587 83.0898 304.052 83.6242 304.052 84.2835V97.6568C304.052 98.3161 304.587 98.8506 305.246 98.8506H310.398C311.057 98.8506 311.591 98.3161 311.591 97.6568V84.2835C311.591 83.6242 311.057 83.0898 310.398 83.0898Z" fill="#1D2970"/>
<path d="M310.398 83.0898H306.363C305.704 83.0898 305.17 83.6242 305.17 84.2835V97.6568C305.17 98.3161 305.704 98.8506 306.363 98.8506H310.398C311.057 98.8506 311.591 98.3161 311.591 97.6568V84.2835C311.591 83.6242 311.057 83.0898 310.398 83.0898Z" fill="#203592"/>
<path d="M281.089 86.4517H309.393V96.2114H281.089V86.4517Z" fill="#203592"/>
<path d="M317.25 43.5344C311.823 40.2212 305.991 38.5423 299.913 38.5423C293.835 38.5423 288.002 40.2212 282.576 43.5344C277.709 46.5044 273.405 50.6558 269.789 55.8739C262.89 65.8201 259.095 78.8453 259.095 92.5518C259.095 106.258 262.894 119.282 269.788 129.23C273.407 134.448 277.708 138.602 282.576 141.572C288.002 144.882 293.835 146.561 299.912 146.561C305.989 146.561 311.823 144.882 317.25 141.572C322.117 138.602 326.423 134.448 330.037 129.23C336.932 119.284 340.73 106.258 340.73 92.5518C340.73 78.8453 336.935 65.8218 330.037 55.8739C326.424 50.655 322.119 46.5044 317.25 43.5344ZM299.913 135.548C283.452 135.548 270.104 116.296 270.104 92.5485C270.104 68.8009 283.452 49.5487 299.913 49.5487C316.374 49.5487 329.723 68.8009 329.723 92.5485C329.723 116.296 316.378 135.548 299.913 135.548Z" fill="#E48000"/>
<path d="M314.984 43.5344C309.557 40.2212 303.724 38.5423 297.646 38.5423C291.569 38.5423 285.736 40.2212 280.31 43.5344C275.442 46.5044 271.139 50.6558 267.522 55.8739C260.629 65.8201 256.83 78.8453 256.83 92.5518C256.83 106.258 260.625 119.282 267.522 129.23C271.142 134.448 275.442 138.602 280.31 141.572C285.736 144.882 291.569 146.561 297.646 146.561C303.723 146.561 309.557 144.882 314.984 141.572C319.851 138.602 324.157 134.448 327.771 129.23C334.667 119.284 338.464 106.258 338.464 92.5518C338.464 78.8453 334.669 65.8218 327.771 55.8739C324.157 50.655 319.852 46.5044 314.984 43.5344ZM297.646 135.548C281.185 135.548 267.838 116.296 267.838 92.5485C267.838 68.8009 281.185 49.5487 297.646 49.5487C314.108 49.5487 327.456 68.8009 327.456 92.5485C327.456 116.296 314.111 135.548 297.646 135.548Z" fill="#FFB900"/>
<path d="M312.946 46.8682C312.588 46.6482 312.227 46.4376 311.865 46.2363C311.683 46.1346 311.482 46.0698 311.275 46.0456C311.068 46.0214 310.858 46.0382 310.657 46.0952C310.456 46.1522 310.269 46.2481 310.105 46.3775C309.941 46.507 309.805 46.6674 309.703 46.8496C309.601 47.0319 309.537 47.2323 309.512 47.4396C309.488 47.6469 309.505 47.8569 309.562 48.0576C309.619 48.2584 309.715 48.446 309.844 48.6096C309.974 48.7733 310.134 48.9099 310.316 49.0116C314.653 51.4272 318.602 55.11 321.938 59.9189C328.015 68.6878 331.365 80.2774 331.365 92.5535C331.365 94.0154 331.317 95.4665 331.223 96.907C331.208 97.1228 331.238 97.3393 331.309 97.5433C331.381 97.7472 331.494 97.9344 331.641 98.0933C331.788 98.2522 331.965 98.3794 332.163 98.4672C332.361 98.5551 332.574 98.6016 332.79 98.604H332.807C333.214 98.6091 333.607 98.458 333.906 98.1818C334.205 97.9055 334.387 97.5252 334.414 97.119C334.513 95.6093 334.562 94.0871 334.562 92.5526C334.562 79.6339 331.011 67.3967 324.564 58.0989C321.259 53.3346 317.352 49.5569 312.946 46.8682ZM331.581 104.553H331.566C331.202 104.553 330.849 104.677 330.567 104.906C330.284 105.135 330.089 105.454 330.013 105.81C328.896 111.156 327.104 116.18 324.696 120.667C324.517 121.001 324.463 121.389 324.545 121.759C324.627 122.129 324.839 122.458 325.143 122.685L325.156 122.694C325.338 122.831 325.548 122.928 325.77 122.977C325.993 123.025 326.224 123.026 326.447 122.977C326.67 122.929 326.88 122.833 327.062 122.696C327.245 122.559 327.396 122.385 327.505 122.184C330.062 117.426 331.96 112.107 333.139 106.46C333.187 106.229 333.182 105.99 333.125 105.761C333.069 105.532 332.962 105.319 332.813 105.136C332.664 104.954 332.476 104.807 332.263 104.706C332.05 104.605 331.817 104.553 331.581 104.553Z" fill="#F5EF7D"/>
<path d="M341.213 73.7615C339.547 73.1971 337.75 73.1396 336.051 73.5963C334.352 74.0529 332.826 75.0032 331.667 76.3269C330.507 77.6507 329.767 79.2885 329.538 81.0332C329.31 82.7779 329.604 84.5511 330.383 86.1287C331.162 87.7063 332.392 89.0174 333.917 89.8961C335.441 90.7749 337.192 91.1819 338.948 91.0656C340.703 90.9494 342.385 90.3151 343.78 89.243C345.176 88.1709 346.222 86.7091 346.786 85.0426C347.543 82.8076 347.381 80.3635 346.336 78.2479C345.291 76.1324 343.448 74.5186 341.213 73.7615Z" fill="#FF4D4D"/>
<path d="M341.393 78.9458C340.369 79.3913 339.455 80.0958 338.851 81.0223C338.811 80.1738 338.542 79.3519 338.074 78.643C337.497 77.7982 336.488 77.3387 335.477 77.3973C334.467 77.4558 333.541 78.0498 333.234 79.0473C332.867 80.2452 333.373 81.547 333.894 82.6171C334.257 83.3601 334.651 84.0872 335.075 84.7983C335.466 85.4584 336.53 87.0019 336.707 86.9376C338.052 86.4508 339.406 85.9187 340.68 85.2645C341.809 84.687 342.934 83.9717 343.727 82.9627C344.406 82.0998 344.865 80.854 344.398 79.7873C343.882 78.6051 342.455 78.4838 341.393 78.9458Z" fill="white"/>
<path d="M357.3 71.6475C360.628 70.6398 362.508 67.1256 361.5 63.7984C360.493 60.4711 356.978 58.5908 353.651 59.5985C350.324 60.6062 348.444 64.1204 349.451 67.4476C350.459 70.7749 353.973 72.6552 357.3 71.6475Z" fill="#0088C0"/>
<path d="M358.838 64.7774C358.866 64.567 358.85 64.4474 358.488 64.2923C357.817 64.0085 356.004 64.1545 356.004 64.1545C356.004 64.1545 355.927 64.0513 356.107 63.407C356.288 62.7627 356.752 61.7826 356.004 61.7826C355.257 61.7826 354.302 63.8195 354.096 64.0258C354.02 64.1017 352.941 64.1462 352.581 64.1718C352.614 64.8953 352.613 65.6213 352.625 66.344C352.634 66.9083 352.655 67.4809 352.638 68.0501C352.835 68.0427 353.793 68.0336 353.966 68.0229C354.74 67.9709 356.098 68.1945 356.846 68.2704C357.595 68.3463 358.187 68.0897 358.222 67.9181C358.304 67.5056 357.783 67.3505 357.783 67.3505C357.783 67.3505 358.669 67.2986 358.685 66.938C358.711 66.3878 358.119 66.3449 358.119 66.3449C358.119 66.3449 359.004 66.1469 358.823 65.6741C358.662 65.2534 358.163 65.279 358.163 65.279C358.163 65.279 358.801 65.0471 358.838 64.7774Z" fill="white"/>
<path d="M337.929 45.1752C336.934 45.1752 335.961 45.4704 335.133 46.0233C334.306 46.5763 333.661 47.3623 333.28 48.2819C332.899 49.2014 332.799 50.2133 332.993 51.1895C333.188 52.1657 333.667 53.0624 334.371 53.7662C335.074 54.47 335.971 54.9493 336.947 55.1435C337.924 55.3377 338.935 55.238 339.855 54.8571C340.775 54.4762 341.561 53.8312 342.114 53.0036C342.667 52.176 342.962 51.203 342.962 50.2077C342.962 48.873 342.431 47.593 341.488 46.6492C340.544 45.7054 339.264 45.1752 337.929 45.1752Z" fill="#FF4D4D"/>
<path d="M338.965 47.9184C338.49 48.3356 338.148 48.882 337.98 49.4908C337.804 49.044 337.511 48.6527 337.132 48.3581C336.902 48.1899 336.633 48.0835 336.35 48.0491C336.067 48.0148 335.78 48.0535 335.516 48.1618C334.983 48.3771 334.598 48.863 334.615 49.4529C334.635 50.1607 335.142 50.7663 335.616 51.244C335.946 51.574 336.289 51.8921 336.644 52.1985C336.974 52.479 337.823 53.1134 337.906 53.0474C338.548 52.5479 339.157 52.0081 339.73 51.4312C340.225 50.9164 340.702 50.3307 340.944 49.6468C341.151 49.061 341.171 48.3111 340.727 47.8243C340.235 47.2848 339.45 47.4787 338.965 47.9184Z" fill="white"/>
<path d="M253.881 70.644C252.73 71.115 251.746 71.9164 251.051 72.9471C250.356 73.9777 249.983 75.1912 249.978 76.434C249.973 77.6769 250.336 78.8934 251.023 79.9296C251.709 80.9658 252.687 81.7752 253.834 82.2554C254.98 82.7356 256.243 82.8651 257.463 82.6275C258.683 82.3899 259.805 81.7959 260.687 80.9206C261.57 80.0452 262.173 78.9279 262.42 77.7099C262.667 76.4918 262.548 75.2278 262.077 74.0777C261.445 72.5355 260.227 71.3073 258.69 70.6634C257.153 70.0195 255.423 70.0125 253.881 70.644Z" fill="#0088C0"/>
<path d="M259.71 76.4321C259.526 75.914 258.962 76.1021 258.962 76.1021C258.962 76.1021 259.704 75.5848 259.359 75.2161C259.052 74.886 258.598 75.1014 258.598 75.1014C258.598 75.1014 259.103 74.6418 259.034 74.3803C258.979 74.1757 258.92 74.0693 258.526 74.0644C257.799 74.0561 256.179 74.877 256.179 74.877C256.179 74.877 256.068 74.811 255.991 74.1469C255.913 73.4827 255.972 72.4028 255.281 72.6858C254.591 72.9688 254.48 75.2111 254.367 75.4801C254.326 75.5782 253.348 76.027 253.023 76.1879C253.327 76.8479 253.601 77.5153 253.886 78.1786C254.107 78.6967 254.343 79.2173 254.546 79.7461C254.725 79.6636 255.61 79.2932 255.762 79.2181C256.458 78.8782 257.797 78.5705 258.517 78.3593C259.237 78.1481 259.688 77.6853 259.655 77.5129C259.572 77.1004 259.035 77.1548 259.035 77.1548C259.035 77.1548 259.831 76.772 259.71 76.4321Z" fill="white"/>
<path d="M244.348 95.2661C247.052 95.2661 249.244 93.0742 249.244 90.3705C249.244 87.6668 247.052 85.475 244.348 85.475C241.644 85.475 239.453 87.6668 239.453 90.3705C239.453 93.0742 241.644 95.2661 244.348 95.2661Z" fill="#FF4D4D"/>
<path d="M245.357 88.1446C244.896 88.5509 244.563 89.083 244.399 89.6758C244.227 89.2409 243.943 88.8599 243.574 88.5727C243.35 88.4091 243.087 88.3056 242.812 88.2722C242.536 88.2389 242.257 88.2767 242 88.3822C241.482 88.5917 241.106 89.0644 241.123 89.6386C241.142 90.3283 241.637 90.9174 242.098 91.3827C242.419 91.7061 242.753 92.0155 243.099 92.3108C243.419 92.5839 244.246 93.2026 244.327 93.1358C244.951 92.6496 245.544 92.1244 246.102 91.5634C246.588 91.0618 247.049 90.4909 247.284 89.8259C247.485 89.2558 247.505 88.5257 247.073 88.0522C246.594 87.5324 245.828 87.7172 245.357 88.1446Z" fill="white"/>
<path d="M276.284 1.67622e-06H221.052C220.625 1.67622e-06 220.202 0.0841643 219.807 0.247683C219.412 0.411202 219.054 0.650874 218.752 0.953018C218.449 1.25516 218.21 1.61386 218.046 2.00863C217.883 2.4034 217.798 2.82651 217.798 3.25381V21.1605C217.798 21.5877 217.883 22.0109 218.046 22.4056C218.21 22.8004 218.449 23.1591 218.752 23.4612C219.054 23.7634 219.412 24.0031 219.807 24.1666C220.202 24.3301 220.625 24.4143 221.052 24.4143H244.235L247.424 28.3693C247.637 28.6324 247.905 28.8447 248.21 28.9905C248.515 29.1364 248.849 29.2121 249.187 29.2121C249.525 29.2121 249.859 29.1364 250.164 28.9905C250.469 28.8447 250.737 28.6324 250.95 28.3693L254.145 24.4143H276.288C277.151 24.4143 277.978 24.0714 278.589 23.4612C279.199 22.851 279.542 22.0234 279.542 21.1605V3.25793C279.542 2.83001 279.458 2.40619 279.295 2.01072C279.131 1.61526 278.891 1.25593 278.589 0.953307C278.286 0.650683 277.927 0.410712 277.532 0.247129C277.136 0.0835468 276.712 -0.000432665 276.284 1.67622e-06Z" fill="#ED2B47"/>
<path d="M239.895 6.21797H237.303V17.3538H244.691V15.3656H239.895V6.21797ZM245.961 6.21797H248.538V17.3538H245.961V6.21797ZM254.657 14.3632L254.58 14.7378H254.534L254.458 14.3327L252.279 6.21797H249.578L253.173 17.3538H255.965L259.575 6.21797H256.867L254.657 14.3632ZM260.439 17.3538H268.179V15.3656H263.032V12.5886H267.399V10.6004H263.032V8.20622H268.195V6.21797H260.439V17.3538Z" fill="white"/>
<path d="M228.909 15.052C230.335 14.8204 231.304 13.4762 231.072 12.0496C230.841 10.623 229.497 9.65426 228.07 9.88583C226.643 10.1174 225.675 11.4616 225.906 12.8882C226.138 14.3148 227.482 15.2836 228.909 15.052Z" fill="white"/>
<path d="M108.756 30.298C108.717 30.0483 108.679 29.8008 108.64 29.5555C108.595 29.308 108.521 29.0737 108.462 28.8345C107.479 25.004 105.119 22.1743 102.783 20.5548C101.743 19.8075 100.605 19.2075 99.4002 18.772L98.6396 18.4989L97.9169 18.3157L97.2569 18.1507C97.0449 18.1103 96.8444 18.088 96.648 18.0583C96.2636 18.0097 95.9253 17.9437 95.6292 17.9288L94.8809 17.9032L94.4238 17.8933C94.3724 17.8889 94.3205 17.8908 94.2696 17.8991C94.1873 17.8902 94.1045 17.8888 94.0221 17.895L93.2795 17.9156C93.1145 17.923 92.9347 17.923 92.7351 17.9395L92.0833 18.0311L91.3226 18.1408L90.4737 18.3512C89.0115 18.7202 87.6199 19.3269 86.3545 20.1472C84.4819 21.3378 82.9067 22.9413 81.7497 24.8348C80.5926 26.7283 79.8845 28.8615 79.6794 31.0711C79.6547 31.7236 79.5763 32.3911 79.639 33.0626C79.6621 33.3992 79.6555 33.7416 79.705 34.0815C79.7545 34.4214 79.8073 34.7629 79.8593 35.107C80.1373 36.4674 80.5424 37.8616 81.2436 39.1594C81.9449 40.4952 82.8364 41.7221 83.8902 42.8018C85.0126 43.9055 86.2988 44.8291 87.7034 45.5399C89.1568 46.2858 90.7306 46.769 92.3522 46.9672C92.759 47.0497 93.1773 47.0497 93.5898 47.072C94.007 47.1032 94.4256 47.1109 94.8437 47.0951C95.688 47.0607 96.5279 46.9547 97.3542 46.7783C99.1077 46.3996 100.777 45.7025 102.279 44.7215L107.295 46.7337L107.597 46.8542L107.514 46.5415C107.008 44.699 106.515 42.909 106.037 41.1716C107.394 39.3546 108.308 37.2465 108.708 35.0146C108.903 33.9645 108.969 32.8946 108.906 31.8284C108.895 31.3152 108.844 30.8036 108.756 30.298Z" fill="#F26122"/>
<path d="M101.797 30.5249C101.43 30.5249 101.072 30.6336 100.767 30.8372C100.463 31.0408 100.225 31.3302 100.085 31.6687C99.9448 32.0073 99.9081 32.3799 99.9796 32.7393C100.051 33.0988 100.228 33.4289 100.487 33.6881C100.746 33.9472 101.076 34.1237 101.435 34.1952C101.795 34.2667 102.167 34.23 102.506 34.0897C102.845 33.9495 103.134 33.712 103.338 33.4073C103.541 33.1026 103.65 32.7443 103.65 32.3778C103.65 32.1345 103.602 31.8936 103.509 31.6687C103.416 31.4439 103.279 31.2397 103.107 31.0676C102.935 30.8955 102.731 30.7591 102.506 30.6659C102.281 30.5728 102.04 30.5249 101.797 30.5249Z" fill="white"/>
<path d="M94.383 34.234C95.4064 34.234 96.236 33.4044 96.236 32.381C96.236 31.3577 95.4064 30.5281 94.383 30.5281C93.3597 30.5281 92.5301 31.3577 92.5301 32.381C92.5301 33.4044 93.3597 34.234 94.383 34.234Z" fill="white"/>
<path d="M87.667 30.7766C87.3497 30.5933 86.9851 30.5083 86.6194 30.5323C86.2537 30.5562 85.9033 30.6881 85.6125 30.9112C85.3218 31.1343 85.1037 31.4386 84.9859 31.7856C84.8681 32.1326 84.8558 32.5068 84.9506 32.8608C85.0455 33.2148 85.2432 33.5327 85.5187 33.7744C85.7942 34.016 86.1353 34.1705 86.4986 34.2184C86.862 34.2662 87.2313 34.2052 87.56 34.0431C87.8887 33.881 88.162 33.6251 88.3452 33.3077C88.5907 32.8821 88.6571 32.3764 88.53 31.9018C88.4028 31.4272 88.0924 31.0225 87.667 30.7766Z" fill="white"/>
<path d="M326.041 187.341H30.3607C29.3253 187.341 28.3 187.545 27.3434 187.941C26.3868 188.337 25.5176 188.918 24.7855 189.65C24.0534 190.383 23.4726 191.252 23.0764 192.208C22.6801 193.165 22.4762 194.19 22.4762 195.226V198H333.922V195.226C333.923 193.135 333.092 191.13 331.614 189.651C330.136 188.173 328.132 187.342 326.041 187.341Z" fill="#FFA186"/>
</svg>
