<svg width="28" height="28" viewBox="0 0 28 28" fill="none" xmlns="http://www.w3.org/2000/svg">
<path d="M22.9048 9.32948C22.92 9.53364 22.92 9.73664 22.92 9.93964C22.92 16.1521 18.1915 23.3108 9.55001 23.3108C6.88767 23.3108 4.41434 22.5396 2.33301 21.2003C2.71101 21.2435 3.07501 21.2586 3.46817 21.2586C5.58333 21.2638 7.63859 20.5565 9.30267 19.2508C8.322 19.2331 7.37135 18.9095 6.58345 18.3253C5.79556 17.7412 5.20976 16.9255 4.90784 15.9923C5.19834 16.0355 5.49001 16.0646 5.79567 16.0646C6.21684 16.0646 6.64034 16.0063 7.03351 15.9048C5.96923 15.6899 5.01223 15.1131 4.32523 14.2723C3.63823 13.4315 3.26365 12.3787 3.26517 11.293V11.2346C3.89167 11.5835 4.61851 11.8016 5.38851 11.8308C4.74344 11.4022 4.21451 10.8205 3.8489 10.1377C3.48329 9.45496 3.29237 8.69231 3.29317 7.91781C3.29317 7.04514 3.52534 6.24481 3.93251 5.54714C5.11334 6.99967 6.58609 8.18797 8.2554 9.03508C9.9247 9.88219 11.7533 10.3692 13.6228 10.4646C13.5505 10.1146 13.5062 9.75181 13.5062 9.38781C13.5059 8.7706 13.6272 8.15938 13.8633 7.58909C14.0993 7.0188 14.4455 6.50063 14.8819 6.0642C15.3183 5.62776 15.8365 5.28162 16.4068 5.04557C16.9771 4.80951 17.5883 4.68817 18.2055 4.68848C19.5588 4.68848 20.7803 5.25548 21.639 6.17248C22.6911 5.96903 23.7 5.58497 24.621 5.03731C24.2703 6.12326 23.5357 7.0441 22.5548 7.62731C23.4879 7.52089 24.3998 7.2755 25.2603 6.89931C24.6177 7.83626 23.8213 8.65788 22.9048 9.32948Z" fill="#212121"/>
</svg>
