<svg width="36" height="36" viewBox="0 0 36 36" fill="none" xmlns="http://www.w3.org/2000/svg">
<path d="M29.25 1.5L27.615 5.115L24 6.75L27.615 8.385L29.25 12L30.9 8.385L34.5 6.75L30.9 5.115L29.25 1.5ZM18 3C9.75 3 3 9.75 3 18V33H33V18C33 15.795 32.505 13.695 31.65 11.805L29.79 15.885C29.91 16.575 30 17.25 30 18C30 24.645 24.645 30 18 30C11.355 30 6 24.645 6 18V17.805C7.93141 17.0815 9.69286 15.9674 11.1743 14.5324C12.6557 13.0975 13.8253 11.3724 14.61 9.465C16.0169 11.1947 17.7917 12.589 19.8052 13.5465C21.8187 14.5039 24.0204 15.0005 26.25 15C26.9173 14.9994 27.5837 14.9543 28.245 14.865L26.025 9.975L18.9 6.75L24.195 4.35C22.305 3.495 20.205 3 18 3ZM13.5 17.625C13.0027 17.625 12.5258 17.8225 12.1742 18.1742C11.8225 18.5258 11.625 19.0027 11.625 19.5C11.625 19.9973 11.8225 20.4742 12.1742 20.8258C12.5258 21.1775 13.0027 21.375 13.5 21.375C13.7462 21.375 13.99 21.3265 14.2175 21.2323C14.445 21.138 14.6517 20.9999 14.8258 20.8258C14.9999 20.6517 15.138 20.445 15.2323 20.2175C15.3265 19.99 15.375 19.7462 15.375 19.5C15.375 19.2538 15.3265 19.01 15.2323 18.7825C15.138 18.555 14.9999 18.3483 14.8258 18.1742C14.6517 18.0001 14.445 17.862 14.2175 17.7677C13.99 17.6735 13.7462 17.625 13.5 17.625ZM22.5 17.625C22.0027 17.625 21.5258 17.8225 21.1742 18.1742C20.8225 18.5258 20.625 19.0027 20.625 19.5C20.625 19.9973 20.8225 20.4742 21.1742 20.8258C21.5258 21.1775 22.0027 21.375 22.5 21.375C22.9973 21.375 23.4742 21.1775 23.8258 20.8258C24.1775 20.4742 24.375 19.9973 24.375 19.5C24.375 19.0027 24.1775 18.5258 23.8258 18.1742C23.4742 17.8225 22.9973 17.625 22.5 17.625Z" fill="white"/>
</svg>
