<svg width="28" height="28" viewBox="0 0 28 28" fill="none" xmlns="http://www.w3.org/2000/svg">
<path fill-rule="evenodd" clip-rule="evenodd" d="M11.5759 25.443C7.1262 25.443 3.3252 24.7699 3.3252 22.0749C3.3252 19.3799 7.1017 16.9287 11.5759 16.9287C16.0255 16.9287 19.8265 19.3565 19.8265 22.0504C19.8265 24.7442 16.05 25.443 11.5759 25.443Z" stroke="#212121" stroke-width="1.5" stroke-linecap="round" stroke-linejoin="round"/>
<path fill-rule="evenodd" clip-rule="evenodd" d="M11.5756 13.0858C14.4958 13.0858 16.8641 10.7175 16.8641 7.79729C16.8641 4.87596 14.4958 2.50879 11.5756 2.50879C8.65548 2.50879 6.28714 4.87596 6.28714 7.79729C6.27664 10.707 8.62864 13.0753 11.5383 13.0858H11.5756Z" stroke="#212121" stroke-width="1.5" stroke-linecap="round" stroke-linejoin="round"/>
<path d="M22.3197 9.48438V14.1627" stroke="#212121" stroke-width="1.5" stroke-linecap="round" stroke-linejoin="round"/>
<path d="M24.7072 11.8236H19.9355" stroke="#212121" stroke-width="1.5" stroke-linecap="round" stroke-linejoin="round"/>
</svg>
