<svg width="20" height="20" viewBox="0 0 20 20" fill="none" xmlns="http://www.w3.org/2000/svg">
<path fill-rule="evenodd" clip-rule="evenodd" d="M8.16972 12.7106C8.69011 13.0633 9.32434 13.2766 9.99923 13.2766C11.7881 13.2766 13.2436 11.8081 13.2436 10.0032C13.2436 9.32221 13.0321 8.68228 12.6825 8.15721L11.7962 9.05147C11.9426 9.33041 12.0239 9.65858 12.0239 10.0032C12.0239 11.1271 11.1132 12.046 9.99923 12.046C9.65772 12.046 9.33247 11.964 9.05601 11.8163L8.16972 12.7106ZM15.3577 5.45801C16.5367 6.54097 17.5368 8.00132 18.2849 9.75703C18.3499 9.91291 18.3499 10.0934 18.2849 10.2411C16.5448 14.3268 13.4468 16.7717 9.99923 16.7717H9.9911C8.42178 16.7717 6.91752 16.2548 5.59214 15.3113L4.0147 16.9029C3.89273 17.026 3.73824 17.0834 3.58375 17.0834C3.42926 17.0834 3.26663 17.026 3.1528 16.9029C2.94952 16.6978 2.91699 16.3696 3.07962 16.1317L3.10401 16.0989L15.13 3.96484L15.13 3.96483C15.1463 3.94843 15.1625 3.93202 15.1706 3.91561L15.1706 3.91561C15.1869 3.8992 15.2032 3.8828 15.2113 3.86639L15.9756 3.09519C16.2196 2.85727 16.6017 2.85727 16.8375 3.09519C17.0815 3.33311 17.0815 3.72692 16.8375 3.96484L15.3577 5.45801ZM6.74896 10.0064C6.74896 10.2197 6.77336 10.433 6.80588 10.6299L3.79735 13.6654C2.98424 12.7138 2.27683 11.5652 1.71578 10.2443C1.65073 10.0966 1.65073 9.91611 1.71578 9.76023C3.45585 5.67452 6.55381 3.23786 9.99329 3.23786H10.0014C11.1642 3.23786 12.2944 3.51681 13.3352 4.04188L10.6194 6.78209C10.4242 6.74928 10.2128 6.72466 10.0014 6.72466C8.20444 6.72466 6.74896 8.19322 6.74896 10.0064Z" fill="#9E9E9E"/>
</svg>
