<svg width="20" height="20" viewBox="0 0 20 20" fill="none" xmlns="http://www.w3.org/2000/svg">
<path fill-rule="evenodd" clip-rule="evenodd" d="M7.39844 5.31547C7.39844 6.87102 6.11604 8.13184 4.53272 8.13184C2.95032 8.13184 1.66699 6.87102 1.66699 5.31547C1.66699 3.76082 2.95032 2.5 4.53272 2.5C6.11604 2.5 7.39844 3.76082 7.39844 5.31547ZM17.0781 4.08194C17.7707 4.08194 18.3337 4.63502 18.3337 5.31547C18.3337 5.99682 17.7707 6.54991 17.0781 6.54991H11.5985C10.905 6.54991 10.342 5.99682 10.342 5.31547C10.342 4.63502 10.905 4.08194 11.5985 4.08194H17.0781ZM2.92347 13.2983H8.40307C9.09658 13.2983 9.65954 13.8514 9.65954 14.5327C9.65954 15.2132 9.09658 15.7672 8.40307 15.7672H2.92347C2.22995 15.7672 1.66699 15.2132 1.66699 14.5327C1.66699 13.8514 2.22995 13.2983 2.92347 13.2983ZM15.4679 17.3148C17.0513 17.3148 18.3337 16.054 18.3337 14.4993C18.3337 12.9438 17.0513 11.683 15.4679 11.683C13.8855 11.683 12.6022 12.9438 12.6022 14.4993C12.6022 16.054 13.8855 17.3148 15.4679 17.3148Z" fill="#FF4D00"/>
</svg>
