<svg width="20" height="20" viewBox="0 0 20 20" fill="none" xmlns="http://www.w3.org/2000/svg">
<path fill-rule="evenodd" clip-rule="evenodd" d="M13.4649 6.86087C13.4649 8.81894 11.904 10.389 9.9572 10.389C8.01044 10.389 6.44946 8.81894 6.44946 6.86087C6.44946 4.90205 8.01044 3.3335 9.9572 3.3335C11.904 3.3335 13.4649 4.90205 13.4649 6.86087ZM9.9572 16.6668C7.09788 16.6668 4.65641 16.2135 4.65641 14.4003C4.65641 12.5863 7.08221 12.1165 9.9572 12.1165C12.8165 12.1165 15.258 12.5698 15.258 14.3838C15.258 16.197 12.8322 16.6668 9.9572 16.6668ZM14.9639 6.92452C14.9639 7.92269 14.6662 8.85256 14.1439 9.62559C14.0902 9.70514 14.1379 9.81246 14.2327 9.82897C14.3633 9.85149 14.4983 9.86425 14.6356 9.868C16.0048 9.90402 17.2338 9.01768 17.5733 7.68328C18.0762 5.70119 16.5995 3.92174 14.7192 3.92174C14.5147 3.92174 14.3192 3.94351 14.129 3.98253C14.1028 3.98854 14.0752 4.00055 14.0603 4.02381C14.0424 4.05233 14.0558 4.09061 14.0737 4.11537C14.6386 4.91166 14.9639 5.88281 14.9639 6.92452ZM17.2315 11.2606C18.1516 11.4415 18.7567 11.8108 19.0074 12.3474C19.2193 12.7879 19.2193 13.299 19.0074 13.7388C18.6239 14.5711 17.3875 14.8383 16.9069 14.9073C16.8077 14.9224 16.7279 14.836 16.7383 14.7362C16.9838 12.4299 15.0311 11.3364 14.5259 11.085C14.5043 11.0738 14.4998 11.0565 14.502 11.046C14.5035 11.0385 14.5125 11.0265 14.5289 11.0242C15.622 11.004 16.7973 11.1541 17.2315 11.2606ZM5.36393 9.86792C5.50123 9.86417 5.63554 9.85216 5.76686 9.8289C5.86163 9.81239 5.90938 9.70506 5.85566 9.62551C5.33334 8.85249 5.03562 7.92261 5.03562 6.92444C5.03562 5.88274 5.36095 4.91158 5.9258 4.1153C5.94371 4.09053 5.95639 4.05226 5.93923 4.02374C5.92431 4.00122 5.89595 3.98846 5.87058 3.98246C5.67956 3.94343 5.48407 3.92167 5.27962 3.92167C3.39927 3.92167 1.9226 5.70112 2.42627 7.6832C2.76577 9.0176 3.99471 9.90395 5.36393 9.86792ZM5.49712 11.0455C5.49936 11.0568 5.49488 11.0733 5.47399 11.0853C4.96809 11.3367 3.01537 12.4302 3.26085 14.7358C3.2713 14.8363 3.19221 14.9219 3.09297 14.9076C2.61243 14.8386 1.37603 14.5714 0.992501 13.7391C0.779843 13.2986 0.779843 12.7882 0.992501 12.3477C1.24321 11.8111 1.84761 11.4418 2.76764 11.2602C3.20265 11.1544 4.37712 11.0043 5.47101 11.0245C5.48742 11.0268 5.49563 11.0388 5.49712 11.0455Z" fill="white"/>
</svg>
