<svg width="54" height="54" viewBox="0 0 54 54" fill="none" xmlns="http://www.w3.org/2000/svg">
<path d="M53.9996 20.9998V0H32.9998L41.3787 8.37894L28.4128 21.3448C25.3763 19.1698 21.735 18 17.9999 17.9999C8.07294 17.9999 0 26.0728 0 35.9997C0 45.9267 8.07294 53.9996 17.9999 53.9996C27.9268 53.9996 35.9997 45.9267 35.9997 35.9997C35.9997 32.1178 34.7517 28.5298 32.6548 25.5868L45.6207 12.6209L53.9996 20.9998ZM17.9999 47.9996C11.3819 47.9996 5.99996 42.6177 5.99996 35.9997C5.99996 29.3818 11.3819 23.9998 17.9999 23.9998C24.6178 23.9998 29.9998 29.3818 29.9998 35.9997C29.9998 42.6177 24.6178 47.9996 17.9999 47.9996Z" fill="white"/>
</svg>
