<svg width="28" height="28" viewBox="0 0 28 28" fill="none" xmlns="http://www.w3.org/2000/svg">
<path d="M15.1667 17.2667C15.1667 16.7512 14.7488 16.3333 14.2333 16.3333H12.8333C10.9195 16.3326 9.04194 16.855 7.40352 17.8441C6.03581 18.6697 4.87822 19.7943 4.0148 21.1287C3.86569 21.3591 3.49986 21.2745 3.5 21C3.5 14.8706 8.22632 9.8455 14.2335 9.37011C14.7473 9.32945 15.1667 8.91547 15.1667 8.4V5.44192C15.1667 4.65932 16.0719 4.22422 16.683 4.71311L25.9223 12.1045C26.3894 12.4782 26.3894 13.1885 25.9223 13.5621L16.683 20.9536C16.0719 21.4425 15.1667 21.0074 15.1667 20.2248V17.2667Z" fill="#212121"/>
</svg>
