<svg width="35" height="35" viewBox="0 0 35 35" fill="none" xmlns="http://www.w3.org/2000/svg">
<path fill-rule="evenodd" clip-rule="evenodd" d="M24.3029 2.93173C26.4007 2.80061 28.4695 3.52903 30.0283 4.95672C31.456 6.51552 32.1844 8.58421 32.0678 10.6966V24.3034C32.199 26.4158 31.456 28.4845 30.0428 30.0433C28.484 31.471 26.4007 32.1994 24.3029 32.0683H10.696C8.58362 32.1994 6.51491 31.471 4.95609 30.0433C3.52839 28.4845 2.79997 26.4158 2.93109 24.3034V10.6966C2.79997 8.58421 3.52839 6.51552 4.95609 4.95672C6.51491 3.52903 8.58362 2.80061 10.696 2.93173H24.3029ZM16.013 24.5656L25.8175 14.732C26.7062 13.8288 26.7062 12.372 25.8175 11.4833L23.9236 9.58941C23.0204 8.68618 21.5635 8.68618 20.6603 9.58941L19.6842 10.5801C19.5385 10.7257 19.5385 10.9734 19.6842 11.1191C19.6842 11.1191 22.0006 13.4209 22.0443 13.4791C22.2046 13.654 22.3065 13.887 22.3065 14.1493C22.3065 14.6737 21.8841 15.1108 21.345 15.1108C21.0974 15.1108 20.8643 15.0088 20.704 14.8486L18.2711 12.4302C18.1545 12.3137 17.9506 12.3137 17.834 12.4302L10.8849 19.3793C10.4042 19.86 10.1274 20.501 10.1128 21.1858L10.0254 24.6384C10.0254 24.8278 10.0837 25.0026 10.2148 25.1337C10.3459 25.2649 10.5207 25.3377 10.7101 25.3377H14.1337C14.833 25.3377 15.5031 25.0609 16.013 24.5656Z" fill="#FF4D00"/>
</svg>
