<svg width="20" height="20" viewBox="0 0 20 20" fill="none" xmlns="http://www.w3.org/2000/svg">
<path fill-rule="evenodd" clip-rule="evenodd" d="M12.8652 10.415C12.8652 8.96763 11.6915 7.79395 10.2441 7.79395C8.79673 7.79395 7.62305 8.96763 7.62305 10.415C7.62305 11.8624 8.79673 13.0361 10.2441 13.0361C11.6915 13.0361 12.8652 11.8624 12.8652 10.415Z" stroke="#9E9E9E" stroke-width="1.5" stroke-linecap="round" stroke-linejoin="round"/>
<path fill-rule="evenodd" clip-rule="evenodd" d="M10.2438 16.8337C16.9482 16.8337 17.7465 14.8249 17.7465 10.4723C17.7465 7.42137 17.343 5.78892 14.8017 5.08716C14.5684 5.01348 14.3096 4.87313 14.1 4.64243C13.7614 4.27138 13.514 3.1319 12.6965 2.78716C11.8789 2.44331 8.5956 2.45909 7.79121 2.78716C6.9877 3.11611 6.7263 4.27138 6.3877 4.64243C6.17805 4.87313 5.92016 5.01348 5.68595 5.08716C3.14472 5.78892 2.74121 7.42137 2.74121 10.4723C2.74121 14.8249 3.53946 16.8337 10.2438 16.8337Z" stroke="#9E9E9E" stroke-width="1.5" stroke-linecap="round" stroke-linejoin="round"/>
<path d="M14.3367 7.50065H14.3442" stroke="#9E9E9E" stroke-width="1.5" stroke-linecap="round" stroke-linejoin="round"/>
</svg>
