<svg width="36" height="36" viewBox="0 0 36 36" fill="none" xmlns="http://www.w3.org/2000/svg">
<g clip-path="url(#clip0_1269_22853)">
<path d="M12 25.5C11.175 25.5 10.469 25.2065 9.882 24.6195C9.294 24.0315 9 23.325 9 22.5V13.5C9 12.675 9.294 11.9685 9.882 11.3805C10.469 10.7935 11.175 10.5 12 10.5H13.5L15 9H21L22.5 10.5H24C24.825 10.5 25.5315 10.7935 26.1195 11.3805C26.7065 11.9685 27 12.675 27 13.5V22.5C27 23.325 26.7065 24.0315 26.1195 24.6195C25.5315 25.2065 24.825 25.5 24 25.5H12ZM12 22.5H24V13.5H12V22.5ZM18 21C18.825 21 19.5315 20.706 20.1195 20.118C20.7065 19.531 21 18.825 21 18C21 17.175 20.7065 16.4685 20.1195 15.8805C19.5315 15.2935 18.825 15 18 15C17.175 15 16.469 15.2935 15.882 15.8805C15.294 16.4685 15 17.175 15 18C15 18.825 15.294 19.531 15.882 20.118C16.469 20.706 17.175 21 18 21ZM12.825 0.75C13.675 0.475 14.531 0.281 15.393 0.168C16.256 0.056 17.125 0 18 0C20.35 0 22.569 0.4185 24.657 1.2555C26.744 2.0935 28.594 3.256 30.207 4.743C31.819 6.231 33.1375 7.981 34.1625 9.993C35.1875 12.006 35.8 14.175 36 16.5H33C32.825 14.7 32.35 13.0185 31.575 11.4555C30.8 9.8935 29.806 8.5125 28.593 7.3125C27.381 6.1125 25.9875 5.1435 24.4125 4.4055C22.8375 3.6685 21.15 3.225 19.35 3.075L21.675 5.4L19.575 7.5L12.825 0.75ZM23.175 35.25C22.325 35.525 21.469 35.7185 20.607 35.8305C19.744 35.9435 18.875 36 18 36C15.65 36 13.431 35.5815 11.343 34.7445C9.256 33.9065 7.4065 32.7435 5.7945 31.2555C4.1815 29.7685 2.8625 28.0185 1.8375 26.0055C0.8125 23.9935 0.2 21.825 0 19.5H3C3.2 21.3 3.6815 22.9815 4.4445 24.5445C5.2065 26.1065 6.194 27.4875 7.407 28.6875C8.619 29.8875 10.0125 30.856 11.5875 31.593C13.1625 32.331 14.85 32.775 16.65 32.925L14.325 30.6L16.425 28.5L23.175 35.25Z" fill="white"/>
</g>
<defs>
<clipPath id="clip0_1269_22853">
<rect width="36" height="36" fill="white"/>
</clipPath>
</defs>
</svg>
