<svg width="28" height="28" viewBox="0 0 28 28" fill="none" xmlns="http://www.w3.org/2000/svg">
<path d="M13.9992 8.60645C12.5684 8.60645 11.1962 9.17481 10.1846 10.1865C9.17286 11.1982 8.60449 12.5704 8.60449 14.0011C8.60449 15.4319 9.17286 16.804 10.1846 17.8157C11.1962 18.8274 12.5684 19.3958 13.9992 19.3958C15.4299 19.3958 16.8021 18.8274 17.8138 17.8157C18.8255 16.804 19.3938 15.4319 19.3938 14.0011C19.3938 12.5704 18.8255 11.1982 17.8138 10.1865C16.8021 9.17481 15.4299 8.60645 13.9992 8.60645ZM13.9992 17.5046C13.0697 17.5046 12.1782 17.1354 11.521 16.4781C10.8637 15.8209 10.4945 14.9294 10.4945 13.9999C10.4945 13.0705 10.8637 12.179 11.521 11.5218C12.1782 10.8645 13.0697 10.4953 13.9992 10.4953C14.9287 10.4953 15.8201 10.8645 16.4773 11.5218C17.1346 12.179 17.5038 13.0705 17.5038 13.9999C17.5038 14.9294 17.1346 15.8209 16.4773 16.4781C15.8201 17.1354 14.9287 17.5046 13.9992 17.5046Z" fill="#FF4D00"/>
<path d="M19.6073 9.66572C20.3019 9.66572 20.8649 9.10265 20.8649 8.40806C20.8649 7.71347 20.3019 7.15039 19.6073 7.15039C18.9127 7.15039 18.3496 7.71347 18.3496 8.40806C18.3496 9.10265 18.9127 9.66572 19.6073 9.66572Z" fill="#FF4D00"/>
<path d="M23.9548 7.12953C23.6847 6.43207 23.272 5.79869 22.743 5.26993C22.214 4.74117 21.5805 4.32868 20.883 4.05886C20.0667 3.75244 19.2043 3.58676 18.3326 3.56886C17.2091 3.51986 16.8533 3.50586 14.0043 3.50586C11.1553 3.50586 10.7901 3.50586 9.67595 3.56886C8.80491 3.58584 7.94317 3.75156 7.12795 4.05886C6.43021 4.32836 5.79651 4.74074 5.26751 5.26954C4.73851 5.79834 4.32589 6.43189 4.05612 7.12953C3.74964 7.94574 3.58434 8.80817 3.56729 9.67986C3.51712 10.8022 3.50195 11.158 3.50195 14.0082C3.50195 16.8572 3.50195 17.22 3.56729 18.3365C3.58479 19.2092 3.74929 20.0702 4.05612 20.888C4.32664 21.5854 4.73967 22.2187 5.2688 22.7474C5.79792 23.2762 6.43153 23.6887 7.12912 23.9587C7.94279 24.2774 8.80489 24.455 9.67829 24.4837C10.8018 24.5327 11.1576 24.5479 14.0066 24.5479C16.8556 24.5479 17.2208 24.5479 18.335 24.4837C19.2066 24.466 20.0689 24.3007 20.8853 23.9949C21.5827 23.7244 22.216 23.3116 22.7449 22.7827C23.2738 22.2538 23.6867 21.6204 23.9571 20.923C24.264 20.1064 24.4285 19.2454 24.446 18.3727C24.4961 17.2504 24.5113 16.8945 24.5113 14.0444C24.5113 11.1942 24.5113 10.8325 24.446 9.71603C24.4324 8.83201 24.2662 7.95698 23.9548 7.12953ZM22.5338 18.2502C22.5263 18.9225 22.4035 19.5886 22.171 20.2195C21.9957 20.6732 21.7275 21.0852 21.3835 21.429C21.0395 21.7728 20.6274 22.0408 20.1736 22.2157C19.5497 22.4472 18.8907 22.5699 18.2253 22.5785C17.117 22.6299 16.8043 22.6427 13.9623 22.6427C11.118 22.6427 10.8275 22.6427 9.69812 22.5785C9.03303 22.5704 8.37433 22.4476 7.75095 22.2157C7.29559 22.0418 6.88179 21.7743 6.53632 21.4305C6.19086 21.0866 5.92143 20.6741 5.74545 20.2195C5.51614 19.5954 5.39348 18.9372 5.38262 18.2724C5.33245 17.164 5.32079 16.8514 5.32079 14.0094C5.32079 11.1662 5.32079 10.8757 5.38262 9.74519C5.39016 9.07322 5.51288 8.40752 5.74545 7.77703C6.10129 6.85653 6.83045 6.13203 7.75095 5.77969C8.37464 5.54886 9.03315 5.42615 9.69812 5.41686C10.8076 5.36669 11.1191 5.35269 13.9623 5.35269C16.8055 5.35269 17.0971 5.35269 18.2253 5.41686C18.8908 5.42487 19.5499 5.54761 20.1736 5.77969C20.6274 5.95501 21.0395 6.22326 21.3834 6.56723C21.7274 6.91119 21.9956 7.32328 22.171 7.77703C22.4003 8.40113 22.5229 9.05938 22.5338 9.72419C22.584 10.8337 22.5968 11.1452 22.5968 13.9884C22.5968 16.8304 22.5968 17.136 22.5466 18.2514H22.5338V18.2502Z" fill="#FF4D00"/>
</svg>
