<svg width="36" height="60" viewBox="0 0 36 60" fill="none" xmlns="http://www.w3.org/2000/svg">
<path d="M18.0002 0C8.07309 0 0 8.07309 0 18.0002C0 26.9013 6.50107 34.2964 15.0002 35.7304V45.0005H6.00007V51.0006H15.0002V59.9647H21.0002V51.0006H30.0003V45.0005H21.0002V35.7304C29.4993 34.2934 36.0004 26.9013 36.0004 18.0002C36.0004 8.07309 27.9273 0 18.0002 0ZM18.0002 30.0003C11.3821 30.0003 6.00007 24.6183 6.00007 18.0002C6.00007 11.3821 11.3821 6.00007 18.0002 6.00007C24.6183 6.00007 30.0003 11.3821 30.0003 18.0002C30.0003 24.6183 24.6183 30.0003 18.0002 30.0003Z" fill="#FF4D00"/>
</svg>
