<svg width="36" height="36" viewBox="0 0 36 36" fill="none" xmlns="http://www.w3.org/2000/svg">
<path d="M18 3.375C14.1212 3.375 10.4013 4.91584 7.65856 7.65856C4.91584 10.4013 3.375 14.1212 3.375 18C3.375 21.8788 4.91584 25.5987 7.65856 28.3414C10.4013 31.0842 14.1212 32.625 18 32.625C19.4589 32.629 20.9099 32.4109 22.3031 31.9781C22.482 31.9319 22.6434 31.8341 22.7672 31.6969L31.6969 22.7672C31.8311 22.641 31.9283 22.4805 31.9781 22.3031C32.4109 20.9099 32.629 19.4589 32.625 18C32.6176 14.1235 31.0743 10.4079 28.3332 7.66677C25.5921 4.92566 21.8765 3.38243 18 3.375ZM23.0625 13.5C23.3963 13.5 23.7225 13.599 24 13.7844C24.2775 13.9698 24.4938 14.2334 24.6215 14.5417C24.7493 14.8501 24.7827 15.1894 24.7176 15.5167C24.6525 15.8441 24.4917 16.1447 24.2557 16.3807C24.0197 16.6167 23.7191 16.7775 23.3917 16.8426C23.0644 16.9077 22.7251 16.8743 22.4167 16.7465C22.1084 16.6188 21.8448 16.4025 21.6594 16.125C21.474 15.8475 21.375 15.5213 21.375 15.1875C21.375 14.7399 21.5528 14.3107 21.8693 13.9943C22.1857 13.6778 22.6149 13.5 23.0625 13.5ZM12.9375 13.5C13.2713 13.5 13.5975 13.599 13.875 13.7844C14.1525 13.9698 14.3688 14.2334 14.4965 14.5417C14.6243 14.8501 14.6577 15.1894 14.5926 15.5167C14.5275 15.8441 14.3667 16.1447 14.1307 16.3807C13.8947 16.6167 13.5941 16.7775 13.2667 16.8426C12.9394 16.9077 12.6001 16.8743 12.2917 16.7465C11.9834 16.6188 11.7198 16.4025 11.5344 16.125C11.349 15.8475 11.25 15.5213 11.25 15.1875C11.25 14.7399 11.4278 14.3107 11.7443 13.9943C12.0607 13.6778 12.4899 13.5 12.9375 13.5ZM24.8203 21.9375C24.1292 23.1348 23.135 24.1291 21.9378 24.8204C20.7406 25.5117 19.3825 25.8756 18 25.8756C16.6175 25.8756 15.2594 25.5117 14.0622 24.8204C12.865 24.1291 11.8708 23.1348 11.1797 21.9375C11.0916 21.8098 11.031 21.6652 11.0015 21.5129C10.972 21.3606 10.9743 21.2038 11.0083 21.0525C11.0423 20.9011 11.1072 20.7584 11.199 20.6333C11.2908 20.5083 11.4075 20.4035 11.5417 20.3257C11.676 20.2479 11.8248 20.1987 11.979 20.1812C12.1331 20.1637 12.2892 20.1783 12.4375 20.224C12.5857 20.2697 12.7229 20.3456 12.8404 20.4468C12.9579 20.5481 13.0532 20.6726 13.1203 20.8125C13.6158 21.6679 14.3274 22.3781 15.1838 22.8718C16.0403 23.3654 17.0115 23.6253 18 23.6253C18.9885 23.6253 19.9597 23.3654 20.8162 22.8718C21.6726 22.3781 22.3842 21.6679 22.8797 20.8125C23.0404 20.5794 23.2831 20.4154 23.5594 20.3533C23.8357 20.2913 24.1252 20.3357 24.3702 20.4777C24.6152 20.6197 24.7976 20.8489 24.881 21.1195C24.9644 21.3901 24.9428 21.6822 24.8203 21.9375Z" fill="white"/>
</svg>
