<svg width="20" height="20" viewBox="0 0 20 20" fill="none" xmlns="http://www.w3.org/2000/svg">
<path fill-rule="evenodd" clip-rule="evenodd" d="M8.16972 12.7104C8.69011 13.0632 9.32434 13.2765 9.99923 13.2765C11.7881 13.2765 13.2436 11.808 13.2436 10.003C13.2436 9.32208 13.0321 8.68215 12.6825 8.15708L11.7962 9.05134C11.9426 9.33029 12.0239 9.65846 12.0239 10.003C12.0239 11.127 11.1132 12.0459 9.99923 12.0459C9.65772 12.0459 9.33247 11.9638 9.05601 11.8162L8.16972 12.7104ZM15.3577 5.45789C16.5367 6.54085 17.5368 8.0012 18.2849 9.75691C18.3499 9.91279 18.3499 10.0933 18.2849 10.241C16.5448 14.3267 13.4468 16.7715 9.99923 16.7715H9.9911C8.42178 16.7715 6.91752 16.2547 5.59214 15.3112L4.0147 16.9028C3.89273 17.0259 3.73824 17.0833 3.58375 17.0833C3.42926 17.0833 3.26663 17.0259 3.1528 16.9028C2.94952 16.6977 2.91699 16.3695 3.07962 16.1316L3.10401 16.0988L15.13 3.96472C15.1462 3.94831 15.1625 3.9319 15.1706 3.91549L15.1706 3.91549C15.1869 3.89908 15.2032 3.88267 15.2113 3.86627L15.9756 3.09507C16.2196 2.85715 16.6017 2.85715 16.8375 3.09507C17.0815 3.33299 17.0815 3.72679 16.8375 3.96472L15.3577 5.45789ZM6.74896 10.0062C6.74896 10.2195 6.77336 10.4329 6.80588 10.6298L3.79735 13.6653C2.98424 12.7136 2.27683 11.565 1.71578 10.2442C1.65073 10.0965 1.65073 9.91599 1.71578 9.76011C3.45585 5.6744 6.55381 3.23774 9.99329 3.23774H10.0014C11.1642 3.23774 12.2944 3.51668 13.3352 4.04176L10.6194 6.78197C10.4242 6.74915 10.2128 6.72454 10.0014 6.72454C8.20444 6.72454 6.74896 8.1931 6.74896 10.0062Z" fill="#9E9E9E"/>
</svg>
