<svg width="36" height="36" viewBox="0 0 36 36" fill="none" xmlns="http://www.w3.org/2000/svg">
<path d="M31.5 10.725C31.0443 10.5198 30.5383 10.4531 30.0449 10.5331C29.5515 10.6131 29.0925 10.8363 28.725 11.175L25.5 14.175V12C25.5 10.8065 25.0259 9.66193 24.182 8.81802C23.3381 7.97411 22.1935 7.5 21 7.5H7.5C6.30653 7.5 5.16193 7.97411 4.31802 8.81802C3.47411 9.66193 3 10.8065 3 12V24C3 25.1935 3.47411 26.3381 4.31802 27.182C5.16193 28.0259 6.30653 28.5 7.5 28.5H21C22.1935 28.5 23.3381 28.0259 24.182 27.182C25.0259 26.3381 25.5 25.1935 25.5 24V21.825L28.74 24.825C29.217 25.2568 29.8366 25.4972 30.48 25.5C30.837 25.4992 31.1898 25.4225 31.515 25.275C31.9574 25.096 32.3364 24.7892 32.6036 24.3938C32.8708 23.9984 33.014 23.5322 33.015 23.055V12.945C33.0128 12.466 32.8674 11.9987 32.5974 11.603C32.3274 11.2074 31.9452 10.9016 31.5 10.725Z" fill="white"/>
</svg>
