<svg width="36" height="36" viewBox="0 0 36 36" fill="none" xmlns="http://www.w3.org/2000/svg">
<path fill-rule="evenodd" clip-rule="evenodd" d="M26.2841 11.094V13.394C28.8676 14.2004 30.75 16.5392 30.75 19.3326V26.7379C30.75 30.1962 27.883 33 24.3483 33H11.6532C8.11703 33 5.25 30.1962 5.25 26.7379V19.3326C5.25 16.5392 7.13392 14.2004 9.71593 13.394V11.094C9.73117 6.62218 13.435 3 17.9771 3C22.5802 3 26.2841 6.62218 26.2841 11.094ZM18.0076 5.60857C21.1018 5.60857 23.6167 8.06807 23.6167 11.094V13.0706H12.3833V11.0642C12.3985 8.05317 14.9135 5.60857 18.0076 5.60857ZM19.3337 24.6824C19.3337 25.4128 18.7392 25.9941 17.9924 25.9941C17.2608 25.9941 16.6663 25.4128 16.6663 24.6824V21.3732C16.6663 20.6578 17.2608 20.0764 17.9924 20.0764C18.7392 20.0764 19.3337 20.6578 19.3337 21.3732V24.6824Z" fill="white"/>
</svg>
