<svg width="17" height="16" viewBox="0 0 17 16" fill="none" xmlns="http://www.w3.org/2000/svg">
<path fill-rule="evenodd" clip-rule="evenodd" d="M11.0124 8.73973C11.0124 7.27393 9.82377 6.0853 8.35798 6.0853C6.89218 6.0853 5.70355 7.27393 5.70355 8.73973C5.70355 10.2055 6.89218 11.3942 8.35798 11.3942C9.82377 11.3942 11.0124 10.2055 11.0124 8.73973Z" stroke="#FF4D00" stroke-width="1.5" stroke-linecap="round" stroke-linejoin="round"/>
<path fill-rule="evenodd" clip-rule="evenodd" d="M8.35771 15.2401C15.1475 15.2401 15.9559 13.2058 15.9559 8.79771C15.9559 5.70799 15.5472 4.05474 12.9736 3.34405C12.7373 3.26943 12.4753 3.12729 12.263 2.89365C11.92 2.51788 11.6695 1.36389 10.8416 1.01477C10.0136 0.666529 6.68848 0.68252 5.87385 1.01477C5.06011 1.3479 4.79538 2.51788 4.45247 2.89365C4.24015 3.12729 3.97898 3.26943 3.74178 3.34405C1.1682 4.05474 0.75955 5.70799 0.75955 8.79771C0.75955 13.2058 1.56796 15.2401 8.35771 15.2401Z" stroke="#FF4D00" stroke-width="1.5" stroke-linecap="round" stroke-linejoin="round"/>
<path d="M12.5027 5.78827H12.5103" stroke="#FF4D00" stroke-width="1.5" stroke-linecap="round" stroke-linejoin="round"/>
</svg>
