<svg width="28" height="28" viewBox="0 0 28 28" fill="none" xmlns="http://www.w3.org/2000/svg">
<path fill-rule="evenodd" clip-rule="evenodd" d="M11.1518 25.0323C6.86784 25.0323 3.20801 24.3848 3.20801 21.7901C3.20801 19.1954 6.84451 16.8574 11.1518 16.8574C15.4358 16.8574 19.0945 19.1733 19.0945 21.7668C19.0945 24.3603 15.4592 25.0323 11.1518 25.0323Z" stroke="#212121" stroke-width="1.5" stroke-linecap="round" stroke-linejoin="round"/>
<path fill-rule="evenodd" clip-rule="evenodd" d="M11.1519 13.1573C13.9636 13.1573 16.2432 10.8776 16.2432 8.06594C16.2432 5.25428 13.9636 2.97461 11.1519 2.97461C8.34025 2.97461 6.06058 5.25428 6.06058 8.06594C6.05008 10.8683 8.31458 13.1479 11.1157 13.1573H11.1519Z" stroke="#212121" stroke-width="1.5" stroke-linecap="round" stroke-linejoin="round"/>
<path d="M19.602 11.7591C21.2388 11.3216 22.4451 9.8294 22.4451 8.05373C22.4463 6.20107 21.1315 4.65407 19.3838 4.2959" stroke="#212121" stroke-width="1.5" stroke-linecap="round" stroke-linejoin="round"/>
<path d="M20.3711 15.9297C22.6904 15.9297 24.6714 17.5024 24.6714 18.9059C24.6714 19.733 23.9889 20.5824 22.9506 20.8262" stroke="#212121" stroke-width="1.5" stroke-linecap="round" stroke-linejoin="round"/>
</svg>
