<svg width="16" height="16" viewBox="0 0 16 16" fill="none" xmlns="http://www.w3.org/2000/svg">
<path fill-rule="evenodd" clip-rule="evenodd" d="M1.33301 8.00353C1.33301 4.32384 4.32529 1.33301 7.99967 1.33301C11.6741 1.33301 14.6663 4.32384 14.6663 8.00353C14.6663 11.6755 11.6741 14.6663 7.99967 14.6663C4.32529 14.6663 1.33301 11.6755 1.33301 8.00353ZM10.445 8.67824C10.5158 8.60749 10.6059 8.49815 10.6252 8.47242C10.7281 8.33735 10.7796 8.17012 10.7796 8.00353C10.7796 7.81636 10.7217 7.6427 10.6123 7.5012C10.6033 7.49224 10.5858 7.47314 10.5629 7.44824C10.5201 7.40165 10.4586 7.33477 10.3999 7.27608C9.87226 6.71008 8.49517 5.78388 7.77445 5.50088C7.66505 5.4565 7.38835 5.35938 7.24034 5.35295C7.09877 5.35295 6.96364 5.38511 6.83494 5.44942C6.67406 5.53947 6.54536 5.68097 6.47458 5.8482C6.42953 5.96398 6.35875 6.3113 6.35875 6.31773C6.28796 6.69721 6.24935 7.31468 6.24935 7.99646C6.24935 8.64672 6.28796 9.23782 6.34588 9.62373C6.34747 9.62532 6.35301 9.65292 6.3616 9.6958C6.38775 9.82615 6.44221 10.0977 6.50032 10.209C6.64189 10.4792 6.91859 10.6464 7.2146 10.6464H7.24034C7.43339 10.64 7.8388 10.4727 7.8388 10.4663C8.52091 10.1833 9.86583 9.30213 10.4064 8.71683L10.445 8.67824Z" fill="#FF4D00"/>
</svg>
