<svg width="16" height="16" viewBox="0 0 16 16" fill="none" xmlns="http://www.w3.org/2000/svg">
<path fill-rule="evenodd" clip-rule="evenodd" d="M6.33301 8.36896C8.16939 8.36896 9.64143 6.87787 9.64143 5.01773C9.64143 3.15759 8.16939 1.6665 6.33301 1.6665C4.49663 1.6665 3.02459 3.15759 3.02459 5.01773C3.02459 6.87787 4.49663 8.36896 6.33301 8.36896ZM6.33301 10.01C3.63582 10.01 1.33301 10.4412 1.33301 12.1641C1.33301 13.8864 3.62181 14.3332 6.33301 14.3332C9.02952 14.3332 11.333 13.9019 11.333 12.179C11.333 10.4561 9.04421 10.01 6.33301 10.01ZM13.265 6.39175H14.067C14.3972 6.39175 14.6663 6.66471 14.6663 6.99949C14.6663 7.33427 14.3972 7.60723 14.067 7.60723H13.265V8.39209C13.265 8.72687 12.9965 8.99984 12.6657 8.99984C12.3355 8.99984 12.0663 8.72687 12.0663 8.39209V7.60723H11.2657C10.9348 7.60723 10.6663 7.33427 10.6663 6.99949C10.6663 6.66471 10.9348 6.39175 11.2657 6.39175H12.0663V5.60758C12.0663 5.2728 12.3355 4.99984 12.6657 4.99984C12.9965 4.99984 13.265 5.2728 13.265 5.60758V6.39175Z" fill="white"/>
</svg>
