<svg width="36" height="36" viewBox="0 0 36 36" fill="none" xmlns="http://www.w3.org/2000/svg">
<g clip-path="url(#clip0_1238_20986)">
<path d="M12.2202 7.15809C12.0812 6.86965 11.8636 6.62628 11.5925 6.45597C11.3213 6.28566 11.0076 6.19531 10.6874 6.19531C10.3672 6.19531 10.0535 6.28566 9.78237 6.45597C9.51122 6.62628 9.29363 6.86965 9.1546 7.15809L0.154603 26.2831C-0.0356068 26.6896 -0.0565339 27.1551 0.0964254 27.577C0.249385 27.999 0.563701 28.3429 0.970228 28.5331C1.37676 28.7233 1.84219 28.7442 2.26415 28.5913C2.68611 28.4383 3.03002 28.124 3.22023 27.7175L5.39992 23.0628H15.9749L18.1546 27.7175C18.2912 28.0084 18.508 28.2542 18.7795 28.4261C19.0511 28.598 19.366 28.6888 19.6874 28.6878C19.9345 28.6852 20.1784 28.6326 20.4046 28.5331C20.8094 28.341 21.1221 27.997 21.2748 27.5757C21.4275 27.1545 21.4079 26.69 21.2202 26.2831L12.2202 7.15809ZM6.98898 19.6878L10.6874 11.8409L14.3859 19.6878H6.98898ZM28.6874 12.7831C27.3368 12.7765 26.0167 13.1839 24.9046 13.9503C24.5372 14.2076 24.2871 14.6004 24.2093 15.0421C24.1315 15.4838 24.2324 15.9384 24.4898 16.3057C24.7471 16.6731 25.1398 16.9232 25.5816 17.001C26.0233 17.0788 26.4779 16.9779 26.8452 16.7206C27.3863 16.347 28.03 16.1505 28.6874 16.1581C30.2343 16.1581 31.4999 17.1706 31.4999 18.4081V18.605C30.6157 18.207 29.6571 18.0009 28.6874 18.0003C25.2702 18.0003 22.4999 20.4612 22.4999 23.4847C22.4999 26.5081 25.2702 28.969 28.6874 28.969C29.8272 28.97 30.949 28.6847 31.9499 28.1393C32.1066 28.3119 32.2976 28.4498 32.5107 28.5443C32.7238 28.6387 32.9543 28.6876 33.1874 28.6878C33.635 28.6878 34.0642 28.51 34.3807 28.1935C34.6971 27.8771 34.8749 27.4478 34.8749 27.0003V18.4081C34.8749 15.3003 32.1046 12.7831 28.6874 12.7831ZM28.6874 25.594C27.1687 25.594 25.8749 24.6237 25.8749 23.4847C25.8749 22.3456 27.1687 21.3753 28.6874 21.3753C30.2062 21.3753 31.4999 22.3456 31.4999 23.4847C31.4999 24.6237 30.2062 25.594 28.6874 25.594Z" fill="white"/>
</g>
<defs>
<clipPath id="clip0_1238_20986">
<rect width="36" height="36" fill="white"/>
</clipPath>
</defs>
</svg>
