<svg width="36" height="36" viewBox="0 0 36 36" fill="none" xmlns="http://www.w3.org/2000/svg">
<path fill-rule="evenodd" clip-rule="evenodd" d="M12.6987 7.85437C12.3641 8.30628 12.4026 8.95091 12.8253 9.36C13.2753 9.81 14.0103 9.81 14.4603 9.36L16.8453 6.96V13.17H19.1553V6.96L21.5403 9.36L21.6697 9.47157C22.1216 9.80628 22.7662 9.76909 23.1753 9.36C23.4003 9.135 23.5203 8.835 23.5203 8.535C23.5203 8.25 23.4003 7.95 23.1753 7.725L18.8103 3.345L18.6742 3.22272C18.4803 3.0768 18.2403 3 18.0003 3C17.6853 3 17.4003 3.12 17.1753 3.345L12.8103 7.725L12.6987 7.85437ZM9.34674 13.1777C5.81687 13.3444 3 16.3138 3 19.9312V27.3789L3.00726 27.6976C3.17115 31.2899 6.09043 34.1703 9.675 34.1703H26.34L26.6533 34.1629C30.1831 33.9962 33 31.0264 33 27.3941V19.9617L32.9927 19.6417C32.828 16.0363 29.895 13.1703 26.325 13.1703H19.155V22.3273L19.1443 22.4883C19.0668 23.0664 18.5775 23.5024 18 23.5024C17.355 23.5024 16.845 22.9835 16.845 22.3273V13.1703H9.66L9.34674 13.1777Z" fill="white"/>
</svg>
