<svg width="20" height="20" viewBox="0 0 20 20" fill="none" xmlns="http://www.w3.org/2000/svg">
<path fill-rule="evenodd" clip-rule="evenodd" d="M7.91699 10.4616C10.2125 10.4616 12.0525 8.59771 12.0525 6.27253C12.0525 3.94735 10.2125 2.0835 7.91699 2.0835C5.62152 2.0835 3.78147 3.94735 3.78147 6.27253C3.78147 8.59771 5.62152 10.4616 7.91699 10.4616ZM7.91699 12.5128C4.54551 12.5128 1.66699 13.0519 1.66699 15.2055C1.66699 17.3583 4.528 17.9168 7.91699 17.9168C11.2876 17.9168 14.167 17.3778 14.167 15.2241C14.167 13.0705 11.306 12.5128 7.91699 12.5128ZM16.5819 7.99005H17.5845C17.9972 7.99005 18.3337 8.33125 18.3337 8.74973C18.3337 9.1682 17.9972 9.50941 17.5845 9.50941H16.5819V10.4905C16.5819 10.909 16.2463 11.2502 15.8328 11.2502C15.4201 11.2502 15.0837 10.909 15.0837 10.4905V9.50941H14.0828C13.6693 9.50941 13.3337 9.1682 13.3337 8.74973C13.3337 8.33125 13.6693 7.99005 14.0828 7.99005H15.0837V7.00984C15.0837 6.59137 15.4201 6.25016 15.8328 6.25016C16.2463 6.25016 16.5819 6.59137 16.5819 7.00984V7.99005Z" fill="white"/>
</svg>
