<svg width="36" height="36" viewBox="0 0 36 36" fill="none" xmlns="http://www.w3.org/2000/svg">
<path fill-rule="evenodd" clip-rule="evenodd" d="M3 18.0225C3 10.1207 9.315 3 18.03 3C26.55 3 33 9.98548 33 17.9775C33 27.2464 25.44 33 18 33C15.54 33 12.81 32.339 10.62 31.0471C9.855 30.5814 9.21 30.2359 8.385 30.5063L5.355 31.4076C4.59 31.648 3.9 31.0471 4.125 30.2359L5.13 26.8708C5.295 26.4051 5.265 25.9094 5.025 25.5188C3.735 23.1452 3 20.5463 3 18.0225ZM16.05 18.0225C16.05 19.0891 16.905 19.9454 17.97 19.9604C19.035 19.9604 19.89 19.0891 19.89 18.0376C19.89 16.971 19.035 16.1147 17.97 16.1147C16.92 16.0996 16.05 16.971 16.05 18.0225ZM22.965 18.0376C22.965 19.0891 23.82 19.9604 24.885 19.9604C25.95 19.9604 26.805 19.0891 26.805 18.0376C26.805 16.971 25.95 16.1147 24.885 16.1147C23.82 16.1147 22.965 16.971 22.965 18.0376ZM11.055 19.9604C10.005 19.9604 9.135 19.0891 9.135 18.0376C9.135 16.971 9.99 16.1147 11.055 16.1147C12.12 16.1147 12.975 16.971 12.975 18.0376C12.975 19.0891 12.12 19.9454 11.055 19.9604Z" fill="white"/>
</svg>
