<svg width="28" height="28" viewBox="0 0 28 28" fill="none" xmlns="http://www.w3.org/2000/svg">
<path fill-rule="evenodd" clip-rule="evenodd" d="M13.9997 11.084C15.6107 11.084 16.9163 12.3896 16.9163 14.0007C16.9163 15.6117 15.6107 16.9173 13.9997 16.9173C12.3886 16.9173 11.083 15.6117 11.083 14.0007C11.083 12.3896 12.3886 11.084 13.9997 11.084Z" stroke="#212121" stroke-width="1.5" stroke-linecap="round" stroke-linejoin="round"/>
<path fill-rule="evenodd" clip-rule="evenodd" d="M23.529 8.45895V8.45895C22.7315 7.06798 20.9661 6.59204 19.5863 7.39527C18.3861 8.09248 16.8861 7.2201 16.8861 5.82453C16.8861 4.21922 15.5932 2.91699 13.9994 2.91699V2.91699C12.4056 2.91699 11.1127 4.21922 11.1127 5.82453C11.1127 7.2201 9.61274 8.09248 8.41367 7.39527C7.03268 6.59204 5.26726 7.06798 4.46979 8.45895C3.67346 9.84991 4.146 11.6281 5.52698 12.4302C6.72605 13.1285 6.72605 14.8721 5.52698 15.5705C4.146 16.3737 3.67346 18.1519 4.46979 19.5417C5.26726 20.9327 7.03268 21.4086 8.41252 20.6065H8.41367C9.61274 19.9082 11.1127 20.7805 11.1127 22.1761V22.1761C11.1127 23.7814 12.4056 25.0837 13.9994 25.0837V25.0837C15.5932 25.0837 16.8861 23.7814 16.8861 22.1761V22.1761C16.8861 20.7805 18.3861 19.9082 19.5863 20.6065C20.9661 21.4086 22.7315 20.9327 23.529 19.5417C24.3265 18.1519 23.8528 16.3737 22.473 15.5705H22.4718C21.2727 14.8721 21.2727 13.1285 22.473 12.4302C23.8528 11.6281 24.3265 9.84991 23.529 8.45895Z" stroke="#212121" stroke-width="1.5" stroke-linecap="round" stroke-linejoin="round"/>
</svg>
