<svg width="36" height="36" viewBox="0 0 36 36" fill="none" xmlns="http://www.w3.org/2000/svg">
<path fill-rule="evenodd" clip-rule="evenodd" d="M12 4.5C12 4.10218 12.158 3.72064 12.4393 3.43934C12.7206 3.15804 13.1022 3 13.5 3H22.5C22.8978 3 23.2794 3.15804 23.5607 3.43934C23.842 3.72064 24 4.10218 24 4.5C24 4.89782 23.842 5.27936 23.5607 5.56066C23.2794 5.84196 22.8978 6 22.5 6H13.5C13.1022 6 12.7206 5.84196 12.4393 5.56066C12.158 5.27936 12 4.89782 12 4.5ZM4.5 21C4.49978 18.4576 5.21746 15.9669 6.57044 13.8145C7.92342 11.662 9.85669 9.93537 12.1477 8.83326C14.4388 7.73115 16.9945 7.29838 19.5207 7.58475C22.0468 7.87112 24.4408 8.86501 26.427 10.452L27.4395 9.4395C27.5779 9.29624 27.7434 9.18196 27.9264 9.10335C28.1094 9.02473 28.3062 8.98336 28.5054 8.98162C28.7046 8.97989 28.9021 9.01785 29.0864 9.09327C29.2708 9.16869 29.4383 9.28007 29.5791 9.42091C29.7199 9.56175 29.8313 9.72923 29.9067 9.91357C29.9822 10.0979 30.0201 10.2954 30.0184 10.4946C30.0166 10.6938 29.9753 10.8906 29.8967 11.0736C29.818 11.2566 29.7038 11.4221 29.5605 11.5605L28.548 12.573C29.8939 14.2579 30.8165 16.2407 31.2387 18.3554C31.6609 20.4701 31.5704 22.6552 30.9747 24.7277C30.379 26.8002 29.2955 28.6999 27.8149 30.2677C26.3343 31.8355 24.4996 33.0258 22.4645 33.7389C20.4294 34.4521 18.2531 34.6673 16.1177 34.3667C13.9824 34.066 11.9501 33.2582 10.191 32.0108C8.43197 30.7634 6.99733 29.1128 6.00719 27.1971C5.01705 25.2814 4.50023 23.1564 4.5 21ZM19.5 15C19.5 14.6022 19.342 14.2206 19.0607 13.9393C18.7794 13.658 18.3978 13.5 18 13.5C17.6022 13.5 17.2206 13.658 16.9393 13.9393C16.658 14.2206 16.5 14.6022 16.5 15V21C16.5 21.3978 16.658 21.7794 16.9393 22.0607C17.2206 22.342 17.6022 22.5 18 22.5C18.3978 22.5 18.7794 22.342 19.0607 22.0607C19.342 21.7794 19.5 21.3978 19.5 21V15Z" fill="white"/>
</svg>
