<svg width="28" height="28" viewBox="0 0 28 28" fill="none" xmlns="http://www.w3.org/2000/svg">
<path fill-rule="evenodd" clip-rule="evenodd" d="M13.8183 25.2715C9.51119 25.2715 5.83301 24.6013 5.83301 21.9171C5.83301 19.2328 9.48786 16.7549 13.8183 16.7549C18.1254 16.7549 21.8036 19.2088 21.8036 21.893C21.8036 24.5762 18.1488 25.2715 13.8183 25.2715Z" stroke="#212121" stroke-width="1.5" stroke-linecap="round" stroke-linejoin="round"/>
<path fill-rule="evenodd" clip-rule="evenodd" d="M13.8099 13.0357C16.6364 13.0357 18.9273 10.7448 18.9273 7.91829C18.9273 5.09177 16.6364 2.7998 13.8099 2.7998C10.9834 2.7998 8.69144 5.09177 8.69144 7.91829C8.68189 10.7353 10.9569 13.0262 13.7739 13.0357C13.7866 13.0357 13.7983 13.0357 13.8099 13.0357Z" stroke="#212121" stroke-width="1.5" stroke-linecap="round" stroke-linejoin="round"/>
</svg>
