<svg width="20" height="20" viewBox="0 0 20 20" fill="none" xmlns="http://www.w3.org/2000/svg">
<path d="M16.667 5.83317H15.6595C15.7817 5.42799 15.8405 5.00633 15.8337 4.58317C15.8337 2.97484 14.5253 1.6665 12.917 1.6665C11.5653 1.6665 10.6628 2.9015 10.0803 4.23734C9.50616 2.97484 8.55783 1.6665 7.08366 1.6665C5.47533 1.6665 4.16699 2.97484 4.16699 4.58317C4.16699 5.07984 4.23283 5.49067 4.34116 5.83317H3.33366C2.41449 5.83317 1.66699 6.58067 1.66699 7.49984V9.1665C1.66699 10.0857 2.41449 10.8332 3.33366 10.8332V16.6665C3.33366 17.5857 4.08116 18.3332 5.00033 18.3332H15.0003C15.9195 18.3332 16.667 17.5857 16.667 16.6665V10.8332C17.5862 10.8332 18.3337 10.0857 18.3337 9.1665V7.49984C18.3337 6.58067 17.5862 5.83317 16.667 5.83317ZM12.917 3.33317C13.6062 3.33317 14.167 3.894 14.167 4.58317C14.167 5.83317 13.6453 5.83317 13.3337 5.83317H11.2687C11.6945 4.51984 12.3128 3.33317 12.917 3.33317ZM5.83366 4.58317C5.83366 3.894 6.39449 3.33317 7.08366 3.33317C7.82366 3.33317 8.51199 4.604 8.91533 5.83317H6.66699C6.35533 5.83317 5.83366 5.83317 5.83366 4.58317ZM3.33366 7.49984H9.16699V9.1665H3.33366V7.49984ZM5.00033 16.6665V10.8332H9.16699V16.6665H5.00033ZM15.0003 16.6665H10.8337V10.8332H15.0003V16.6665ZM10.8337 9.1665V7.57067L10.8478 7.49984H16.667L16.6678 9.1665H10.8337Z" fill="#9E9E9E"/>
</svg>
