<svg width="36" height="36" viewBox="0 0 36 36" fill="none" xmlns="http://www.w3.org/2000/svg">
<path fill-rule="evenodd" clip-rule="evenodd" d="M11.504 2.99902H24.509C29.594 2.99902 32.999 6.56902 32.999 11.879V24.1355C32.999 29.4305 29.594 32.999 24.509 32.999H11.504C6.41902 32.999 2.99902 29.4305 2.99902 24.1355V11.879C2.99902 6.56902 6.41902 2.99902 11.504 2.99902ZM22.5143 22.4994C23.0243 21.9909 23.0243 21.1659 22.5143 20.6559L19.8443 17.9859L22.5143 15.3144C23.0243 14.8059 23.0243 13.9659 22.5143 13.4559C22.0043 12.9444 21.1793 12.9444 20.6543 13.4559L17.9993 16.1244L15.3293 13.4559C14.8043 12.9444 13.9793 12.9444 13.4693 13.4559C12.9593 13.9659 12.9593 14.8059 13.4693 15.3144L16.1393 17.9859L13.4693 20.6409C12.9593 21.1659 12.9593 21.9909 13.4693 22.4994C13.7243 22.7544 14.0693 22.8909 14.3993 22.8909C14.7443 22.8909 15.0743 22.7544 15.3293 22.4994L17.9993 19.8459L20.6693 22.4994C20.9243 22.7709 21.2543 22.8909 21.5843 22.8909C21.9293 22.8909 22.2593 22.7544 22.5143 22.4994Z" fill="white"/>
</svg>
