<svg width="28" height="28" viewBox="0 0 28 28" fill="none" xmlns="http://www.w3.org/2000/svg">
<path fill-rule="evenodd" clip-rule="evenodd" d="M18.8517 9.60532C18.8517 12.3466 16.6663 14.5447 13.9409 14.5447C11.2154 14.5447 9.03002 12.3466 9.03002 9.60532C9.03002 6.86297 11.2154 4.66699 13.9409 4.66699C16.6663 4.66699 18.8517 6.86297 18.8517 9.60532ZM13.9409 23.3337C9.93781 23.3337 6.51976 22.699 6.51976 20.1605C6.51976 17.621 9.91588 16.9632 13.9409 16.9632C17.9439 16.9632 21.362 17.5978 21.362 20.1374C21.362 22.6759 17.9658 23.3337 13.9409 23.3337ZM20.9503 9.69442C20.9503 11.0919 20.5335 12.3937 19.8022 13.4759C19.727 13.5873 19.7939 13.7375 19.9265 13.7607C20.1093 13.7922 20.2984 13.81 20.4906 13.8153C22.4075 13.8657 24.1281 12.6248 24.6034 10.7567C25.3074 7.98177 23.2401 5.49054 20.6076 5.49054C20.3214 5.49054 20.0477 5.52101 19.7813 5.57564C19.7448 5.58405 19.7061 5.60086 19.6852 5.63343C19.6601 5.67336 19.6789 5.72695 19.704 5.76162C20.4948 6.87642 20.9503 8.23604 20.9503 9.69442ZM24.1249 15.765C25.413 16.0182 26.2602 16.5352 26.6112 17.2864C26.9078 17.9032 26.9078 18.6187 26.6112 19.2344C26.0742 20.3997 24.3432 20.7737 23.6705 20.8704C23.5316 20.8914 23.4198 20.7706 23.4344 20.6308C23.7781 17.402 21.0443 15.8711 20.3371 15.5191C20.3068 15.5034 20.3005 15.4792 20.3036 15.4645C20.3057 15.454 20.3183 15.4372 20.3412 15.434C21.8716 15.4056 23.5169 15.6158 24.1249 15.765ZM7.51029 13.8152C7.7025 13.8099 7.89053 13.7931 8.07439 13.7606C8.20706 13.7374 8.27392 13.5872 8.1987 13.4758C7.46746 12.3936 7.05065 11.0918 7.05065 9.69431C7.05065 8.23593 7.50611 6.87632 8.2969 5.76151C8.32197 5.72684 8.33973 5.67326 8.3157 5.63333C8.29481 5.60181 8.25511 5.58395 8.21959 5.57554C7.95217 5.5209 7.67847 5.49043 7.39224 5.49043C4.75976 5.49043 2.69242 7.98166 3.39755 10.7566C3.87286 12.6247 5.59338 13.8656 7.51029 13.8152ZM7.69675 15.4639C7.69989 15.4796 7.69362 15.5027 7.66437 15.5195C6.95611 15.8715 4.22229 17.4024 4.56598 20.6302C4.5806 20.771 4.46987 20.8908 4.33094 20.8708C3.65819 20.7741 1.92723 20.4001 1.39028 19.2348C1.09256 18.6181 1.09256 17.9036 1.39028 17.2868C1.74128 16.5356 2.58744 16.0186 3.87547 15.7644C4.4845 15.6162 6.12875 15.4061 7.66019 15.4344C7.68317 15.4376 7.69466 15.4544 7.69675 15.4639Z" fill="#FF4D00"/>
</svg>
