<svg width="28" height="28" viewBox="0 0 28 28" fill="none" xmlns="http://www.w3.org/2000/svg">
<path fill-rule="evenodd" clip-rule="evenodd" d="M25.0135 16.3264C21.909 16.3264 21.909 11.5262 25.0135 11.5262C25.0135 5.96454 25.0135 3.97949 14.0526 3.97949C3.0918 3.97949 3.0918 5.96454 3.0918 11.5262C6.1963 11.5262 6.1963 16.3264 3.0918 16.3264C3.0918 21.8892 3.0918 23.8742 14.0526 23.8742C25.0135 23.8742 25.0135 21.8892 25.0135 16.3264Z" stroke="#212121" stroke-width="1.5" stroke-linecap="round" stroke-linejoin="round"/>
<path fill-rule="evenodd" clip-rule="evenodd" d="M14.0526 10.7002C13.2557 10.7002 13.1799 11.9712 12.7062 12.4211C12.2314 12.8698 10.7579 12.357 10.5526 13.1539C10.3484 13.9519 11.6749 14.2227 11.8394 14.9068C12.0027 15.591 11.1931 16.5526 11.8849 17.0322C12.5779 17.5097 13.3234 16.4277 14.0526 16.4277C14.7817 16.4277 15.5272 17.5097 16.2202 17.0322C16.9132 16.5526 16.1024 15.591 16.2657 14.9068C16.4302 14.2227 17.7567 13.9519 17.5526 13.1539C17.3472 12.357 15.8737 12.8698 15.3989 12.4211C14.9252 11.9712 14.8494 10.7002 14.0526 10.7002Z" stroke="#212121" stroke-width="1.5" stroke-linecap="round" stroke-linejoin="round"/>
</svg>
