<svg width="164" height="194" viewBox="0 0 164 194" fill="none" xmlns="http://www.w3.org/2000/svg">
<path d="M79.6728 191.254C79.3995 190.883 78.9751 190.658 78.5146 190.631C59.3847 189.559 41.0075 178.632 26.4481 159.572C11.7836 140.395 3.37736 115.962 3.37736 92.5425C3.37736 69.1814 11.7497 47.563 25.2 31.4721C25.6584 30.9236 25.6884 30.1388 25.265 29.5622L25.1128 29.356C24.5183 28.5482 23.3171 28.4972 22.6734 29.2659C8.6976 45.9564 0 68.3426 0 92.5425C0 116.694 8.66558 141.869 23.7575 161.632C38.8945 181.417 58.0745 192.808 78.1303 193.997C79.5817 194.082 80.4956 192.45 79.6728 191.254ZM81.6277 0C64.4417 0 48.2767 6.40133 34.9406 17.189C34.2959 17.7105 34.1818 18.6554 34.6723 19.3241L34.8094 19.5113C35.336 20.229 36.349 20.3481 37.0407 19.7886C49.7802 9.4894 65.2125 3.37635 81.6267 3.37635C88.6827 3.37635 95.5575 4.50345 102.108 6.61454C102.775 6.82975 103.5 6.58153 103.885 5.99595L104.034 5.7687C104.591 4.91686 104.199 3.75271 103.231 3.4384C96.3173 1.19818 89.0671 0 81.6277 0ZM118.294 12.0139L118.16 12.2201C117.684 12.9498 117.907 13.9168 118.644 14.3812C142.961 29.6884 159.867 59.3467 159.867 92.5425C159.867 100.407 158.916 108.372 157.103 116.218C156.744 117.773 158.447 119.118 159.771 118.226C160.008 118.066 160.177 117.87 160.235 117.626C162.212 109.318 163.243 100.869 163.243 92.5425C163.243 58.1725 145.704 27.4581 120.425 11.5364C119.708 11.085 118.756 11.3042 118.294 12.0139ZM153.309 135.585C152.594 134.611 151.104 134.795 150.625 135.904C146.983 144.32 142.332 152.328 136.795 159.573C125.426 174.448 111.727 184.377 97.1691 188.521C96.1341 188.816 95.7227 190.062 96.3603 190.929L96.5295 191.159C96.9138 191.682 97.5845 191.92 98.2091 191.741C113.428 187.386 127.688 177.058 139.485 161.631C145.157 154.192 149.93 145.992 153.661 137.37C153.881 136.86 153.812 136.27 153.483 135.822L153.309 135.585Z" fill="#FF4D00"/>
<path d="M135.399 49.4139L135.199 49.56C134.543 50.0385 134.376 50.9334 134.8 51.625C142.117 63.5799 146.452 77.9861 146.452 93.3083C146.452 112.732 139.475 133.002 127.32 148.915C114.604 165.56 98.3746 174.732 81.6291 174.732C64.8825 174.732 48.6544 165.56 35.9258 148.915C33.7537 146.064 31.7407 143.079 29.9149 139.982C29.4454 139.186 28.4004 138.96 27.6556 139.509L27.4425 139.666C26.8018 140.138 26.6126 141.022 27.016 141.708C28.9049 144.919 30.988 148.012 33.2482 150.962C46.6184 168.463 63.8034 178.107 81.63 178.107C99.4456 178.107 116.631 168.463 130 150.962C142.604 134.475 149.829 113.452 149.829 93.3073C149.829 77.3395 145.298 62.3206 137.642 49.8423C137.168 49.0735 136.129 48.8804 135.399 49.4139ZM81.628 19.3681C97.4406 19.3681 112.155 26.2299 123.554 37.434C124.1 37.9705 124.949 38.0416 125.566 37.5882L125.764 37.443C126.529 36.8795 126.625 35.7563 125.947 35.0897C113.924 23.252 98.3746 15.9918 81.6291 15.9918C44.6475 15.9918 13.4176 51.3968 13.4176 93.3073C13.4176 103.689 15.3345 114.297 18.924 124.398C19.2714 125.376 20.4786 125.732 21.3144 125.118L22.4535 124.279V124.268C18.7739 114.229 16.7929 103.65 16.7929 93.3073C16.7929 53.2326 46.4823 19.3681 81.628 19.3681Z" fill="#FF4D00"/>
<path d="M81.628 30.5322C65.1287 30.5322 50.0168 39.1107 39.6535 52.4659C39.2271 53.0144 39.2261 53.7862 39.6375 54.3458L39.7896 54.552C40.4033 55.3848 41.6335 55.3788 42.2671 54.56C51.9988 41.9815 66.1617 33.9085 81.628 33.9085C110.168 33.9085 134.275 61.4247 134.275 93.9939C134.275 124.605 111.271 160.19 81.628 160.19C51.9737 160.19 28.97 124.605 28.97 93.9939C28.97 85.5976 30.5736 77.5267 33.4484 70.1844C33.6426 69.6889 33.5735 69.1324 33.2582 68.7039L33.077 68.4577C32.3483 67.4667 30.8178 67.6759 30.3674 68.8201C27.3053 76.5857 25.5946 85.1072 25.5946 93.9939C25.5946 110.515 31.5255 127.756 41.8567 141.284C52.8406 155.655 66.9645 163.567 81.6291 163.567C96.2815 163.567 110.406 155.655 121.389 141.284C131.721 127.756 137.651 110.515 137.651 93.9939C137.651 59.5909 111.992 30.5322 81.628 30.5322Z" fill="#FF4D00"/>
<path d="M42.6319 94.7597C42.6319 75.7189 53.7179 59.0083 68.7818 52.7842C69.7067 52.4018 70.016 51.2477 69.4194 50.4449C68.9009 49.7472 67.969 49.4709 67.1692 49.8112C51.0733 56.664 39.2556 74.4877 39.2556 94.7587C39.2556 111.118 47.1504 128.763 59.4906 138.873C60.0361 139.32 60.8199 139.328 61.3885 138.911L61.7068 138.678C62.5206 138.083 62.5656 136.878 61.7869 136.239C50.2124 126.735 42.6319 109.918 42.6319 94.7597ZM85.8346 49.7402L86.0629 50.0505C86.3011 50.3738 86.6565 50.586 87.0529 50.6521C105.727 53.7742 120.613 72.7099 120.613 94.7607C120.613 117.482 103.586 143.907 81.6285 143.907C80.7586 143.907 79.8978 143.867 79.0479 143.787C78.2982 143.717 77.5875 144.125 77.3112 144.824L77.2902 144.876C76.8868 145.896 77.5655 147.034 78.6575 147.14C79.6355 147.235 80.6265 147.283 81.6285 147.283C105.869 147.283 123.988 119.552 123.988 94.7597C123.988 70.9682 107.72 50.55 87.3541 47.2797C85.9708 47.0585 85.0038 48.6111 85.8346 49.7402Z" fill="#FF4D00"/>
<path d="M107.161 82.0091L106.937 82.1733C106.372 82.5877 106.168 83.3234 106.409 83.981C107.715 87.5436 108.434 91.4214 108.434 95.4464C108.434 111.135 96.7185 129.367 81.6265 129.367C66.5236 129.367 54.808 111.135 54.808 95.4464C54.808 78.8019 67.0862 64.734 81.6265 64.734C86.8837 64.734 91.8476 66.5758 96.0398 69.7239C96.5963 70.1424 97.3541 70.1664 97.9146 69.753L98.1198 69.6018C98.9577 68.9842 98.9667 67.729 98.1359 67.1003C93.3561 63.4858 87.6635 61.3587 81.6265 61.3587C65.2634 61.3587 51.4317 76.9681 51.4317 95.4474C51.4317 113.049 64.3405 132.744 81.6265 132.744C98.9016 132.744 111.81 113.05 111.81 95.4474C111.81 90.982 111.005 86.6907 109.551 82.7378C109.193 81.7588 108.001 81.3915 107.161 82.0091Z" fill="#FF4D00"/>
<path d="M81.6273 78.0922C79.5783 78.0922 77.5944 78.5467 75.7626 79.3755C74.8777 79.7759 74.6115 80.913 75.184 81.6968L75.3412 81.911C75.7716 82.4996 76.5504 82.7038 77.218 82.4105C78.6024 81.8029 80.0868 81.4686 81.6264 81.4686C88.5592 81.4686 94.411 88.2322 94.411 96.2342C94.411 103.82 88.8295 112.631 81.6264 112.631C74.4232 112.631 68.8307 103.82 68.8307 96.2342V96.088L68.2632 95.3142C67.3873 94.1211 65.4583 94.7117 65.4553 96.1911C65.4553 96.2051 65.4553 96.2191 65.4553 96.2342C65.4553 105.574 72.3762 116.008 81.6273 116.008C90.8785 116.008 97.7883 105.575 97.7883 96.2342C97.7883 86.3984 90.383 78.0922 81.6273 78.0922Z" fill="#FF4D00"/>
</svg>
