<svg width="188" height="170" viewBox="0 0 188 170" fill="none" xmlns="http://www.w3.org/2000/svg">
<path d="M45.6355 99.6062C44.1074 101.134 42.3375 101.829 40.3259 101.69C38.3088 101.551 36.7446 100.648 35.6332 98.9811C30.0764 90.9237 25.8032 82.1355 22.8136 72.6167C19.8296 63.1034 18.3375 53.0678 18.3375 42.5098C18.3375 38.62 18.5459 34.7997 18.9627 31.0488C19.3795 27.2979 20.0046 23.6165 20.8381 20.0046L10.6274 30.2153C9.37715 31.4656 7.91849 32.0907 6.25144 32.0907C4.58439 32.0907 3.12572 31.4656 1.87543 30.2153C0.625144 28.965 0 27.5063 0 25.8393C0 24.1722 0.625144 22.7136 1.87543 21.4633L20.8381 2.50058C21.6716 1.66705 22.5746 1.04191 23.5471 0.625144C24.5195 0.208382 25.5614 0 26.6728 0C27.7842 0 28.8261 0.208382 29.7985 0.625144C30.771 1.04191 31.6739 1.66705 32.5075 2.50058L51.4702 21.4633C52.7204 22.7136 53.3456 24.1722 53.3456 25.8393C53.3456 27.5063 52.7204 28.965 51.4702 30.2153C50.2199 31.4656 48.7612 32.0907 47.0941 32.0907C45.4271 32.0907 43.9684 31.4656 42.7181 30.2153L33.5494 21.0465C32.7158 24.5195 32.0574 28.062 31.5739 31.6739C31.0849 35.2859 30.8404 38.8978 30.8404 42.5098C30.8404 51.6785 32.1963 60.4306 34.908 68.7658C37.6142 77.1011 41.3984 84.8112 46.2606 91.8961C47.0942 93.0075 47.4415 94.3272 47.3025 95.8554C47.1636 97.3835 46.6079 98.6338 45.6355 99.6062ZM116.277 168.997L72.9334 151.076C70.9885 150.243 69.4965 148.751 68.4574 146.6C67.4127 144.444 67.0987 142.324 67.5155 140.241C67.7933 138.574 68.5935 137.148 69.9161 135.965C71.233 134.787 72.9334 133.989 75.0172 133.572L102.315 128.154L65.8485 46.2606C64.4592 43.0655 64.3565 39.8703 65.5401 36.6751C66.7181 33.4799 68.9047 31.1877 72.0999 29.7985C75.2951 28.4093 78.4903 28.3037 81.6854 29.4818C84.8806 30.6654 87.1728 32.8548 88.562 36.05L108.983 81.8938L115.86 78.7681C116.971 78.3513 118.222 77.9679 119.611 77.6178C121 77.2733 122.25 77.1705 123.362 77.3094L161.495 78.9765C165.107 79.2543 168.303 80.5046 171.081 82.7274C173.859 84.9501 175.735 87.7285 176.707 91.0626L187.126 127.113C188.238 131.141 187.96 135.031 186.293 138.782C184.626 142.533 181.847 145.242 177.958 146.909L130.863 167.955C128.502 169.067 126.001 169.728 123.362 169.939C120.722 170.145 118.361 169.831 116.277 168.997Z" fill="#00F2EA"/>
</svg>
