<svg width="16" height="16" viewBox="0 0 16 16" fill="none" xmlns="http://www.w3.org/2000/svg">
<path d="M3.99967 12.382C5.47034 12.382 6.66634 11.186 6.66634 9.71532V2.95198L12.6663 5.13332V10.0866C12.2629 9.84629 11.8026 9.71809 11.333 9.71532C9.86234 9.71532 8.66634 10.9113 8.66634 12.382C8.66634 13.8526 9.86234 15.0486 11.333 15.0486C12.8037 15.0486 13.9997 13.8526 13.9997 12.382V4.66665C13.9998 4.52987 13.9577 4.39638 13.8792 4.28437C13.8007 4.17235 13.6896 4.08725 13.561 4.04065L6.22767 1.37398C6.127 1.33718 6.01894 1.32522 5.91265 1.33912C5.80637 1.35302 5.70501 1.39236 5.61719 1.45381C5.52937 1.51526 5.45767 1.597 5.4082 1.69209C5.35872 1.78717 5.33293 1.8928 5.33301 1.99998V7.41998C4.92959 7.17962 4.46927 7.05142 3.99967 7.04865C2.52901 7.04865 1.33301 8.24465 1.33301 9.71532C1.33301 11.186 2.52901 12.382 3.99967 12.382Z" fill="white"/>
</svg>
