<svg width="28" height="28" viewBox="0 0 28 28" fill="none" xmlns="http://www.w3.org/2000/svg">
<path d="M8.06934 17.3293L11.5612 12.7921L15.5442 15.9188L18.9613 11.5088" stroke="#212121" stroke-width="1.5" stroke-linecap="round" stroke-linejoin="round"/>
<path fill-rule="evenodd" clip-rule="evenodd" d="M22.9445 2.74121C24.1835 2.74121 25.1868 3.74454 25.1868 4.98354C25.1868 6.22138 24.1835 7.22588 22.9445 7.22588C21.7055 7.22588 20.7021 6.22138 20.7021 4.98354C20.7021 3.74454 21.7055 2.74121 22.9445 2.74121Z" stroke="#212121" stroke-width="1.5" stroke-linecap="round" stroke-linejoin="round"/>
<path d="M24.2144 10.8135C24.3696 11.8577 24.4408 13.0337 24.4408 14.3532C24.4408 22.4475 21.7434 25.1449 13.6491 25.1449C5.55592 25.1449 2.85742 22.4475 2.85742 14.3532C2.85742 6.26002 5.55592 3.56152 13.6491 3.56152C14.9441 3.56152 16.1003 3.63036 17.1293 3.77969" stroke="#212121" stroke-width="1.5" stroke-linecap="round" stroke-linejoin="round"/>
</svg>
